# Blender v2.78 (sub 0) OBJ File: 'chair-rock.blend'
# www.blender.org
mtllib chair-rock.mtl
o chair_Cube.002
v 0.075000 -0.025000 -0.189679
v 0.075000 0.025000 -0.189679
v 0.075000 -0.025000 -0.139679
v 0.075000 0.025000 -0.139679
v -0.075000 -0.025000 -0.189679
v -0.075000 0.025000 -0.189679
v -0.075000 -0.025000 -0.139679
v -0.075000 0.025000 -0.139679
v 0.225000 0.000000 -0.139680
v 0.225000 0.000000 -0.189680
v 0.225000 0.050000 -0.189680
v 0.225000 0.050000 -0.139680
v -0.225000 0.050000 -0.139679
v -0.225000 0.000000 -0.139679
v -0.225000 0.000000 -0.189679
v -0.225000 0.050000 -0.189679
v -0.375000 0.100000 -0.139679
v -0.375000 0.050000 -0.139679
v -0.375000 0.050000 -0.189679
v -0.375000 0.100000 -0.189679
v 0.375000 0.050000 -0.139680
v 0.375000 0.050000 -0.189680
v 0.375000 0.100000 -0.189680
v 0.375000 0.100000 -0.139680
v 0.075000 -0.025000 0.189679
v 0.075000 0.025000 0.189679
v 0.075000 -0.025000 0.139679
v 0.075000 0.025000 0.139679
v -0.075000 -0.025000 0.189679
v -0.075000 0.025000 0.189679
v -0.075000 -0.025000 0.139679
v -0.075000 0.025000 0.139679
v 0.225000 0.000000 0.139679
v 0.225000 0.000000 0.189679
v 0.225000 0.050000 0.189679
v 0.225000 0.050000 0.139679
v -0.225000 0.050000 0.139680
v -0.225000 0.000000 0.139680
v -0.225000 0.000000 0.189680
v -0.225000 0.050000 0.189680
v -0.375000 0.100000 0.139680
v -0.375000 0.050000 0.139680
v -0.375000 0.050000 0.189680
v -0.375000 0.100000 0.189680
v 0.375000 0.050000 0.139679
v 0.375000 0.050000 0.189679
v 0.375000 0.100000 0.189679
v 0.375000 0.100000 0.139679
v 0.187990 0.350000 0.188499
v 0.187990 0.350000 0.141501
v 0.140993 0.350000 0.188499
v 0.140993 0.350000 0.141501
v -0.140992 0.350000 0.188499
v -0.140992 0.350000 0.141501
v -0.187990 0.350000 0.188499
v -0.187990 0.350000 0.141501
v 0.157777 0.250000 0.188499
v 0.182955 0.100000 0.188499
v 0.229952 0.100000 0.188499
v 0.204775 0.250000 0.188499
v 0.204775 0.250000 0.141501
v 0.229952 0.100000 0.141501
v 0.182955 0.100000 0.141501
v 0.157777 0.250000 0.141501
v -0.157777 0.250000 0.141501
v -0.182955 0.100000 0.141501
v -0.229952 0.100000 0.141501
v -0.204775 0.250000 0.141501
v -0.157777 0.250000 0.188499
v -0.182955 0.100000 0.188499
v -0.229952 0.100000 0.188499
v -0.204775 0.250000 0.188499
v -0.200000 0.400000 -0.195000
v -0.194981 0.400000 -0.200000
v -0.195000 0.350000 -0.195000
v -0.200000 0.355000 -0.195000
v -0.194981 0.355000 -0.200000
v 0.200000 0.395000 0.195000
v 0.195000 0.400000 0.195000
v 0.195000 0.395000 0.200000
v 0.200000 0.355000 0.195000
v 0.195000 0.355000 0.200000
v 0.195000 0.350000 0.195000
v 0.200000 0.395000 -0.195000
v 0.195000 0.395000 -0.200000
v 0.195000 0.400000 -0.195000
v 0.200000 0.355000 -0.195000
v 0.195000 0.350000 -0.195000
v 0.195000 0.355000 -0.200000
v -0.200000 0.355000 0.195000
v -0.195000 0.350000 0.195000
v -0.194981 0.355000 0.200000
v -0.194981 0.400000 0.200000
v -0.200000 0.400000 0.195000
v -0.160000 0.355000 -0.200000
v -0.160000 0.350000 -0.195000
v -0.160000 0.400000 0.195000
v -0.164414 0.395000 0.200000
v -0.160000 0.350000 0.195000
v -0.160000 0.355000 0.200000
v -0.164414 0.395000 -0.200000
v -0.160000 0.400000 -0.195000
v -0.209380 0.795039 -0.195000
v -0.214414 0.795000 -0.200000
v -0.215000 0.800000 -0.195000
v -0.244356 0.795000 0.200000
v -0.245000 0.800000 0.195000
v -0.249380 0.795039 0.195000
v -0.214414 0.795000 0.200000
v -0.209380 0.795039 0.195000
v -0.215000 0.800000 0.195000
v -0.249380 0.795039 -0.195000
v -0.245000 0.800000 -0.195000
v -0.244356 0.795000 -0.200000
v 0.187990 0.350000 -0.141501
v 0.187990 0.350000 -0.188499
v 0.140992 0.350000 -0.141501
v 0.140992 0.350000 -0.188499
v -0.140993 0.350000 -0.141501
v -0.140993 0.350000 -0.188499
v -0.187990 0.350000 -0.141501
v -0.187990 0.350000 -0.188499
v 0.204775 0.250000 -0.141501
v 0.229952 0.100000 -0.141501
v 0.229952 0.100000 -0.188499
v 0.204775 0.250000 -0.188499
v 0.157777 0.250000 -0.141501
v 0.182955 0.100000 -0.141501
v 0.157777 0.250000 -0.188499
v 0.182955 0.100000 -0.188499
v -0.204775 0.250000 -0.141501
v -0.229952 0.100000 -0.141501
v -0.182955 0.100000 -0.141501
v -0.157777 0.250000 -0.141501
v -0.157777 0.250000 -0.188499
v -0.182955 0.100000 -0.188499
v -0.229952 0.100000 -0.188499
v -0.204775 0.250000 -0.188499
v 0.241142 0.033333 -0.141501
v 0.241142 0.033333 -0.188499
v 0.194144 0.033333 -0.188499
v 0.194144 0.033333 -0.141501
v -0.241142 0.033333 -0.141501
v -0.194144 0.033333 -0.188499
v -0.241142 0.033333 -0.188499
v -0.194144 0.033333 -0.141501
v 0.194144 0.033333 0.188499
v 0.241142 0.033333 0.188499
v 0.241142 0.033333 0.141501
v 0.194144 0.033333 0.141501
v -0.241142 0.033333 0.141501
v -0.194144 0.033333 0.188499
v -0.241142 0.033333 0.188499
v -0.194144 0.033333 0.141501
vn -0.1644 0.9864 0.0000
vn 0.0000 0.0000 1.0000
vn 0.1644 0.9864 0.0000
vn 0.0000 0.0000 -1.0000
vn 0.0000 -1.0000 0.0000
vn 0.0000 1.0000 0.0000
vn 0.1644 -0.9864 0.0000
vn -0.3162 -0.9487 0.0000
vn -0.1644 -0.9864 0.0000
vn -1.0000 0.0000 0.0000
vn 0.3162 0.9487 -0.0000
vn 1.0000 0.0000 -0.0000
vn -0.3162 0.9487 0.0000
vn 0.3162 -0.9487 -0.0000
vn -0.9923 -0.1240 0.0000
vn -0.9862 -0.1655 0.0000
vn 0.9923 0.1240 -0.0000
vn 0.9862 0.1655 0.0000
vn 0.9862 -0.1655 0.0000
vn -0.9862 0.1655 0.0000
vn -0.5766 -0.5766 -0.5788
vn 0.5773 0.5774 0.5774
vn 0.5773 -0.5774 0.5774
vn 0.5774 0.5773 -0.5774
vn 0.5774 -0.5773 -0.5774
vn -0.5766 -0.5766 0.5788
vn 0.5493 0.6222 -0.5578
vn -0.5973 0.5273 0.6043
vn 0.5493 0.6222 0.5578
vn -0.5973 0.5273 -0.6043
vn 0.0000 -0.7071 -0.7071
vn -0.7057 0.0000 -0.7085
vn -0.7057 0.0000 0.7085
vn 0.7071 0.0000 -0.7071
vn 0.7071 0.0000 0.7071
vn 0.0000 0.7071 0.7071
vn 0.0000 -0.7071 0.7071
vn -0.0000 0.7071 -0.7071
vn -0.7071 -0.7071 0.0000
vn 0.7071 -0.7071 -0.0000
vn 0.7071 0.7071 -0.0000
vn 0.7016 0.0877 0.7071
vn -0.7030 -0.0879 0.7057
vn 0.6618 0.7497 -0.0000
vn -0.7497 0.6618 0.0000
vn 0.7016 0.0877 -0.7071
vn -0.7030 -0.0879 -0.7057
usemtl None
s off
f 2//1 4//1 12//1 11//1
f 3//2 4//2 8//2 7//2
f 8//3 6//3 16//3 13//3
f 5//4 6//4 2//4 1//4
f 3//5 7//5 5//5 1//5
f 8//6 4//6 2//6 6//6
f 12//2 9//2 21//2 24//2
f 3//7 1//7 10//7 9//7
f 4//2 3//2 9//2 12//2
f 1//4 2//4 11//4 10//4
f 15//8 14//8 18//8 19//8
f 7//2 8//2 13//2 14//2
f 6//4 5//4 15//4 16//4
f 5//9 7//9 14//9 15//9
f 18//10 17//10 20//10 19//10
f 13//11 16//11 20//11 17//11
f 14//2 13//2 17//2 18//2
f 16//4 15//4 19//4 20//4
f 22//12 23//12 24//12 21//12
f 10//4 11//4 23//4 22//4
f 11//13 12//13 24//13 23//13
f 9//14 10//14 22//14 21//14
f 26//1 35//1 36//1 28//1
f 27//4 31//4 32//4 28//4
f 32//3 37//3 40//3 30//3
f 29//2 25//2 26//2 30//2
f 27//5 25//5 29//5 31//5
f 32//6 30//6 26//6 28//6
f 36//4 48//4 45//4 33//4
f 27//7 33//7 34//7 25//7
f 28//4 36//4 33//4 27//4
f 25//2 34//2 35//2 26//2
f 39//8 43//8 42//8 38//8
f 31//4 38//4 37//4 32//4
f 30//2 40//2 39//2 29//2
f 29//9 39//9 38//9 31//9
f 42//10 43//10 44//10 41//10
f 37//11 41//11 44//11 40//11
f 38//4 42//4 41//4 37//4
f 40//2 44//2 43//2 39//2
f 46//12 45//12 48//12 47//12
f 34//2 46//2 47//2 35//2
f 35//13 47//13 48//13 36//13
f 33//14 45//14 46//14 34//14
f 93//2 98//2 109//2 106//2
f 73//15 94//15 108//15 112//15
f 100//2 98//2 93//2 92//2
f 102//6 97//6 79//6 86//6
f 57//16 51//16 52//16 64//16
f 55//2 72//2 69//2 53//2
f 101//4 85//4 89//4 95//4
f 61//4 64//4 52//4 50//4
f 88//5 83//5 99//5 96//5
f 105//6 113//6 107//6 111//6
f 91//5 75//5 96//5 99//5
f 80//2 98//2 100//2 82//2
f 97//17 102//17 103//17 110//17
f 77//4 74//4 101//4 95//4
f 101//4 74//4 114//4 104//4
f 50//6 52//6 51//6 49//6
f 84//12 78//12 81//12 87//12
f 51//2 57//2 60//2 49//2
f 49//18 60//18 61//18 50//18
f 68//4 56//4 54//4 65//4
f 69//19 65//19 54//19 53//19
f 56//20 68//20 72//20 55//20
f 151//4 67//4 66//4 154//4
f 59//18 62//18 61//18 60//18
f 149//5 148//5 147//5 150//5
f 57//2 58//2 59//2 60//2
f 59//2 58//2 147//2 148//2
f 61//4 62//4 63//4 64//4
f 154//5 152//5 153//5 151//5
f 71//2 70//2 69//2 72//2
f 67//20 71//20 72//20 68//20
f 71//20 67//20 151//20 153//20
f 154//19 66//19 70//19 152//19
f 65//4 66//4 67//4 68//4
f 75//21 76//21 77//21
f 78//22 79//22 80//22
f 81//23 82//23 83//23
f 84//24 85//24 86//24
f 87//25 88//25 89//25
f 90//26 91//26 92//26
f 103//27 104//27 105//27
f 106//28 107//28 108//28
f 109//29 110//29 111//29
f 112//30 113//30 114//30
f 96//31 75//31 77//31 95//31
f 74//32 77//32 76//32 73//32
f 94//33 90//33 92//33 93//33
f 89//34 85//34 84//34 87//34
f 80//35 82//35 81//35 78//35
f 88//31 96//31 95//31 89//31
f 79//36 97//36 98//36 80//36
f 91//37 99//37 100//37 92//37
f 99//37 83//37 82//37 100//37
f 102//38 86//38 85//38 101//38
f 75//39 91//39 90//39 76//39
f 83//40 88//40 87//40 81//40
f 86//41 79//41 78//41 84//41
f 97//42 110//42 109//42 98//42
f 93//43 106//43 108//43 94//43
f 110//44 103//44 105//44 111//44
f 107//45 113//45 112//45 108//45
f 113//38 105//38 104//38 114//38
f 111//36 107//36 106//36 109//36
f 103//46 102//46 101//46 104//46
f 73//47 112//47 114//47 74//47
f 94//10 73//10 76//10 90//10
f 54//6 56//6 55//6 53//6
f 63//4 66//4 65//4 64//4
f 64//6 65//6 69//6 57//6
f 58//2 57//2 69//2 70//2
f 66//5 63//5 58//5 70//5
f 122//20 138//20 131//20 121//20
f 115//18 123//18 126//18 116//18
f 131//2 134//2 119//2 121//2
f 123//2 115//2 117//2 127//2
f 129//16 127//16 117//16 118//16
f 120//4 135//4 138//4 122//4
f 135//19 120//19 119//19 134//19
f 125//4 130//4 129//4 126//4
f 125//4 140//4 141//4 130//4
f 142//16 128//16 130//16 141//16
f 127//2 128//2 124//2 123//2
f 123//18 124//18 125//18 126//18
f 137//20 132//20 131//20 138//20
f 137//20 145//20 143//20 132//20
f 135//4 136//4 137//4 138//4
f 136//4 144//4 145//4 137//4
f 131//2 132//2 133//2 134//2
f 116//6 118//6 117//6 115//6
f 120//6 122//6 121//6 119//6
f 127//6 129//6 135//6 134//6
f 130//4 136//4 135//4 129//4
f 127//2 134//2 133//2 128//2
f 136//5 130//5 128//5 133//5
f 116//4 126//4 129//4 118//4
f 139//2 124//2 128//2 142//2
f 140//5 139//5 142//5 141//5
f 146//2 133//2 132//2 143//2
f 144//5 146//5 143//5 145//5
f 144//19 136//19 133//19 146//19
f 124//18 139//18 140//18 125//18
f 62//18 59//18 148//18 149//18
f 147//16 58//16 63//16 150//16
f 70//2 71//2 153//2 152//2
f 150//4 63//4 62//4 149//4
