# Blender v2.78 (sub 0) OBJ File: 'chair-rest.blend'
# www.blender.org
mtllib chair-rest.mtl
o mattress_Cube.001
v -0.400000 0.030950 1.495744
v -0.395000 0.025981 1.495097
v -0.395000 0.029957 1.500657
v -0.400000 0.428985 -1.494429
v -0.395000 0.429957 -1.499343
v -0.395000 0.424019 -1.495097
v 0.400000 0.030950 1.495744
v 0.395000 0.029957 1.500657
v 0.395000 0.025981 1.495097
v 0.400000 0.428985 -1.494429
v 0.395000 0.424019 -1.495097
v 0.395000 0.429957 -1.499343
v -0.400000 0.228985 0.505571
v -0.400000 0.230000 0.495619
v -0.395000 0.225000 0.495000
v -0.395000 0.224019 0.504903
v -0.400000 0.230950 -0.504256
v -0.395000 0.225981 -0.504903
v -0.395000 0.225000 -0.495000
v -0.400000 0.230000 -0.494294
v 0.400000 0.230950 -0.504256
v 0.400000 0.230000 -0.494294
v 0.395000 0.225000 -0.495000
v 0.395000 0.225981 -0.504903
v 0.400000 0.228985 0.505571
v 0.395000 0.224019 0.504903
v 0.395000 0.225000 0.495000
v 0.400000 0.230000 0.495619
v -0.400000 0.295366 -0.495723
v -0.400000 0.294351 -0.485770
v -0.395000 0.299351 -0.485152
v -0.395000 0.300331 -0.495055
v -0.400000 0.493400 -1.485896
v -0.395000 0.498370 -1.485249
v -0.395000 0.494394 -1.490808
v 0.400000 0.293400 0.514104
v 0.400000 0.294351 0.504142
v 0.395000 0.299351 0.504848
v 0.395000 0.298370 0.514751
v 0.400000 0.095366 1.504277
v 0.395000 0.100331 1.504945
v 0.395000 0.094394 1.509192
v -0.400000 0.095366 1.504277
v -0.395000 0.094394 1.509192
v -0.395000 0.100331 1.504945
v -0.400000 0.293400 0.514104
v -0.395000 0.298370 0.514751
v -0.395000 0.299351 0.504848
v -0.400000 0.294351 0.504142
v 0.400000 0.493400 -1.485896
v 0.395000 0.494394 -1.490808
v 0.395000 0.498370 -1.485249
v 0.400000 0.295366 -0.495723
v 0.395000 0.300331 -0.495055
v 0.395000 0.299351 -0.485152
v 0.400000 0.294351 -0.485770
vn -0.0000 -0.1313 0.9913
vn -1.0000 0.0000 0.0000
vn 0.0000 0.1313 -0.9913
vn 0.0000 0.9806 0.1961
vn 0.0000 -0.9806 -0.1961
vn 0.0000 1.0000 0.0000
vn 1.0000 0.0000 0.0000
vn 0.0000 -1.0000 0.0000
vn -0.5912 -0.6560 0.4692
vn -0.5660 -0.4796 -0.6706
vn 0.5913 -0.6560 0.4691
vn 0.5660 -0.4796 -0.6706
vn -0.7087 -0.7020 -0.0706
vn -0.7090 -0.7019 -0.0682
vn 0.7090 -0.7019 -0.0682
vn 0.7087 -0.7020 -0.0706
vn -0.7087 0.7020 0.0706
vn -0.5913 0.6560 -0.4692
vn 0.7090 0.7019 0.0682
vn 0.5660 0.4796 0.6706
vn -0.5660 0.4796 0.6706
vn -0.7090 0.7019 0.0682
vn 0.5913 0.6560 -0.4692
vn 0.7087 0.7020 0.0706
vn -0.7071 -0.6934 -0.1387
vn 0.7071 -0.6934 -0.1387
vn -0.7071 -0.7071 0.0000
vn 0.7071 -0.7071 0.0000
vn 0.0000 -0.9951 -0.0985
vn 0.0000 -0.5817 -0.8134
vn -0.0000 -0.8134 0.5817
vn -0.7071 0.6934 0.1387
vn 0.7071 0.6934 0.1387
vn -0.7071 0.7071 0.0000
vn 0.7071 0.7071 0.0000
vn 0.0000 0.9951 0.0985
vn 0.0000 0.8134 -0.5817
vn -0.0000 0.5817 0.8134
vn -0.7071 0.0929 -0.7010
vn 0.7071 -0.0929 0.7010
vn -0.7071 -0.0929 0.7010
vn 0.7071 0.0929 -0.7010
usemtl None
s off
f 3//1 8//1 42//1 44//1
f 20//2 14//2 49//2 30//2
f 12//3 5//3 35//3 51//3
f 52//4 34//4 32//4 54//4
f 39//4 47//4 45//4 41//4
f 11//5 24//5 18//5 6//5
f 13//2 1//2 43//2 46//2
f 55//6 31//6 48//6 38//6
f 28//7 22//7 56//7 37//7
f 21//7 10//7 50//7 53//7
f 7//7 25//7 36//7 40//7
f 23//8 27//8 15//8 19//8
f 4//2 17//2 29//2 33//2
f 1//9 2//9 3//9
f 4//10 5//10 6//10
f 7//11 8//11 9//11
f 10//12 11//12 12//12
f 13//13 14//13 15//13 16//13
f 17//14 18//14 19//14 20//14
f 21//15 22//15 23//15 24//15
f 25//16 26//16 27//16 28//16
f 29//17 30//17 31//17 32//17
f 33//18 34//18 35//18
f 36//19 37//19 38//19 39//19
f 40//20 41//20 42//20
f 43//21 44//21 45//21
f 46//22 47//22 48//22 49//22
f 50//23 51//23 52//23
f 53//24 54//24 55//24 56//24
f 17//25 4//25 6//25 18//25
f 25//26 7//26 9//26 26//26
f 1//25 13//25 16//25 2//25
f 14//27 20//27 19//27 15//27
f 10//26 21//26 24//26 11//26
f 22//28 28//28 27//28 23//28
f 26//29 16//29 15//29 27//29
f 23//29 19//29 18//29 24//29
f 11//30 6//30 5//30 12//30
f 8//31 3//31 2//31 9//31
f 32//32 34//32 33//32 29//32
f 39//33 41//33 40//33 36//33
f 45//32 47//32 46//32 43//32
f 48//34 31//34 30//34 49//34
f 52//33 54//33 53//33 50//33
f 55//35 38//35 37//35 56//35
f 38//36 48//36 47//36 39//36
f 54//36 32//36 31//36 55//36
f 51//37 35//37 34//37 52//37
f 41//38 45//38 44//38 42//38
f 20//2 30//2 29//2 17//2
f 35//39 5//39 4//39 33//39
f 7//40 40//40 42//40 8//40
f 43//41 1//41 3//41 44//41
f 21//7 53//7 56//7 22//7
f 36//7 25//7 28//7 37//7
f 13//2 46//2 49//2 14//2
f 50//42 10//42 12//42 51//42
f 26//5 9//5 2//5 16//5
o support_Cube
v 0.300000 0.300000 -1.000000
v 0.300000 0.000000 -1.000000
v -0.300000 0.000000 -1.000000
v -0.300000 0.300000 -1.000000
v -0.400000 0.000000 1.500000
v -0.400000 0.025000 1.500000
v -0.400000 0.400000 -1.500000
v -0.400000 0.425000 -1.500000
v 0.400000 0.000000 1.500000
v 0.400000 0.025000 1.500000
v 0.400000 0.400000 -1.500000
v 0.400000 0.425000 -1.500000
v -0.400000 0.200000 -0.500000
v -0.400000 0.200000 0.500000
v -0.400000 0.225000 0.500000
v -0.400000 0.225000 -0.500000
v 0.400000 0.200000 0.500000
v 0.400000 0.200000 -0.500000
v 0.400000 0.225000 -0.500000
v 0.400000 0.225000 0.500000
v 0.285714 0.400000 -1.500000
v 0.171429 0.400000 -1.500000
v 0.057143 0.400000 -1.500000
v -0.057143 0.400000 -1.500000
v -0.171429 0.400000 -1.500000
v -0.285714 0.400000 -1.500000
v -0.285714 0.425000 -1.500000
v -0.171429 0.425000 -1.500000
v -0.057143 0.425000 -1.500000
v 0.057143 0.425000 -1.500000
v 0.171429 0.425000 -1.500000
v 0.285714 0.425000 -1.500000
v -0.285714 0.000000 1.500000
v -0.171429 0.000000 1.500000
v -0.057143 0.000000 1.500000
v 0.057143 0.000000 1.500000
v 0.171429 0.000000 1.500000
v 0.285714 0.000000 1.500000
v 0.285714 0.025000 1.500000
v 0.171429 0.025000 1.500000
v 0.057143 0.025000 1.500000
v -0.057143 0.025000 1.500000
v -0.171429 0.025000 1.500000
v -0.285714 0.025000 1.500000
v -0.285714 0.225000 -0.500000
v -0.171429 0.225000 -0.500000
v -0.057143 0.225000 -0.500000
v 0.057143 0.225000 -0.500000
v 0.171429 0.225000 -0.500000
v 0.285714 0.225000 -0.500000
v -0.285714 0.225000 0.500000
v -0.171429 0.225000 0.500000
v -0.057143 0.225000 0.500000
v 0.057143 0.225000 0.500000
v 0.171429 0.225000 0.500000
v 0.285714 0.225000 0.500000
v 0.285714 0.200000 -0.500000
v 0.171429 0.200000 -0.500000
v 0.057143 0.200000 -0.500000
v -0.057143 0.200000 -0.500000
v -0.171429 0.200000 -0.500000
v -0.285714 0.200000 -0.500000
v 0.285714 0.200000 0.500000
v 0.171429 0.200000 0.500000
v 0.057143 0.200000 0.500000
v -0.057143 0.200000 0.500000
v -0.171429 0.200000 0.500000
v -0.285714 0.200000 0.500000
v 0.300000 0.000000 1.000000
v 0.300000 0.200000 0.500000
v -0.300000 0.200000 0.500000
v 0.300000 0.200000 -0.500000
v -0.300000 0.200000 -0.500000
v 0.300000 0.000000 0.500000
v 0.300000 0.100000 1.000000
v -0.300000 0.000000 0.500000
v 0.300000 0.000000 -0.500000
v -0.300000 0.100000 1.000000
v -0.300000 0.000000 -0.500000
v -0.300000 0.000000 1.000000
vn -1.0000 0.0000 0.0000
vn 0.0000 -1.0000 0.0000
vn 0.0000 0.9806 0.1961
vn 0.0000 0.0000 -1.0000
vn 1.0000 0.0000 0.0000
vn 0.0000 0.0000 1.0000
vn 0.0000 -0.9806 -0.1961
vn 0.0000 1.0000 0.0000
usemtl None
s off
f 129//43 60//43 59//43 135//43
f 133//44 135//44 59//44 58//44
f 129//45 128//45 57//45 60//45
f 69//43 72//43 64//43 63//43
f 77//46 88//46 68//46 67//46
f 73//47 76//47 66//47 65//47
f 89//48 100//48 62//48 61//48
f 119//49 73//49 65//49 94//49
f 107//45 71//45 62//45 100//45
f 83//45 64//45 72//45 101//45
f 101//50 72//50 71//50 107//50
f 77//49 67//49 74//49 113//49
f 113//44 74//44 73//44 119//44
f 67//47 68//47 75//47 74//47
f 74//47 75//47 76//47 73//47
f 61//43 62//43 71//43 70//43
f 70//43 71//43 72//43 69//43
f 69//44 118//44 124//44 70//44
f 117//44 116//44 122//44 123//44
f 115//44 114//44 120//44 121//44
f 63//49 82//49 118//49 69//49
f 81//49 80//49 116//49 117//49
f 79//49 78//49 114//49 115//49
f 75//50 106//50 112//50 76//50
f 113//43 106//43 88//43 77//43
f 105//50 104//50 110//50 111//50
f 113//43 119//43 112//43 106//43
f 103//50 102//50 108//50 109//50
f 119//43 94//43 95//43 112//43
f 68//45 88//45 106//45 75//45
f 115//43 104//43 86//43 79//43
f 87//45 86//45 104//45 105//45
f 115//43 121//43 110//43 104//43
f 85//45 84//45 102//45 103//45
f 121//43 92//43 97//43 110//43
f 76//45 112//45 95//45 66//45
f 117//43 102//43 84//43 81//43
f 111//45 110//45 97//45 96//45
f 117//43 123//43 108//43 102//43
f 109//45 108//45 99//45 98//45
f 123//43 90//43 99//43 108//43
f 70//49 124//49 89//49 61//49
f 114//47 78//47 87//47 105//47
f 123//49 122//49 91//49 90//49
f 114//47 105//47 111//47 120//47
f 121//49 120//49 93//49 92//49
f 120//47 111//47 96//47 93//47
f 65//48 66//48 95//48 94//48
f 116//47 80//47 85//47 103//47
f 93//48 96//48 97//48 92//48
f 116//47 103//47 109//47 122//47
f 91//48 98//48 99//48 90//48
f 122//47 109//47 98//47 91//47
f 63//46 64//46 83//46 82//46
f 118//47 82//47 83//47 101//47
f 81//46 84//46 85//46 80//46
f 118//47 101//47 107//47 124//47
f 79//46 86//46 87//46 78//46
f 124//47 107//47 100//47 89//47
f 127//43 132//43 136//43 134//43
f 136//44 132//44 130//44 125//44
f 134//48 136//48 125//48 131//48
f 128//50 129//50 127//50 126//50
f 127//43 129//43 135//43 132//43
f 128//47 126//47 130//47 133//47
f 60//46 57//46 58//46 59//46
f 134//45 131//45 126//45 127//45
f 57//47 128//47 133//47 58//47
f 133//44 130//44 132//44 135//44
f 126//47 131//47 125//47 130//47
