# Blender v2.78 (sub 0) OBJ File: 'chair-2.blend'
# www.blender.org
mtllib chair-2.mtl
o chair_Cube.002
v -0.241142 0.033333 -0.188499
v -0.194144 0.033333 -0.141501
v -0.241142 0.033333 0.188499
v -0.194144 0.033333 0.141501
v -0.192252 0.350000 -0.192252
v -0.192252 0.350000 -0.144189
v -0.192252 0.350000 0.144189
v -0.192252 0.350000 0.192252
v -0.144189 0.350000 -0.192252
v -0.144189 0.350000 -0.144189
v -0.144189 0.350000 0.144189
v -0.144189 0.350000 0.192252
v 0.144189 0.350000 -0.192252
v 0.144189 0.350000 -0.144189
v 0.144189 0.350000 0.144189
v 0.144189 0.350000 0.192252
v 0.192253 0.350000 -0.192252
v 0.192253 0.350000 -0.144189
v 0.192253 0.350000 0.144189
v 0.192253 0.350000 0.192252
v -0.252331 0.000000 -0.192252
v -0.252331 0.000000 -0.144189
v -0.252331 0.000000 0.144189
v -0.252331 0.000000 0.192252
v -0.204268 0.000000 -0.192252
v -0.204268 0.000000 -0.144189
v -0.204268 0.000000 0.144189
v -0.204268 0.000000 0.192252
v 0.204268 0.000000 -0.192252
v 0.204268 0.000000 -0.144189
v 0.204268 0.000000 0.144189
v 0.204268 0.000000 0.192252
v 0.252331 0.000000 -0.192252
v 0.252331 0.000000 -0.144189
v 0.252331 0.000000 0.144189
v 0.252331 0.000000 0.192252
v -0.152772 0.300000 -0.192252
v -0.200835 0.300000 -0.192252
v -0.200835 0.300000 -0.144189
v -0.152772 0.300000 -0.144189
v -0.200835 0.300000 0.144189
v -0.200835 0.300000 0.192252
v -0.152772 0.300000 0.144189
v -0.152772 0.300000 0.192252
v 0.200835 0.300000 0.144189
v 0.152772 0.300000 0.144189
v 0.152772 0.300000 0.192252
v 0.200835 0.300000 0.192252
v 0.152772 0.300000 -0.144189
v 0.200835 0.300000 -0.144189
v 0.152772 0.300000 -0.192252
v 0.200835 0.300000 -0.192252
v -0.144189 0.350000 -0.048063
v -0.144189 0.350000 0.048063
v -0.192252 0.350000 -0.048063
v -0.192252 0.350000 0.048063
v -0.200835 0.300000 -0.048063
v -0.200835 0.300000 0.048063
v -0.152772 0.300000 -0.048063
v -0.152772 0.300000 0.048063
v -0.144189 0.350000 0.072095
v -0.192252 0.350000 0.072095
v -0.200835 0.300000 0.072095
v -0.152772 0.300000 0.072095
v -0.144189 0.350000 -0.072095
v -0.192252 0.350000 -0.072095
v -0.200835 0.300000 -0.072095
v -0.152772 0.300000 -0.072095
v -0.228299 0.000000 -0.192252
v -0.228299 0.000000 -0.144189
v -0.228299 0.000000 0.144189
v -0.228299 0.000000 0.192252
v -0.168220 0.350000 -0.192252
v -0.168220 0.350000 -0.144189
v -0.168220 0.350000 0.144189
v -0.168220 0.350000 0.192252
v -0.176803 0.300000 -0.192252
v -0.176803 0.300000 -0.144189
v -0.176803 0.300000 0.192252
v -0.176803 0.300000 0.144189
v -0.176803 0.300000 -0.048063
v -0.176803 0.300000 0.048063
v -0.168220 0.350000 -0.048063
v -0.168220 0.350000 0.048063
v -0.176803 0.300000 0.072095
v -0.168220 0.350000 0.072095
v -0.168220 0.350000 -0.072095
v -0.176803 0.300000 -0.072095
v 0.192253 0.355000 -0.187252
v 0.187253 0.350000 -0.187252
v 0.187253 0.355000 -0.192252
v 0.192253 0.355000 0.187252
v 0.187253 0.355000 0.192252
v 0.187253 0.350000 0.187252
v -0.163220 0.355000 -0.192252
v -0.163220 0.350000 -0.187252
v -0.168220 0.355000 -0.187252
v -0.163220 0.355000 0.192252
v -0.168220 0.355000 0.187252
v -0.163220 0.350000 0.187252
v 0.192253 0.395000 0.187252
v 0.187253 0.400000 0.187252
v 0.187253 0.395000 0.192252
v 0.192253 0.395000 -0.187252
v 0.187253 0.395000 -0.192252
v 0.187253 0.400000 -0.187252
v -0.163220 0.395000 -0.192252
v -0.168220 0.395000 -0.187252
v -0.163220 0.400000 -0.187252
v -0.163220 0.395000 0.192252
v -0.163220 0.400000 0.187252
v -0.168220 0.395000 0.187252
v -0.242252 0.750000 -0.192252
v -0.242252 0.750000 -0.144189
v -0.218220 0.750000 -0.192252
v -0.218220 0.750000 -0.144189
v -0.242252 0.750000 0.144189
v -0.242252 0.750000 0.192252
v -0.218220 0.750000 0.144189
v -0.218220 0.750000 0.192252
v -0.242252 0.750000 0.072095
v -0.218220 0.750000 -0.048063
v -0.218220 0.750000 0.048063
v -0.242252 0.750000 -0.048063
v -0.242252 0.750000 0.048063
v -0.242252 0.750000 -0.072095
v -0.218220 0.750000 0.072095
v -0.218220 0.750000 -0.072095
v -0.238130 0.607738 -0.235209
v -0.214276 0.610656 -0.235209
v -0.238130 0.607738 0.235209
v -0.214276 0.610656 0.235209
v -0.250271 0.706998 -0.235209
v -0.226417 0.709916 -0.235209
v -0.250271 0.706998 0.235209
v -0.226417 0.709916 0.235209
vn 0.0000 0.0000 -1.0000
vn 0.9856 0.1692 0.0000
vn 0.0000 0.0000 1.0000
vn 0.0000 1.0000 0.0000
vn 0.0000 -1.0000 0.0000
vn -0.9856 0.1692 0.0000
vn -0.9856 -0.1692 0.0000
vn 0.9856 -0.1692 0.0000
vn -0.9923 -0.1240 0.0000
vn 0.9923 0.1240 0.0000
vn 1.0000 0.0000 0.0000
vn -1.0000 0.0000 0.0000
vn 0.5774 -0.5774 -0.5774
vn 0.5774 -0.5774 0.5774
vn -0.5774 -0.5774 -0.5774
vn -0.5774 -0.5774 0.5774
vn 0.5774 0.5774 0.5774
vn 0.5774 0.5774 -0.5774
vn -0.5774 0.5774 -0.5774
vn -0.5774 0.5774 0.5774
vn 0.7071 -0.7071 0.0000
vn 0.0000 -0.7071 -0.7071
vn 0.0000 -0.7071 0.7071
vn -0.7071 -0.7071 0.0000
vn 0.7071 0.7071 0.0000
vn 0.0000 0.7071 -0.7071
vn 0.0000 0.7071 0.7071
vn -0.7071 0.7071 0.0000
vn -0.7071 0.0000 -0.7071
vn 0.7071 0.0000 0.7071
vn -0.7071 0.0000 0.7071
vn 0.7071 0.0000 -0.7071
vn 0.1214 -0.9926 0.0000
vn -0.1214 0.9926 0.0000
vn -0.9926 -0.1214 0.0000
vn 0.9926 0.1214 -0.0000
usemtl None
s off
f 51//1 52//1 33//1 29//1
f 45//2 48//2 36//2 35//2
f 78//3 70//3 26//3 40//3
f 74//4 10//4 9//4 73//4
f 29//5 33//5 34//5 30//5
f 31//5 35//5 36//5 32//5
f 69//5 25//5 26//5 70//5
f 71//5 27//5 28//5 72//5
f 77//1 69//1 21//1 38//1
f 41//6 23//6 24//6 42//6
f 45//1 35//1 31//1 46//1
f 39//6 38//6 21//6 22//6
f 47//3 32//3 36//3 48//3
f 49//3 30//3 34//3 50//3
f 33//2 52//2 50//2 34//2
f 79//3 72//3 28//3 44//3
f 80//1 43//1 27//1 71//1
f 47//7 46//7 31//7 32//7
f 37//8 40//8 26//8 25//8
f 43//8 44//8 28//8 27//8
f 76//4 12//4 11//4 75//4
f 16//4 20//4 19//4 15//4
f 14//4 18//4 17//4 13//4
f 49//7 51//7 29//7 30//7
f 12//4 16//4 15//4 11//4
f 10//4 14//4 13//4 9//4
f 5//6 38//6 39//6 6//6
f 73//1 77//1 38//1 5//1
f 76//3 79//3 44//3 12//3
f 7//6 41//6 42//6 8//6
f 16//3 47//3 48//3 20//3
f 20//2 48//2 45//2 19//2
f 18//2 50//2 52//2 17//2
f 17//1 52//1 51//1 13//1
f 40//3 49//3 14//3 10//3
f 13//1 51//1 37//1 9//1
f 46//1 43//1 11//1 15//1
f 43//5 46//5 47//5 44//5
f 16//3 12//3 44//3 47//3
f 49//5 40//5 37//5 51//5
f 15//4 19//4 18//4 14//4
f 50//2 18//2 19//2 45//2
f 45//5 46//5 49//5 50//5
f 46//7 15//7 14//7 49//7
f 53//4 83//4 84//4 54//4
f 63//6 41//6 7//6 62//6
f 68//8 65//8 53//8 59//8
f 88//5 81//5 57//5 67//5
f 67//6 57//6 55//6 66//6
f 87//4 83//4 53//4 65//4
f 60//8 54//8 61//8 64//8
f 85//5 80//5 41//5 63//5
f 82//5 85//5 63//5 58//5
f 58//6 63//6 62//6 56//6
f 84//4 86//4 61//4 54//4
f 57//6 58//6 56//6 55//6
f 81//5 82//5 58//5 57//5
f 86//1 62//1 121//1 127//1
f 53//8 54//8 60//8 59//8
f 10//4 74//4 87//4 65//4
f 39//6 67//6 66//6 6//6
f 78//5 88//5 67//5 39//5
f 55//9 56//9 125//9 124//9
f 10//8 65//8 68//8 40//8
f 61//8 11//8 43//8 64//8
f 7//9 8//9 118//9 117//9
f 40//5 68//5 88//5 78//5
f 11//4 61//4 86//4 75//4
f 59//5 60//5 82//5 81//5
f 56//4 62//4 86//4 84//4
f 60//5 64//5 85//5 82//5
f 64//5 43//5 80//5 85//5
f 66//4 55//4 83//4 87//4
f 68//5 59//5 81//5 88//5
f 8//3 42//3 79//3 76//3
f 9//1 37//1 77//1 73//1
f 84//10 83//10 122//10 123//10
f 41//1 80//1 71//1 23//1
f 42//3 24//3 72//3 79//3
f 37//1 25//1 69//1 77//1
f 23//5 71//5 72//5 24//5
f 21//5 69//5 70//5 22//5
f 56//3 84//3 123//3 125//3
f 39//3 22//3 70//3 78//3
f 92//11 89//11 104//11 101//11
f 103//3 110//3 98//3 93//3
f 99//12 112//12 108//12 97//12
f 91//1 95//1 107//1 105//1
f 106//4 109//4 111//4 102//4
f 89//13 90//13 91//13
f 92//14 93//14 94//14
f 95//15 96//15 97//15
f 98//16 99//16 100//16
f 101//17 102//17 103//17
f 104//18 105//18 106//18
f 107//19 108//19 109//19
f 110//20 111//20 112//20
f 94//21 90//21 89//21 92//21
f 90//22 96//22 95//22 91//22
f 93//23 98//23 100//23 94//23
f 99//24 97//24 96//24 100//24
f 101//25 104//25 106//25 102//25
f 105//26 107//26 109//26 106//26
f 102//27 111//27 110//27 103//27
f 111//28 109//28 108//28 112//28
f 97//29 108//29 107//29 95//29
f 92//30 101//30 103//30 93//30
f 112//31 99//31 98//31 110//31
f 91//32 105//32 104//32 89//32
f 90//5 94//5 100//5 96//5
f 122//4 124//4 125//4 123//4
f 117//4 119//4 127//4 121//4
f 116//4 114//4 126//4 128//4
f 118//4 120//4 119//4 117//4
f 114//4 116//4 115//4 113//4
f 66//3 87//3 128//3 126//3
f 8//3 76//3 120//3 118//3
f 75//10 86//10 127//10 119//10
f 5//9 6//9 114//9 113//9
f 74//10 73//10 115//10 116//10
f 87//10 74//10 116//10 128//10
f 73//1 5//1 113//1 115//1
f 62//9 7//9 117//9 121//9
f 6//9 66//9 126//9 114//9
f 83//1 55//1 124//1 122//1
f 76//10 75//10 119//10 120//10
f 131//33 129//33 130//33 132//33
f 136//34 134//34 133//34 135//34
f 131//3 132//3 136//3 135//3
f 129//35 131//35 135//35 133//35
f 132//36 130//36 134//36 136//36
f 130//1 129//1 133//1 134//1
l 1 2
l 3 4
