# Blender v2.78 (sub 0) OBJ File: 'chair-alt.blend'
# www.blender.org
mtllib chair-alt.mtl
o chair_Cube.002
v -0.200000 0.400000 -0.195000
v -0.194981 0.400000 -0.200000
v -0.195000 0.350000 -0.195000
v -0.200000 0.355000 -0.195000
v -0.194981 0.355000 -0.200000
v 0.200000 0.395000 0.195000
v 0.195000 0.400000 0.195000
v 0.195000 0.395000 0.200000
v 0.200000 0.355000 0.195000
v 0.195000 0.355000 0.200000
v 0.195000 0.350000 0.195000
v 0.200000 0.395000 -0.195000
v 0.195000 0.395000 -0.200000
v 0.195000 0.400000 -0.195000
v 0.200000 0.355000 -0.195000
v 0.195000 0.350000 -0.195000
v 0.195000 0.355000 -0.200000
v -0.200000 0.355000 0.195000
v -0.195000 0.350000 0.195000
v -0.194981 0.355000 0.200000
v -0.194981 0.400000 0.200000
v -0.200000 0.400000 0.195000
v -0.160000 0.355000 -0.200000
v -0.160000 0.350000 -0.195000
v -0.160000 0.400000 0.195000
v -0.164414 0.395000 0.200000
v -0.160000 0.350000 0.195000
v -0.160000 0.355000 0.200000
v -0.164414 0.395000 -0.200000
v -0.160000 0.400000 -0.195000
v -0.209380 0.795039 -0.195000
v -0.214414 0.795000 -0.200000
v -0.215000 0.800000 -0.195000
v -0.244356 0.795000 0.200000
v -0.245000 0.800000 0.195000
v -0.249380 0.795039 0.195000
v -0.214414 0.795000 0.200000
v -0.209380 0.795039 0.195000
v -0.215000 0.800000 0.195000
v -0.249380 0.795039 -0.195000
v -0.245000 0.800000 -0.195000
v -0.244356 0.795000 -0.200000
v -0.241142 0.033333 -0.188499
v -0.194144 0.033333 -0.141501
v -0.241142 0.033333 0.188499
v -0.194144 0.033333 0.141501
v -0.192252 0.350000 -0.192252
v -0.192252 0.350000 -0.144189
v -0.192252 0.350000 0.144189
v -0.192252 0.350000 0.192252
v -0.144189 0.350000 -0.192252
v -0.144189 0.350000 -0.144189
v -0.144189 0.350000 0.144189
v -0.144189 0.350000 0.192252
v 0.144189 0.350000 -0.192252
v 0.144189 0.350000 -0.144189
v 0.144189 0.350000 0.144189
v 0.144189 0.350000 0.192252
v 0.192253 0.350000 -0.192252
v 0.192253 0.350000 -0.144189
v 0.192253 0.350000 0.144189
v 0.192253 0.350000 0.192252
v -0.252331 0.000000 -0.192252
v -0.252331 0.000000 -0.144189
v -0.252331 0.000000 0.144189
v -0.252331 0.000000 0.192252
v -0.204268 0.000000 -0.192252
v -0.204268 0.000000 -0.144189
v -0.204268 0.000000 0.144189
v -0.204268 0.000000 0.192252
v 0.204268 0.000000 -0.192252
v 0.204268 0.000000 -0.144189
v 0.204268 0.000000 0.144189
v 0.204268 0.000000 0.192252
v 0.252331 0.000000 -0.192252
v 0.252331 0.000000 -0.144189
v 0.252331 0.000000 0.144189
v 0.252331 0.000000 0.192252
v -0.209417 0.250000 0.144189
v -0.235165 0.100000 0.144189
v -0.235165 0.100000 0.192252
v -0.209417 0.250000 0.192252
v -0.161354 0.250000 0.144189
v -0.187102 0.100000 0.144189
v -0.161354 0.250000 0.192252
v -0.187102 0.100000 0.192252
v -0.161354 0.250000 -0.192252
v -0.187102 0.100000 -0.192252
v -0.235165 0.100000 -0.192252
v -0.209417 0.250000 -0.192252
v -0.209417 0.250000 -0.144189
v -0.235165 0.100000 -0.144189
v -0.187102 0.100000 -0.144189
v -0.161354 0.250000 -0.144189
v 0.161355 0.250000 -0.144189
v 0.187103 0.100000 -0.144189
v 0.235166 0.100000 -0.144189
v 0.209418 0.250000 -0.144189
v 0.161355 0.250000 -0.192252
v 0.187103 0.100000 -0.192252
v 0.235166 0.100000 -0.192252
v 0.209418 0.250000 -0.192252
v 0.209418 0.250000 0.144189
v 0.235166 0.100000 0.144189
v 0.187103 0.100000 0.144189
v 0.161355 0.250000 0.144189
v 0.161355 0.250000 0.192252
v 0.187103 0.100000 0.192252
v 0.235166 0.100000 0.192252
v 0.209418 0.250000 0.192252
vn 0.0000 0.0000 1.0000
vn -0.9923 -0.1240 0.0000
vn 0.0000 1.0000 0.0000
vn -0.0000 -0.0000 -1.0000
vn 0.0000 -1.0000 -0.0000
vn 0.9923 0.1240 -0.0000
vn 1.0000 0.0000 -0.0000
vn -0.5766 -0.5766 -0.5788
vn 0.5773 0.5774 0.5774
vn 0.5773 -0.5774 0.5774
vn 0.5774 0.5773 -0.5774
vn 0.5774 -0.5773 -0.5774
vn -0.5766 -0.5766 0.5788
vn 0.5493 0.6222 -0.5578
vn -0.5973 0.5273 0.6043
vn 0.5493 0.6222 0.5578
vn -0.5973 0.5273 -0.6043
vn 0.0000 -0.7071 -0.7071
vn -0.7057 0.0000 -0.7085
vn -0.7057 0.0000 0.7085
vn 0.7071 0.0000 -0.7071
vn 0.7071 0.0000 0.7071
vn 0.0000 0.7071 0.7071
vn 0.0000 -0.7071 0.7071
vn -0.0000 0.7071 -0.7071
vn -0.7071 -0.7071 0.0000
vn 0.7071 -0.7071 -0.0000
vn 0.7071 0.7071 -0.0000
vn 0.7016 0.0877 0.7071
vn -0.7030 -0.0879 0.7057
vn 0.6618 0.7497 -0.0000
vn -0.7497 0.6618 0.0000
vn 0.7016 0.0877 -0.7071
vn -0.7030 -0.0879 -0.7057
vn -1.0000 0.0000 0.0000
vn 0.9856 -0.1692 0.0000
vn 0.9856 0.1692 0.0000
vn -0.9856 0.1692 0.0000
vn -0.9856 -0.1692 0.0000
usemtl None
s off
f 21//1 26//1 37//1 34//1
f 1//2 22//2 36//2 40//2
f 28//1 26//1 21//1 20//1
f 30//3 25//3 7//3 14//3
f 29//4 13//4 17//4 23//4
f 16//5 11//5 27//5 24//5
f 33//3 41//3 35//3 39//3
f 19//5 3//5 24//5 27//5
f 8//1 26//1 28//1 10//1
f 25//6 30//6 31//6 38//6
f 5//4 2//4 29//4 23//4
f 29//4 2//4 42//4 32//4
f 12//7 6//7 9//7 15//7
f 3//8 4//8 5//8
f 6//9 7//9 8//9
f 9//10 10//10 11//10
f 12//11 13//11 14//11
f 15//12 16//12 17//12
f 18//13 19//13 20//13
f 31//14 32//14 33//14
f 34//15 35//15 36//15
f 37//16 38//16 39//16
f 40//17 41//17 42//17
f 24//18 3//18 5//18 23//18
f 2//19 5//19 4//19 1//19
f 22//20 18//20 20//20 21//20
f 17//21 13//21 12//21 15//21
f 8//22 10//22 9//22 6//22
f 16//18 24//18 23//18 17//18
f 7//23 25//23 26//23 8//23
f 19//24 27//24 28//24 20//24
f 27//24 11//24 10//24 28//24
f 30//25 14//25 13//25 29//25
f 3//26 19//26 18//26 4//26
f 11//27 16//27 15//27 9//27
f 14//28 7//28 6//28 12//28
f 25//29 38//29 37//29 26//29
f 21//30 34//30 36//30 22//30
f 38//31 31//31 33//31 39//31
f 35//32 41//32 40//32 36//32
f 41//25 33//25 32//25 42//25
f 39//23 35//23 34//23 37//23
f 31//33 30//33 29//33 32//33
f 1//34 40//34 42//34 2//34
f 22//35 1//35 4//35 18//35
f 52//36 94//36 87//36 51//36
f 59//4 102//4 99//4 55//4
f 62//37 110//37 103//37 61//37
f 48//1 91//1 94//1 52//1
f 48//3 52//3 51//3 47//3
f 71//5 75//5 76//5 72//5
f 73//5 77//5 78//5 74//5
f 63//5 67//5 68//5 64//5
f 65//5 69//5 70//5 66//5
f 51//4 87//4 90//4 47//4
f 49//38 79//38 82//38 50//38
f 61//4 103//4 106//4 57//4
f 79//4 49//4 53//4 83//4
f 83//36 53//36 54//36 85//36
f 47//38 90//38 91//38 48//38
f 58//1 107//1 110//1 62//1
f 56//1 95//1 98//1 60//1
f 106//39 107//39 58//39 57//39
f 95//39 56//39 55//39 99//39
f 60//37 98//37 102//37 59//37
f 86//1 81//1 66//1 70//1
f 81//1 86//1 85//1 82//1
f 69//36 84//36 86//36 70//36
f 65//4 80//4 84//4 69//4
f 83//4 84//4 80//4 79//4
f 81//38 80//38 65//38 66//38
f 79//38 80//38 81//38 82//38
f 88//36 93//36 68//36 67//36
f 92//38 89//38 63//38 64//38
f 89//38 92//38 91//38 90//38
f 89//4 88//4 67//4 63//4
f 87//4 88//4 89//4 90//4
f 92//1 64//1 68//1 93//1
f 91//1 92//1 93//1 94//1
f 100//4 101//4 75//4 71//4
f 101//4 100//4 99//4 102//4
f 101//37 97//37 76//37 75//37
f 97//37 101//37 102//37 98//37
f 72//39 96//39 100//39 71//39
f 96//1 72//1 76//1 97//1
f 95//1 96//1 97//1 98//1
f 104//37 109//37 78//37 77//37
f 109//37 104//37 103//37 110//37
f 74//39 108//39 105//39 73//39
f 109//1 108//1 74//1 78//1
f 107//1 108//1 109//1 110//1
f 73//4 105//4 104//4 77//4
f 103//4 104//4 105//4 106//4
f 50//1 82//1 85//1 54//1
f 99//3 87//3 94//3 95//3
f 88//4 87//4 99//4 100//4
f 100//5 96//5 93//5 88//5
f 93//1 96//1 95//1 94//1
f 105//5 108//5 86//5 84//5
f 83//4 106//4 105//4 84//4
f 106//3 83//3 85//3 107//3
f 86//1 108//1 107//1 85//1
f 50//3 54//3 53//3 49//3
f 58//3 62//3 61//3 57//3
f 56//3 60//3 59//3 55//3
l 43 44
l 45 46
