# Blender v2.78 (sub 0) OBJ File: 'cupboard-kitchen.blend'
# www.blender.org
mtllib cupboard-kitchen.mtl
o cupboard_Cube
v 0.208974 0.050000 0.400000
v 0.108974 1.150000 -0.400000
v -0.291026 1.150000 0.400000
v 0.208974 0.050000 -0.400000
v 0.108974 1.150000 0.400000
v -0.291026 0.050000 -0.500000
v -0.391026 0.050000 -0.400000
v 0.108974 0.050000 -0.500000
v -0.391026 0.050000 0.400000
v 0.108974 0.050000 0.500000
v 0.208974 0.100000 0.450000
v -0.291026 0.050000 0.500000
v -0.391026 0.050000 0.450000
v 0.208974 0.050000 0.450000
v 0.208974 0.050000 -0.450000
v -0.391026 0.050000 -0.450000
v 0.208974 0.100000 0.400000
v -0.291026 1.150000 -0.400000
v -0.291026 0.050000 0.400000
v 0.108974 1.150000 -0.000000
v 0.108974 0.050000 0.400000
v -0.291026 0.050000 -0.400000
v -0.291026 1.150000 0.000000
v -0.291026 0.050000 0.000000
v 0.108974 0.050000 -0.000000
v 0.108974 0.050000 -0.400000
v -0.291026 0.050000 0.450000
v -0.391026 0.050000 0.000000
v 0.108974 0.050000 0.450000
v 0.108974 1.150000 0.450000
v 0.208974 0.050000 -0.000000
v 0.108974 0.000000 -0.450000
v -0.291026 0.000000 -0.450000
v -0.291026 1.150000 0.450000
v 0.108974 1.150000 -0.450000
v 0.108974 0.000000 0.400000
v -0.291026 0.000000 0.400000
v 0.108974 0.000000 -0.400000
v -0.291026 1.150000 -0.450000
v -0.291026 0.050000 -0.450000
v -0.291026 0.000000 -0.400000
v 0.108974 0.000000 0.450000
v -0.291026 0.000000 0.450000
v 0.108974 0.050000 -0.450000
v -0.391026 1.100000 0.000000
v 0.208974 1.100000 -0.000000
v -0.391026 1.100000 0.400000
v -0.391026 1.100000 -0.400000
v 0.208974 1.100000 -0.400000
v -0.391026 1.100000 0.450000
v 0.208974 1.100000 -0.450000
v -0.391026 1.100000 -0.450000
v -0.291026 1.100000 -0.500000
v 0.108974 1.100000 -0.500000
v 0.108974 1.100000 0.500000
v -0.291026 1.100000 0.500000
v -0.391026 0.100000 0.000000
v 0.208974 0.100000 -0.000000
v -0.391026 0.100000 0.400000
v -0.391026 0.100000 -0.400000
v 0.208974 0.100000 -0.400000
v -0.391026 0.100000 0.450000
v 0.208974 0.100000 -0.450000
v -0.391026 0.100000 -0.450000
v 0.208974 1.100000 0.450000
v 0.208974 1.100000 0.400000
v -0.291026 0.100000 -0.500000
v 0.108974 0.100000 -0.500000
v 0.108974 0.100000 0.500000
v -0.291026 0.100000 0.500000
v 0.203974 0.050000 -0.500000
v 0.208974 0.050000 -0.495000
v 0.203974 1.145000 -0.500000
v 0.203974 1.150000 -0.495000
v 0.208974 0.050000 0.495000
v 0.203974 0.050000 0.500000
v 0.203974 1.150000 0.495000
v 0.203974 1.145000 0.500000
v -0.391026 0.050000 -0.495000
v -0.386026 0.050000 -0.500000
v -0.391026 1.145000 -0.495000
v -0.386026 1.150000 -0.495000
v -0.386026 1.145000 -0.500000
v -0.386026 0.050000 0.500000
v -0.391026 0.050000 0.495000
v -0.386026 1.145000 0.500000
v -0.386026 1.150000 0.495000
v -0.391026 1.145000 0.495000
v 0.203974 1.150000 -0.400000
v 0.108974 1.145000 -0.500000
v 0.108974 1.150000 -0.495000
v -0.291026 1.145000 -0.500000
v -0.291026 1.150000 -0.495000
v 0.203974 1.150000 0.400000
v -0.291026 1.145000 0.500000
v -0.291026 1.150000 0.495000
v -0.386026 1.150000 0.400000
v -0.391026 1.145000 0.400000
v 0.108974 1.145000 0.500000
v 0.108974 1.150000 0.495000
v -0.391026 1.145000 -0.400000
v -0.386026 1.150000 -0.400000
v 0.203974 1.150000 0.450000
v -0.391026 1.145000 0.450000
v -0.386026 1.150000 0.450000
v -0.391026 1.145000 -0.450000
v -0.386026 1.150000 -0.450000
v 0.203974 1.150000 -0.450000
v -0.386026 1.150000 0.000000
v -0.391026 1.145000 0.000000
v 0.203974 1.150000 -0.000000
v 0.208974 1.100000 -0.495000
v -0.391026 1.050000 0.400000
v -0.391026 1.100000 0.495000
v -0.386026 1.100000 0.500000
v -0.386026 1.100000 -0.500000
v -0.391026 1.100000 -0.495000
v 0.208974 0.100000 0.495000
v 0.203974 0.100000 0.500000
v -0.386026 0.100000 0.500000
v -0.391026 0.100000 0.495000
v -0.391026 0.100000 -0.495000
v -0.386026 0.100000 -0.500000
v 0.208974 0.100000 -0.495000
v 0.203974 0.100000 -0.500000
v 0.249841 0.667439 -0.090000
v 0.249841 0.727439 -0.090000
v 0.249841 0.727439 -0.110000
v 0.249841 0.667439 -0.110000
v 0.229841 0.667439 -0.090000
v 0.229841 0.667439 -0.110000
v 0.229841 0.727439 -0.090000
v 0.229841 0.727439 -0.110000
v 0.264841 0.652439 -0.110000
v 0.269841 0.647439 -0.105000
v 0.249841 0.647439 -0.105000
v 0.249841 0.652439 -0.110000
v 0.249841 0.742439 -0.110000
v 0.249841 0.747439 -0.105000
v 0.269841 0.747439 -0.105000
v 0.264841 0.742439 -0.110000
v 0.264841 0.667439 -0.110000
v 0.269841 0.667439 -0.105000
v 0.269841 0.667439 -0.095000
v 0.264841 0.667439 -0.090000
v 0.264841 0.652439 -0.090000
v 0.269841 0.647439 -0.095000
v 0.249841 0.652439 -0.090000
v 0.249841 0.647439 -0.095000
v 0.264841 0.742439 -0.090000
v 0.269841 0.747439 -0.095000
v 0.249841 0.747439 -0.095000
v 0.249841 0.742439 -0.090000
v 0.269841 0.727439 -0.105000
v 0.264841 0.727439 -0.110000
v 0.264841 0.727439 -0.090000
v 0.269841 0.727439 -0.095000
v 0.229841 0.647439 -0.105000
v 0.229841 0.652439 -0.110000
v 0.229841 0.652439 -0.090000
v 0.229841 0.647439 -0.095000
v 0.229841 0.747439 -0.095000
v 0.229841 0.742439 -0.090000
v 0.229841 0.742439 -0.110000
v 0.229841 0.747439 -0.105000
v 0.229841 0.747439 0.095000
v 0.229841 0.742439 0.090000
v 0.229841 0.742439 0.110000
v 0.229841 0.747439 0.105000
v 0.229841 0.647439 0.105000
v 0.229841 0.652439 0.110000
v 0.229841 0.652439 0.090000
v 0.229841 0.647439 0.095000
v 0.269841 0.727439 0.105000
v 0.264841 0.727439 0.110000
v 0.264841 0.727439 0.090000
v 0.269841 0.727439 0.095000
v 0.249841 0.742439 0.110000
v 0.249841 0.747439 0.105000
v 0.269841 0.747439 0.105000
v 0.264841 0.742439 0.110000
v 0.249841 0.647439 0.105000
v 0.249841 0.652439 0.110000
v 0.269841 0.647439 0.105000
v 0.264841 0.652439 0.110000
v 0.264841 0.667439 0.110000
v 0.269841 0.667439 0.105000
v 0.269841 0.667439 0.095000
v 0.264841 0.667439 0.090000
v 0.264841 0.742439 0.090000
v 0.269841 0.747439 0.095000
v 0.249841 0.747439 0.095000
v 0.249841 0.742439 0.090000
v 0.249841 0.652439 0.090000
v 0.249841 0.647439 0.095000
v 0.269841 0.647439 0.095000
v 0.264841 0.652439 0.090000
v 0.229841 0.727439 0.090000
v 0.229841 0.727439 0.110000
v 0.229841 0.667439 0.090000
v 0.229841 0.667439 0.110000
v 0.249841 0.667439 0.090000
v 0.249841 0.727439 0.090000
v 0.249841 0.727439 0.110000
v 0.249841 0.667439 0.110000
v 0.228974 1.100000 -0.450000
v 0.228974 1.100000 -0.400000
v 0.228974 1.100000 0.400000
v 0.228974 1.100000 0.450000
v 0.228974 1.100000 -0.000000
v 0.223974 1.150000 -0.495000
v 0.228974 1.145000 -0.495000
v 0.223974 1.145000 -0.500000
v 0.223974 1.145000 0.500000
v 0.228974 1.145000 0.495000
v 0.223974 1.150000 0.495000
v -0.391026 1.050000 -0.400000
v 0.228974 1.145000 0.450000
v 0.223974 1.150000 0.450000
v 0.228974 1.145000 -0.450000
v 0.223974 1.150000 -0.450000
v 0.223974 1.150000 -0.400000
v 0.228974 1.145000 -0.400000
v 0.228974 1.145000 0.400000
v 0.223974 1.150000 0.400000
v -0.391026 1.050000 0.450000
v 0.228974 1.145000 -0.000000
v 0.223974 1.150000 -0.000000
v 0.203974 1.104976 -0.500000
v 0.208974 1.050000 -0.450000
v -0.391026 1.050000 -0.450000
v 0.203974 1.100000 -0.500000
v 0.208950 1.100000 0.495024
v 0.203974 1.104976 0.500000
v 0.208974 1.050000 0.400000
v 0.203974 1.100000 0.500000
v 0.228950 1.100000 -0.495024
v 0.223974 1.104976 -0.500000
v 0.223974 1.104976 0.500000
v 0.228950 1.100000 0.495024
v -0.391026 1.050000 0.000000
v 0.208974 1.050000 0.450000
v 0.208974 1.050000 -0.000000
v 0.208974 1.050000 -0.400000
v -0.291026 1.050000 -0.500000
v 0.108974 1.050000 -0.500000
v 0.108974 1.050000 0.500000
v -0.291026 1.050000 0.500000
v 0.208974 1.050000 -0.495000
v -0.391026 1.050000 0.495000
v -0.386026 1.050000 0.500000
v -0.386026 1.050000 -0.500000
v -0.391026 1.050000 -0.495000
v 0.203974 1.050000 0.500000
v 0.208950 1.050000 0.495024
v 0.203974 1.050000 -0.500000
v 0.228974 0.100000 0.400000
v 0.233974 0.105000 0.400000
v 0.233974 0.105000 0.445000
v 0.228974 0.100000 0.450000
v 0.228974 0.100000 -0.000000
v 0.233974 0.105000 0.005000
v 0.228974 1.050000 0.400000
v 0.233974 1.045000 0.400000
v 0.233974 1.045000 0.445000
v 0.228974 1.050000 0.450000
v 0.228974 1.050000 -0.000000
v 0.233974 1.045000 0.005000
v 0.228974 0.100000 -0.450000
v 0.233974 0.105000 -0.445000
v 0.233974 0.105000 -0.400000
v 0.228974 0.100000 -0.400000
v 0.233974 0.105000 -0.005000
v 0.228974 0.100000 -0.000000
v 0.228974 1.050000 -0.450000
v 0.233974 1.045000 -0.445000
v 0.233974 1.045000 -0.005000
v 0.228974 1.050000 -0.000000
v 0.228974 1.050000 -0.400000
v 0.233974 1.045000 -0.400000
vn 0.0000 0.0000 -1.0000
vn 0.0000 1.0000 0.0000
vn -1.0000 0.0000 0.0000
vn 0.0000 -1.0000 0.0000
vn 0.0000 0.0000 1.0000
vn 1.0000 0.0000 0.0000
vn 1.0000 0.0000 0.0005
vn 0.7071 0.0000 0.7071
vn 0.7071 0.0000 -0.7071
vn -0.5774 0.5774 -0.5773
vn -0.5774 0.5774 0.5773
vn 0.0000 0.7071 0.7071
vn -0.7071 0.0000 0.7071
vn -0.7071 0.7071 0.0000
vn -0.7071 0.0000 -0.7071
vn 0.0000 0.7071 -0.7071
vn 0.0000 -0.7071 -0.7071
vn 0.0000 -0.7071 0.7071
vn 1.0000 -0.0003 -0.0003
vn 1.0000 -0.0003 0.0003
vn 0.5774 0.5774 -0.5773
vn 0.5774 0.5774 0.5773
vn 0.7071 0.7071 0.0000
vn -0.0004 -0.7082 -0.7060
vn 1.0000 0.0000 0.0003
vn 0.7071 -0.7071 0.0000
usemtl None
s off
f 80//1 123//1 67//1 6//1
f 20//2 111//2 89//2 2//2
f 85//3 121//3 62//3 13//3
f 35//2 108//2 74//2 91//2
f 16//3 64//3 122//3 79//3
f 111//2 94//2 225//2 228//2
f 233//4 65//4 209//4 240//4
f 29//5 27//5 43//5 42//5
f 14//4 29//4 21//4 1//4
f 21//4 19//4 24//4 25//4
f 25//4 24//4 22//4 26//4
f 2//2 89//2 108//2 35//2
f 27//4 13//4 9//4 19//4
f 10//4 12//4 27//4 29//4
f 14//6 11//6 118//6 75//6
f 31//4 25//4 26//4 4//4
f 55//5 99//5 95//5 56//5
f 277//6 273//6 271//6 280//6
f 114//3 88//3 104//3 50//3
f 18//2 2//2 35//2 39//2
f 24//4 28//4 7//4 22//4
f 65//4 66//4 208//4 209//4
f 48//3 101//3 106//3 52//3
f 22//3 40//3 33//3 41//3
f 4//4 26//4 44//4 15//4
f 56//5 95//5 86//5 115//5
f 12//5 70//5 120//5 84//5
f 119//5 254//5 247//5 69//5
f 110//3 45//3 47//3 98//3
f 76//5 119//5 69//5 10//5
f 66//4 46//4 210//4 208//4
f 22//4 7//4 16//4 40//4
f 45//3 110//3 101//3 48//3
f 39//2 35//2 91//2 93//2
f 5//2 94//2 111//2 20//2
f 109//2 23//2 18//2 102//2
f 102//2 18//2 39//2 107//2
f 19//4 9//4 28//4 24//4
f 46//4 49//4 207//4 210//4
f 34//2 30//2 5//2 3//2
f 97//2 3//2 23//2 109//2
f 116//1 83//1 92//1 53//1
f 53//1 92//1 90//1 54//1
f 8//1 68//1 125//1 71//1
f 40//1 44//1 32//1 33//1
f 44//4 40//4 6//4 8//4
f 19//1 21//1 36//1 37//1
f 52//3 106//3 81//3 117//3
f 21//6 29//6 42//6 36//6
f 27//3 19//3 37//3 43//3
f 30//2 103//2 94//2 5//2
f 44//6 26//6 38//6 32//6
f 94//2 103//2 219//2 225//2
f 26//5 22//5 41//5 38//5
f 38//4 41//4 33//4 32//4
f 105//2 34//2 3//2 97//2
f 42//4 43//4 37//4 36//4
f 113//3 47//3 45//3 241//3
f 236//5 234//5 78//5 99//5 55//5
f 247//5 55//5 56//5 248//5
f 242//7 65//7 233//7 255//7
f 245//1 53//1 54//1 246//1
f 231//3 52//3 117//3 253//3
f 217//3 48//3 52//3 231//3
f 23//2 20//2 2//2 18//2
f 255//8 254//8 119//8 118//8
f 50//3 104//3 98//3 47//3
f 248//5 56//5 115//5 251//5
f 226//3 50//3 47//3 113//3
f 249//6 112//6 51//6 230//6
f 100//2 77//2 103//2 30//2
f 87//2 96//2 34//2 105//2
f 107//2 39//2 93//2 82//2
f 72//6 124//6 63//6 15//6
f 58//6 17//6 1//6 31//6
f 13//3 62//3 59//3 9//3
f 252//1 116//1 53//1 245//1
f 15//6 63//6 61//6 4//6
f 4//6 61//6 58//6 31//6
f 12//4 84//4 85//4 13//4 27//4
f 1//6 17//6 11//6 14//6
f 246//1 54//1 232//1 256//1
f 7//3 60//3 64//3 16//3
f 1//4 21//4 25//4 31//4
f 28//3 57//3 60//3 7//3
f 40//4 16//4 79//4 80//4 6//4
f 6//1 67//1 68//1 8//1
f 75//4 76//4 10//4 29//4 14//4
f 10//5 69//5 70//5 12//5
f 250//3 114//3 50//3 226//3
f 96//2 100//2 30//2 34//2
f 3//2 5//2 20//2 23//2
f 243//2 235//2 263//2 267//2
f 74//2 108//2 221//2 211//2
f 125//9 256//9 249//9 124//9
f 81//10 82//10 83//10
f 86//11 87//11 88//11
f 51//4 112//4 237//4 206//4
f 77//12 78//12 214//12 216//12
f 119//8 76//8 75//8 118//8
f 96//12 87//12 86//12 95//12
f 121//13 85//13 84//13 120//13
f 107//14 82//14 81//14 106//14
f 123//15 80//15 79//15 122//15
f 91//16 74//16 73//16 90//16
f 54//1 90//1 73//1 229//1 232//1
f 93//16 91//16 90//16 92//16
f 82//16 93//16 92//16 83//16
f 100//12 96//12 95//12 99//12
f 105//14 97//14 98//14 104//14
f 77//12 100//12 99//12 78//12
f 108//2 89//2 222//2 221//2
f 87//14 105//14 104//14 88//14
f 102//14 107//14 106//14 101//14
f 89//2 111//2 228//2 222//2
f 78//5 234//5 239//5 214//5
f 88//13 114//13 115//13 86//13
f 83//15 116//15 117//15 81//15
f 235//6 243//6 46//6 66//6
f 71//9 125//9 124//9 72//9
f 9//3 59//3 57//3 28//3
f 49//4 51//4 206//4 207//4
f 109//14 102//14 101//14 110//14
f 73//16 74//16 211//16 213//16
f 15//4 44//4 8//4 71//4 72//4
f 97//14 109//14 110//14 98//14
f 230//6 51//6 49//6 244//6
f 237//9 238//9 213//9 212//9
f 229//1 73//1 213//1 238//1
f 250//13 121//13 120//13 251//13
f 241//3 45//3 48//3 217//3
f 136//4 149//4 161//4 158//4
f 138//1 128//1 133//1 164//1
f 128//1 155//1 142//1 129//1
f 152//2 139//2 165//2 162//2
f 146//5 145//5 126//5 148//5
f 127//5 153//5 163//5 132//5
f 148//5 126//5 130//5 160//5
f 161//3 160//3 130//3 131//3 159//3 158//3
f 154//6 140//6 151//6 157//6
f 156//5 127//5 126//5 145//5
f 129//1 137//1 159//1 131//1
f 154//6 157//6 144//6 143//6
f 128//1 138//1 141//1 155//1
f 126//3 127//3 128//3 129//3
f 132//3 163//3 162//3 165//3 164//3 133//3
f 137//1 129//1 142//1 134//1
f 128//4 127//4 132//4 133//4
f 140//2 139//2 152//2 151//2
f 156//5 150//5 153//5 127//5
f 126//2 129//2 131//2 130//2
f 135//6 143//6 144//6 147//6
f 135//17 136//17 137//17 134//17
f 139//16 140//16 141//16 138//16
f 143//9 135//9 134//9 142//9
f 145//8 146//8 147//8 144//8
f 149//18 147//18 146//18 148//18
f 151//12 152//12 153//12 150//12
f 140//9 154//9 155//9 141//9
f 154//9 143//9 142//9 155//9
f 150//8 156//8 157//8 151//8
f 156//8 145//8 144//8 157//8
f 136//17 158//17 159//17 137//17
f 161//18 149//18 148//18 160//18
f 152//12 162//12 163//12 153//12
f 138//16 164//16 165//16 139//16
f 136//4 135//4 147//4 149//4
f 195//4 182//4 170//4 173//4
f 191//2 192//2 179//2 180//2
f 191//9 177//9 176//9 190//9
f 205//3 204//3 203//3 202//3
f 195//17 173//17 172//17 194//17
f 181//8 175//8 174//8 180//8
f 179//12 169//12 168//12 178//12
f 196//17 195//17 194//17 197//17
f 204//5 178//5 168//5 199//5
f 182//18 184//18 185//18 183//18
f 186//8 185//8 184//8 187//8
f 170//18 182//18 183//18 171//18
f 180//12 179//12 178//12 181//12
f 193//1 203//1 198//1 167//1
f 192//16 191//16 190//16 193//16
f 188//9 196//9 197//9 189//9
f 175//8 186//8 187//8 174//8
f 194//1 202//1 189//1 197//1
f 177//9 188//9 189//9 176//9
f 193//16 167//16 166//16 192//16
f 170//3 171//3 201//3 200//3 172//3 173//3
f 203//1 193//1 190//1 176//1
f 175//5 204//5 205//5 186//5
f 185//5 186//5 205//5 183//5
f 177//6 191//6 180//6 174//6
f 205//2 202//2 200//2 201//2
f 203//4 204//4 199//4 198//4
f 179//2 192//2 166//2 169//2
f 195//4 196//4 184//4 182//4
f 183//5 205//5 201//5 171//5
f 203//1 176//1 189//1 202//1
f 177//6 174//6 187//6 188//6
f 196//6 188//6 187//6 184//6
f 199//3 168//3 169//3 166//3 167//3 198//3
f 202//1 194//1 172//1 200//1
f 175//5 181//5 178//5 204//5
f 253//15 117//15 116//15 252//15
f 237//19 212//19 220//19 206//19
f 208//6 224//6 218//6 209//6
f 207//6 223//6 227//6 210//6
f 206//6 220//6 223//6 207//6
f 224//6 208//6 210//6 227//6
f 209//20 218//20 215//20 240//20
f 212//21 213//21 211//21
f 215//22 216//22 214//22
f 214//8 239//8 240//8 215//8
f 219//23 216//23 215//23 218//23
f 221//23 222//23 223//23 220//23
f 225//23 219//23 218//23 224//23
f 211//23 221//23 220//23 212//23
f 228//23 225//23 224//23 227//23
f 222//23 228//23 227//23 223//23
f 103//2 77//2 216//2 219//2
f 254//5 236//5 55//5 247//5
f 229//9 112//9 232//9
f 233//8 234//8 236//8
f 229//24 238//24 237//24 112//24
f 239//18 234//18 233//18 240//18
f 256//9 232//9 112//9 249//9
f 122//15 253//15 252//15 123//15
f 57//3 241//3 217//3 60//3
f 114//13 250//13 251//13 115//13
f 244//2 243//2 278//2 279//2
f 258//6 262//6 268//6 264//6
f 65//6 242//6 235//6 66//6
f 121//3 250//3 226//3 62//3
f 68//1 246//1 256//1 125//1
f 123//1 252//1 245//1 67//1
f 124//6 249//6 230//6 63//6
f 62//3 226//3 113//3 59//3
f 70//5 248//5 251//5 120//5
f 233//8 236//8 254//8 255//8
f 60//3 217//3 231//3 64//3
f 64//3 231//3 253//3 122//3
f 67//1 245//1 246//1 68//1
f 11//25 242//25 255//25 118//25
f 69//5 247//5 248//5 70//5
f 59//3 113//3 241//3 57//3
f 46//6 243//6 244//6 49//6
f 242//5 11//5 260//5 266//5
f 265//6 259//6 258//6 264//6
f 235//2 242//2 266//2 263//2
f 11//4 17//4 257//4 260//4
f 58//1 243//1 267//1 261//1
f 61//4 63//4 269//4 272//4
f 243//5 58//5 274//5 278//5
f 63//1 230//1 275//1 269//1
f 270//6 276//6 280//6 271//6
f 230//2 244//2 279//2 275//2
f 58//4 61//4 272//4 274//4
f 258//26 259//26 260//26 257//26
f 262//26 258//26 257//26 261//26
f 266//8 260//8 259//8 265//8
f 268//9 262//9 261//9 267//9
f 267//23 263//23 264//23 268//23
f 265//23 264//23 263//23 266//23
f 270//26 271//26 272//26 269//26
f 271//26 273//26 274//26 272//26
f 276//9 270//9 269//9 275//9
f 278//8 274//8 273//8 277//8
f 275//23 279//23 280//23 276//23
f 277//23 280//23 279//23 278//23
f 17//4 58//4 261//4 257//4
