# Blender v2.78 (sub 0) OBJ File: 'cupboard.blend'
# www.blender.org
mtllib cupboard.mtl
o cupboard_Cube
v 0.208974 0.050000 0.400000
v 0.108974 1.850000 -0.400000
v -0.291026 1.850000 0.400000
v 0.208974 0.050000 -0.400000
v 0.108974 1.850000 0.400000
v -0.291026 0.050000 -0.500000
v -0.391026 0.050000 -0.400000
v 0.108974 0.050000 -0.500000
v -0.391026 0.050000 0.400000
v 0.108974 0.050000 0.500000
v 0.208974 0.100000 0.450000
v -0.291026 0.050000 0.500000
v -0.391026 0.050000 0.450000
v 0.208974 0.050000 0.450000
v 0.208974 0.050000 -0.450000
v -0.391026 0.050000 -0.450000
v 0.208974 0.100000 0.400000
v -0.291026 1.850000 -0.400000
v -0.291026 0.050000 0.400000
v 0.108974 1.850000 -0.000000
v 0.108974 0.050000 0.400000
v -0.291026 0.050000 -0.400000
v -0.291026 1.850000 0.000000
v -0.291026 0.050000 0.000000
v 0.108974 0.050000 -0.000000
v 0.108974 0.050000 -0.400000
v -0.291026 0.050000 0.450000
v -0.391026 0.050000 0.000000
v 0.108974 0.050000 0.450000
v 0.108974 1.850000 0.450000
v 0.208974 0.050000 -0.000000
v 0.108974 0.000000 -0.450000
v -0.291026 0.000000 -0.450000
v -0.291026 1.850000 0.450000
v 0.108974 1.850000 -0.450000
v 0.108974 0.000000 0.400000
v -0.291026 0.000000 0.400000
v 0.108974 0.000000 -0.400000
v -0.291026 1.850000 -0.450000
v -0.291026 0.050000 -0.450000
v -0.291026 0.000000 -0.400000
v 0.108974 0.000000 0.450000
v -0.291026 0.000000 0.450000
v 0.108974 0.050000 -0.450000
v -0.391026 1.800000 0.000000
v 0.208974 1.800000 -0.000000
v -0.391026 1.800000 0.400000
v -0.391026 1.800000 -0.400000
v 0.208974 1.800000 -0.400000
v -0.391026 1.800000 0.450000
v 0.208974 1.800000 -0.450000
v -0.391026 1.800000 -0.450000
v -0.291026 1.800000 -0.500000
v 0.108974 1.800000 -0.500000
v 0.108974 1.800000 0.500000
v -0.291026 1.800000 0.500000
v -0.391026 0.100000 0.000000
v 0.208974 0.100000 -0.000000
v -0.391026 0.100000 0.400000
v -0.391026 0.100000 -0.400000
v 0.208974 0.100000 -0.400000
v -0.391026 0.100000 0.450000
v 0.208974 0.100000 -0.450000
v -0.391026 0.100000 -0.450000
v 0.208974 1.800000 0.450000
v 0.208974 1.800000 0.400000
v -0.291026 0.100000 -0.500000
v 0.108974 0.100000 -0.500000
v 0.108974 0.100000 0.500000
v -0.291026 0.100000 0.500000
v 0.233974 1.795000 0.445000
v 0.228974 1.800000 0.450000
v 0.228974 0.100000 0.450000
v 0.233974 0.105000 0.445000
v 0.233974 1.795000 0.400000
v 0.228974 1.800000 0.400000
v 0.228974 0.100000 0.400000
v 0.233974 0.105000 0.400000
v 0.233974 1.795000 0.005000
v 0.233974 0.105000 0.005000
v 0.233974 1.795000 -0.445000
v 0.228974 1.800000 -0.450000
v 0.228974 1.800000 -0.400000
v 0.233974 1.795000 -0.400000
v 0.233974 1.795000 -0.005000
v 0.228974 1.800000 -0.000000
v 0.228974 0.100000 -0.000000
v 0.233974 0.105000 -0.005000
v 0.233974 0.105000 -0.445000
v 0.228974 0.100000 -0.450000
v 0.233974 0.105000 -0.400000
v 0.228974 0.100000 -0.400000
v 0.203974 0.050000 -0.500000
v 0.208974 0.050000 -0.495000
v 0.208974 1.845000 -0.495000
v 0.203974 1.845000 -0.500000
v 0.203974 1.850000 -0.495000
v 0.208974 0.050000 0.495000
v 0.203974 0.050000 0.500000
v 0.208974 1.845000 0.495000
v 0.203974 1.850000 0.495000
v 0.203974 1.845000 0.500000
v -0.391026 0.050000 -0.495000
v -0.386026 0.050000 -0.500000
v -0.391026 1.845000 -0.495000
v -0.386026 1.850000 -0.495000
v -0.386026 1.845000 -0.500000
v -0.386026 0.050000 0.500000
v -0.391026 0.050000 0.495000
v -0.386026 1.845000 0.500000
v -0.386026 1.850000 0.495000
v -0.391026 1.845000 0.495000
v 0.203974 1.850000 -0.400000
v 0.208974 1.845000 -0.400000
v 0.108974 1.845000 -0.500000
v 0.108974 1.850000 -0.495000
v -0.291026 1.845000 -0.500000
v -0.291026 1.850000 -0.495000
v 0.208974 1.845000 0.400000
v 0.203974 1.850000 0.400000
v -0.291026 1.845000 0.500000
v -0.291026 1.850000 0.495000
v -0.386026 1.850000 0.400000
v -0.391026 1.845000 0.400000
v 0.108974 1.845000 0.500000
v 0.108974 1.850000 0.495000
v -0.391026 1.845000 -0.400000
v -0.386026 1.850000 -0.400000
v 0.208974 1.845000 0.450000
v 0.203974 1.850000 0.450000
v -0.391026 1.845000 0.450000
v -0.386026 1.850000 0.450000
v -0.391026 1.845000 -0.450000
v -0.386026 1.850000 -0.450000
v 0.208974 1.845000 -0.450000
v 0.203974 1.850000 -0.450000
v -0.386026 1.850000 0.000000
v -0.391026 1.845000 0.000000
v 0.208974 1.845000 -0.000000
v 0.203974 1.850000 -0.000000
v 0.208974 1.800000 -0.495000
v 0.203974 1.800000 -0.500000
v 0.203974 1.800000 0.500000
v 0.208974 1.800000 0.495000
v -0.391026 1.800000 0.495000
v -0.386026 1.800000 0.500000
v -0.386026 1.800000 -0.500000
v -0.391026 1.800000 -0.495000
v 0.208974 0.100000 0.495000
v 0.203974 0.100000 0.500000
v -0.386026 0.100000 0.500000
v -0.391026 0.100000 0.495000
v -0.391026 0.100000 -0.495000
v -0.386026 0.100000 -0.500000
v 0.208974 0.100000 -0.495000
v 0.203974 0.100000 -0.500000
v 0.250223 0.923427 0.078297
v 0.250223 0.983426 0.078297
v 0.250223 0.983426 0.058297
v 0.250223 0.923427 0.058297
v 0.230223 0.983426 0.078297
v 0.230223 0.923427 0.058297
v 0.230223 0.923427 0.078297
v 0.230223 0.983426 0.058297
v 0.250223 0.908427 0.078297
v 0.250223 0.903427 0.073297
v 0.250223 1.003426 0.073297
v 0.250223 0.998426 0.078297
v 0.250223 0.903427 0.063297
v 0.250223 0.908427 0.058297
v 0.250223 0.998426 0.058297
v 0.250223 1.003426 0.063297
v 0.265223 0.908427 0.078297
v 0.270223 0.903427 0.073297
v 0.265223 0.998426 0.078297
v 0.270223 1.003426 0.073297
v 0.265223 0.908427 0.058297
v 0.270223 0.903427 0.063297
v 0.265223 0.998426 0.058297
v 0.270223 1.003426 0.063297
v 0.270223 0.983426 0.063297
v 0.265223 0.983426 0.058297
v 0.265223 0.923427 0.058297
v 0.270223 0.923427 0.063297
v 0.265223 0.983426 0.078297
v 0.270223 0.983426 0.073297
v 0.270223 0.923427 0.073297
v 0.265223 0.923427 0.078297
v 0.230223 0.908427 0.058297
v 0.230223 0.903427 0.063297
v 0.230223 0.903427 0.073297
v 0.230223 0.908427 0.078297
v 0.230223 0.998426 0.078297
v 0.230223 1.003426 0.073297
v 0.230223 1.003426 0.063297
v 0.230223 0.998426 0.058297
v 0.250223 0.923427 -0.052184
v 0.250223 0.983426 -0.052184
v 0.250223 0.983426 -0.072184
v 0.250223 0.923427 -0.072184
v 0.230223 0.983426 -0.052184
v 0.230223 0.923427 -0.072184
v 0.230223 0.923427 -0.052184
v 0.230223 0.983426 -0.072184
v 0.250223 0.908427 -0.052184
v 0.250223 0.903427 -0.057184
v 0.250223 1.003426 -0.057184
v 0.250223 0.998426 -0.052184
v 0.250223 0.903427 -0.067184
v 0.250223 0.908427 -0.072184
v 0.250223 0.998426 -0.072184
v 0.250223 1.003426 -0.067184
v 0.265223 0.908427 -0.052184
v 0.270223 0.903427 -0.057184
v 0.265223 0.998426 -0.052184
v 0.270223 1.003426 -0.057184
v 0.265223 0.908427 -0.072184
v 0.270223 0.903427 -0.067184
v 0.265223 0.998426 -0.072184
v 0.270223 1.003426 -0.067184
v 0.270223 0.983426 -0.067184
v 0.265223 0.983426 -0.072184
v 0.265223 0.923427 -0.072184
v 0.270223 0.923427 -0.067184
v 0.265223 0.983426 -0.052184
v 0.270223 0.983426 -0.057184
v 0.270223 0.923427 -0.057184
v 0.265223 0.923427 -0.052184
v 0.230223 0.908427 -0.072184
v 0.230223 0.903427 -0.067184
v 0.230223 0.903427 -0.057184
v 0.230223 0.908427 -0.052184
v 0.230223 0.998426 -0.052184
v 0.230223 1.003426 -0.057184
v 0.230223 1.003426 -0.067184
v 0.230223 0.998426 -0.072184
vn 0.0000 0.0000 -1.0000
vn 0.0000 1.0000 0.0000
vn -1.0000 0.0000 0.0000
vn 1.0000 0.0000 0.0000
vn 0.0000 0.0000 1.0000
vn 0.0000 -1.0000 0.0000
vn -0.7071 0.0000 0.7071
vn 0.7071 -0.7071 0.0000
vn 0.7071 0.0000 -0.7071
vn 0.7071 0.7071 0.0000
vn 0.7071 0.0000 0.7071
vn 0.5773 0.5773 -0.5774
vn 0.5773 0.5773 0.5774
vn -0.5773 0.5773 -0.5774
vn -0.5773 0.5773 0.5774
vn 0.0000 0.7071 0.7071
vn -0.7071 0.7071 0.0000
vn -0.7071 0.0000 -0.7071
vn 0.0000 0.7071 -0.7071
vn 0.0000 -0.7071 -0.7071
vn 0.0000 -0.7071 0.7071
usemtl None
s off
f 104//1 154//1 67//1 6//1
f 20//2 140//2 113//2 2//2
f 109//3 152//3 62//3 13//3
f 35//2 136//2 97//2 116//2
f 16//3 64//3 153//3 103//3
f 141//4 95//4 135//4 51//4
f 66//4 119//4 129//4 65//4
f 29//5 27//5 43//5 42//5
f 21//6 19//6 24//6 25//6
f 14//6 29//6 21//6 1//6
f 59//3 47//3 45//3 57//3
f 25//6 24//6 22//6 26//6
f 2//2 113//2 136//2 35//2
f 27//6 13//6 9//6 19//6
f 10//6 12//6 27//6 29//6
f 14//4 11//4 149//4 98//4
f 31//6 25//6 26//6 4//6
f 55//5 125//5 121//5 56//5
f 138//3 45//3 47//3 124//3
f 145//3 112//3 131//3 50//3
f 18//2 2//2 35//2 39//2
f 24//6 28//6 7//6 22//6
f 49//4 114//4 139//4 46//4
f 48//3 127//3 133//3 52//3
f 22//3 40//3 33//3 41//3
f 4//6 26//6 44//6 15//6
f 56//5 121//5 110//5 146//5
f 12//5 70//5 151//5 108//5
f 143//5 102//5 125//5 55//5
f 5//2 120//2 140//2 20//2
f 99//5 150//5 69//5 10//5
f 51//4 135//4 114//4 49//4
f 22//6 7//6 16//6 40//6
f 45//3 138//3 127//3 48//3
f 39//2 35//2 116//2 118//2
f 19//6 9//6 28//6 24//6
f 137//2 23//2 18//2 128//2
f 128//2 18//2 39//2 134//2
f 119//4 66//4 46//4 139//4
f 79//4 75//4 78//4 80//4
f 123//2 3//2 23//2 137//2
f 34//2 30//2 5//2 3//2
f 58//4 17//4 1//4 31//4
f 147//1 107//1 117//1 53//1
f 53//1 117//1 115//1 54//1
f 8//1 68//1 156//1 93//1
f 40//1 44//1 32//1 33//1
f 44//6 40//6 6//6 8//6
f 19//1 21//1 36//1 37//1
f 52//3 133//3 105//3 148//3
f 21//4 29//4 42//4 36//4
f 27//3 19//3 37//3 43//3
f 30//2 130//2 120//2 5//2
f 44//4 26//4 38//4 32//4
f 65//4 129//4 100//4 144//4
f 26//5 22//5 41//5 38//5
f 38//6 41//6 33//6 32//6
f 132//2 34//2 3//2 123//2
f 42//6 43//6 37//6 36//6
f 68//1 54//1 142//1 156//1
f 69//5 55//5 56//5 70//5
f 11//4 65//4 144//4 149//4
f 67//1 53//1 54//1 68//1
f 51//2 49//2 83//2 82//2
f 64//3 52//3 148//3 153//3
f 60//3 48//3 52//3 64//3
f 150//5 143//5 55//5 69//5
f 23//2 20//2 2//2 18//2
f 70//5 56//5 146//5 151//5
f 50//3 131//3 124//3 47//3
f 62//3 50//3 47//3 59//3
f 155//4 141//4 51//4 63//4
f 154//1 147//1 53//1 67//1
f 126//2 101//2 130//2 30//2
f 111//2 122//2 34//2 132//2
f 134//2 39//2 118//2 106//2
f 94//4 155//4 63//4 15//4
f 1//6 21//6 25//6 31//6
f 13//3 62//3 59//3 9//3
f 152//3 145//3 50//3 62//3
f 15//4 63//4 61//4 4//4
f 4//4 61//4 58//4 31//4
f 12//6 108//6 109//6 13//6 27//6
f 1//4 17//4 11//4 14//4
f 54//1 115//1 96//1 142//1
f 7//3 60//3 64//3 16//3
f 3//2 5//2 20//2 23//2
f 28//3 57//3 60//3 7//3
f 40//6 16//6 103//6 104//6 6//6
f 6//1 67//1 68//1 8//1
f 98//6 99//6 10//6 29//6 14//6
f 10//5 69//5 70//5 12//5
f 57//3 45//3 48//3 60//3
f 122//2 126//2 30//2 34//2
f 9//3 59//3 57//3 28//3
f 46//2 66//2 76//2 86//2
f 66//2 65//2 72//2 76//2
f 145//7 152//7 151//7 146//7
f 84//4 85//4 88//4 91//4
f 17//6 58//6 87//6 77//6
f 11//6 17//6 77//6 73//6
f 49//2 46//2 86//2 83//2
f 65//5 11//5 73//5 72//5
f 63//1 51//1 82//1 90//1
f 61//6 63//6 90//6 92//6
f 58//6 61//6 92//6 87//6
f 46//5 58//5 87//5 86//5
f 89//4 81//4 84//4 91//4
f 78//8 74//8 73//8 77//8
f 79//9 80//9 87//9 86//9
f 76//10 72//10 71//10 75//10
f 86//10 76//10 75//10 79//10
f 80//8 78//8 77//8 87//8
f 82//10 83//10 84//10 81//10
f 86//11 87//11 88//11 85//11
f 72//11 73//11 74//11 71//11
f 89//8 91//8 92//8 90//8
f 91//8 88//8 87//8 92//8
f 83//10 86//10 85//10 84//10
f 81//9 89//9 90//9 82//9
f 95//12 96//12 97//12
f 100//13 101//13 102//13
f 105//14 106//14 107//14
f 110//15 111//15 112//15
f 142//9 96//9 95//9 141//9
f 130//10 101//10 100//10 129//10
f 150//11 99//11 98//11 149//11
f 122//16 111//16 110//16 121//16
f 152//7 109//7 108//7 151//7
f 134//17 106//17 105//17 133//17
f 154//18 104//18 103//18 153//18
f 116//19 97//19 96//19 115//19
f 136//10 113//10 114//10 135//10
f 118//19 116//19 115//19 117//19
f 106//19 118//19 117//19 107//19
f 126//16 122//16 121//16 125//16
f 132//17 123//17 124//17 131//17
f 101//16 126//16 125//16 102//16
f 120//10 130//10 129//10 119//10
f 111//17 132//17 131//17 112//17
f 128//17 134//17 133//17 127//17
f 97//10 136//10 135//10 95//10
f 78//4 75//4 71//4 74//4
f 102//11 143//11 144//11 100//11
f 112//7 145//7 146//7 110//7
f 107//18 147//18 148//18 105//18
f 156//9 142//9 141//9 155//9
f 143//11 150//11 149//11 144//11
f 93//9 156//9 155//9 94//9
f 140//10 120//10 119//10 139//10
f 123//17 137//17 138//17 124//17
f 137//17 128//17 127//17 138//17
f 113//10 140//10 139//10 114//10
f 15//6 44//6 8//6 93//6 94//6
f 169//6 166//6 191//6 190//6
f 171//1 159//1 164//1 196//1
f 159//1 182//1 183//1 160//1
f 167//2 172//2 195//2 194//2
f 173//5 188//5 157//5 165//5
f 158//5 168//5 193//5 161//5
f 165//5 157//5 163//5 192//5
f 191//3 192//3 163//3 162//3 189//3 190//3
f 181//4 180//4 176//4 186//4
f 185//5 158//5 157//5 188//5
f 160//1 170//1 189//1 162//1
f 181//4 186//4 187//4 184//4
f 159//1 171//1 179//1 182//1
f 157//3 158//3 159//3 160//3
f 161//3 193//3 194//3 195//3 196//3 164//3
f 170//1 160//1 183//1 177//1
f 159//6 158//6 161//6 164//6
f 180//2 172//2 167//2 176//2
f 185//5 175//5 168//5 158//5
f 157//2 160//2 162//2 163//2
f 178//4 184//4 187//4 174//4
f 178//20 169//20 170//20 177//20
f 172//19 180//19 179//19 171//19
f 184//9 178//9 177//9 183//9
f 188//11 173//11 174//11 187//11
f 166//21 174//21 173//21 165//21
f 176//16 167//16 168//16 175//16
f 180//9 181//9 182//9 179//9
f 181//9 184//9 183//9 182//9
f 175//11 185//11 186//11 176//11
f 185//11 188//11 187//11 186//11
f 169//20 190//20 189//20 170//20
f 191//21 166//21 165//21 192//21
f 167//16 194//16 193//16 168//16
f 171//19 196//19 195//19 172//19
f 169//6 178//6 174//6 166//6
f 209//6 206//6 231//6 230//6
f 211//1 199//1 204//1 236//1
f 199//1 222//1 223//1 200//1
f 207//2 212//2 235//2 234//2
f 213//5 228//5 197//5 205//5
f 198//5 208//5 233//5 201//5
f 205//5 197//5 203//5 232//5
f 231//3 232//3 203//3 202//3 229//3 230//3
f 221//4 220//4 216//4 226//4
f 225//5 198//5 197//5 228//5
f 200//1 210//1 229//1 202//1
f 221//4 226//4 227//4 224//4
f 199//1 211//1 219//1 222//1
f 197//3 198//3 199//3 200//3
f 201//3 233//3 234//3 235//3 236//3 204//3
f 210//1 200//1 223//1 217//1
f 199//6 198//6 201//6 204//6
f 220//2 212//2 207//2 216//2
f 225//5 215//5 208//5 198//5
f 197//2 200//2 202//2 203//2
f 218//4 224//4 227//4 214//4
f 218//20 209//20 210//20 217//20
f 212//19 220//19 219//19 211//19
f 224//9 218//9 217//9 223//9
f 228//11 213//11 214//11 227//11
f 206//21 214//21 213//21 205//21
f 216//16 207//16 208//16 215//16
f 220//9 221//9 222//9 219//9
f 221//9 224//9 223//9 222//9
f 215//11 225//11 226//11 216//11
f 225//11 228//11 227//11 226//11
f 209//20 230//20 229//20 210//20
f 231//21 206//21 205//21 232//21
f 207//16 234//16 233//16 208//16
f 211//19 236//19 235//19 212//19
f 209//6 218//6 214//6 206//6
f 154//18 153//18 148//18 147//18
