# Blender v2.78 (sub 0) OBJ File: 'cupboard-open.blend'
# www.blender.org
mtllib cupboard-open.mtl
o cupboard_Cube
v 0.208974 0.050000 0.400000
v 0.108974 1.350000 -0.400000
v -0.291026 1.350000 0.400000
v 0.208974 0.050000 -0.400000
v 0.108974 1.350000 0.400000
v -0.291026 0.050000 -0.500000
v -0.391026 0.050000 -0.400000
v 0.108974 0.050000 -0.500000
v -0.391026 0.050000 0.400000
v 0.108974 0.050000 0.500000
v 0.208974 0.100000 0.450000
v -0.291026 0.050000 0.500000
v -0.391026 0.050000 0.450000
v 0.208974 0.050000 0.450000
v 0.208974 0.050000 -0.450000
v -0.391026 0.050000 -0.450000
v -0.291026 1.350000 -0.400000
v -0.291026 0.050000 0.400000
v 0.108974 0.050000 0.400000
v -0.291026 0.050000 -0.400000
v 0.108974 0.050000 -0.400000
v -0.291026 0.050000 0.450000
v 0.108974 0.050000 0.450000
v 0.108974 1.350000 0.450000
v 0.108974 0.000000 -0.450000
v -0.291026 0.000000 -0.450000
v -0.291026 1.350000 0.450000
v 0.108974 1.350000 -0.450000
v 0.108974 0.000000 0.400000
v -0.291026 0.000000 0.400000
v 0.108974 0.000000 -0.400000
v -0.291026 1.350000 -0.450000
v -0.291026 0.050000 -0.450000
v -0.291026 0.000000 -0.400000
v 0.108974 0.000000 0.450000
v -0.291026 0.000000 0.450000
v 0.108974 0.050000 -0.450000
v -0.391026 1.300000 0.400000
v -0.391026 1.300000 -0.400000
v -0.391026 1.300000 0.450000
v 0.208974 1.300000 -0.450000
v -0.391026 1.300000 -0.450000
v -0.291026 1.300000 -0.500000
v 0.108974 1.300000 -0.500000
v 0.108974 1.300000 0.500000
v -0.291026 1.300000 0.500000
v -0.391026 0.100000 0.400000
v -0.391026 0.100000 -0.400000
v -0.391026 0.100000 0.450000
v 0.208974 0.100000 -0.450000
v -0.391026 0.100000 -0.450000
v 0.208974 1.300000 0.450000
v -0.291026 0.100000 -0.500000
v 0.108974 0.100000 -0.500000
v 0.108974 0.100000 0.500000
v -0.291026 0.100000 0.500000
v 0.203974 0.050000 -0.500000
v 0.208974 0.050000 -0.495000
v 0.208974 1.345000 -0.495000
v 0.203974 1.345000 -0.500000
v 0.203974 1.350000 -0.495000
v 0.208974 0.050000 0.495000
v 0.203974 0.050000 0.500000
v 0.208974 1.345000 0.495000
v 0.203974 1.350000 0.495000
v 0.203974 1.345000 0.500000
v -0.391026 0.050000 -0.495000
v -0.386026 0.050000 -0.500000
v -0.391026 1.345000 -0.495000
v -0.386026 1.350000 -0.495000
v -0.386026 1.345000 -0.500000
v -0.386026 0.050000 0.500000
v -0.391026 0.050000 0.495000
v -0.386026 1.345000 0.500000
v -0.386026 1.350000 0.495000
v -0.391026 1.345000 0.495000
v 0.203974 1.350000 -0.400000
v 0.208974 1.345000 -0.400000
v 0.108974 1.345000 -0.500000
v 0.108974 1.350000 -0.495000
v -0.291026 1.345000 -0.500000
v -0.291026 1.350000 -0.495000
v 0.208974 1.345000 0.400000
v 0.203974 1.350000 0.400000
v -0.291026 1.345000 0.500000
v -0.291026 1.350000 0.495000
v -0.386026 1.350000 0.400000
v -0.391026 1.345000 0.400000
v 0.108974 1.345000 0.500000
v 0.108974 1.350000 0.495000
v -0.391026 1.345000 -0.400000
v -0.386026 1.350000 -0.400000
v 0.208974 1.345000 0.450000
v 0.203974 1.350000 0.450000
v -0.391026 1.345000 0.450000
v -0.386026 1.350000 0.450000
v -0.391026 1.345000 -0.450000
v -0.386026 1.350000 -0.450000
v 0.208974 1.345000 -0.450000
v 0.203974 1.350000 -0.450000
v 0.208974 1.300000 -0.495000
v 0.203974 1.300000 -0.500000
v 0.203974 1.300000 0.500000
v 0.208974 1.300000 0.495000
v -0.391026 1.300000 0.495000
v -0.386026 1.300000 0.500000
v -0.386026 1.300000 -0.500000
v -0.391026 1.300000 -0.495000
v 0.208974 0.100000 0.495000
v 0.203974 0.100000 0.500000
v -0.386026 0.100000 0.500000
v -0.391026 0.100000 0.495000
v -0.391026 0.100000 -0.495000
v -0.386026 0.100000 -0.500000
v 0.208974 0.100000 -0.495000
v 0.203974 0.100000 -0.500000
v -0.391026 0.725000 -0.495000
v -0.391026 0.975000 -0.025000
v -0.386026 0.725000 0.500000
v -0.391026 0.725000 -0.025000
v 0.208974 0.725000 0.495000
v 0.208974 1.345000 -0.025000
v 0.203974 1.350000 -0.025000
v 0.203974 0.725000 -0.500000
v -0.391026 1.345000 -0.025000
v -0.386026 1.350000 -0.025000
v -0.386026 0.725000 -0.500000
v -0.391026 0.100000 -0.025000
v -0.391026 1.300000 -0.025000
v -0.391026 0.725000 0.495000
v 0.108974 1.350000 -0.025000
v -0.291026 1.350000 -0.025000
v 0.203974 0.725000 0.500000
v -0.291026 0.050000 -0.025000
v 0.108974 0.050000 -0.025000
v 0.208974 0.725000 -0.495000
v -0.391026 0.050000 -0.025000
v 0.208974 0.050000 -0.025000
v -0.391026 0.375000 0.025000
v -0.291026 0.725000 0.500000
v 0.108974 0.725000 0.500000
v -0.391026 0.675000 0.025000
v 0.108974 0.725000 -0.500000
v -0.391026 0.425000 0.025000
v -0.291026 0.725000 -0.500000
v -0.391026 1.025000 0.025000
v -0.391026 0.975000 0.025000
v -0.391026 0.100000 0.025000
v 0.208974 0.050000 0.025000
v 0.208974 0.725000 0.450000
v 0.203974 1.350000 0.025000
v -0.391026 0.725000 0.400000
v 0.108974 1.350000 0.025000
v 0.208974 1.345000 0.025000
v -0.291026 0.050000 0.025000
v -0.391026 1.345000 0.025000
v -0.391026 0.725000 -0.400000
v -0.391026 0.725000 0.450000
v -0.391026 0.725000 0.025000
v -0.291026 1.350000 0.025000
v -0.391026 0.050000 0.025000
v 0.108974 0.050000 0.025000
v 0.208974 0.725000 -0.450000
v -0.391026 0.725000 -0.450000
v -0.391026 1.300000 0.025000
v -0.386026 1.350000 0.025000
v -0.391026 0.975000 -0.450000
v 0.208974 0.975000 -0.450000
v -0.391026 0.975000 0.450000
v -0.391026 0.975000 -0.400000
v -0.391026 0.975000 0.400000
v 0.208974 0.975000 0.450000
v -0.291026 0.975000 -0.500000
v 0.108974 0.975000 -0.500000
v 0.108974 0.975000 0.500000
v -0.291026 0.975000 0.500000
v 0.203974 0.975000 -0.500000
v 0.208974 0.975000 -0.495000
v 0.203974 0.975000 0.500000
v 0.208974 0.975000 0.495000
v -0.391026 0.975000 0.495000
v -0.386026 0.975000 0.500000
v -0.386026 0.975000 -0.500000
v -0.391026 0.975000 -0.495000
v 0.203974 1.025000 -0.500000
v 0.208974 1.025000 0.495000
v -0.386026 1.025000 0.500000
v -0.391026 1.025000 -0.495000
v -0.391026 1.025000 -0.450000
v 0.208974 1.025000 -0.450000
v -0.391026 1.025000 0.450000
v -0.391026 1.025000 -0.400000
v -0.391026 1.025000 0.400000
v 0.208974 1.025000 0.450000
v -0.291026 1.025000 -0.500000
v 0.108974 1.025000 -0.500000
v 0.108974 1.025000 0.500000
v -0.291026 1.025000 0.500000
v 0.208974 1.025000 -0.495000
v 0.203974 1.025000 0.500000
v -0.391026 1.025000 0.495000
v -0.386026 1.025000 -0.500000
v -0.391026 0.425000 -0.450000
v 0.208974 0.425000 -0.450000
v -0.391026 0.425000 0.450000
v -0.391026 0.425000 -0.400000
v -0.391026 0.425000 0.400000
v 0.208974 0.425000 0.450000
v -0.291026 0.425000 -0.500000
v 0.108974 0.425000 -0.500000
v 0.108974 0.425000 0.500000
v -0.291026 0.425000 0.500000
v 0.203974 0.425000 -0.500000
v 0.208974 0.425000 -0.495000
v 0.203974 0.425000 0.500000
v 0.208974 0.425000 0.495000
v -0.391026 0.425000 0.495000
v -0.386026 0.425000 0.500000
v -0.386026 0.425000 -0.500000
v -0.391026 0.425000 -0.495000
v 0.203974 0.675000 -0.500000
v 0.208974 0.675000 0.495000
v -0.386026 0.675000 0.500000
v -0.391026 0.675000 -0.495000
v -0.391026 0.675000 -0.450000
v 0.208974 0.675000 -0.450000
v -0.391026 0.675000 0.450000
v -0.391026 0.675000 -0.400000
v -0.391026 0.675000 0.400000
v 0.208974 0.675000 0.450000
v -0.291026 0.675000 -0.500000
v 0.108974 0.675000 -0.500000
v 0.108974 0.675000 0.500000
v -0.291026 0.675000 0.500000
v 0.208974 0.675000 -0.495000
v 0.203974 0.675000 0.500000
v -0.391026 0.675000 0.495000
v -0.386026 0.675000 -0.500000
v -0.391026 0.375000 -0.450000
v 0.208974 0.375000 -0.450000
v -0.391026 0.375000 0.450000
v -0.391026 0.375000 -0.400000
v -0.391026 0.375000 0.400000
v 0.208974 0.375000 0.450000
v -0.291026 0.375000 -0.500000
v 0.108974 0.375000 -0.500000
v 0.108974 0.375000 0.500000
v -0.291026 0.375000 0.500000
v 0.208974 0.375000 -0.495000
v 0.203974 0.375000 0.500000
v -0.391026 0.375000 0.495000
v -0.386026 0.375000 -0.500000
v 0.203974 0.375000 -0.500000
v 0.208974 0.375000 0.495000
v -0.386026 0.375000 0.500000
v -0.391026 0.375000 -0.495000
v -0.391026 1.025000 -0.025000
v -0.391026 0.425000 -0.025000
v -0.391026 0.675000 -0.025000
v -0.391026 0.375000 -0.025000
v -0.291026 0.375000 0.400000
v -0.291026 0.100000 0.400000
v -0.291026 1.025000 -0.400000
v -0.291026 1.300000 -0.400000
v -0.291026 0.100000 0.025000
v -0.291026 0.375000 0.025000
v -0.291026 0.725000 0.025000
v -0.291026 0.975000 0.025000
v -0.291026 1.025000 0.025000
v -0.291026 1.300000 0.025000
v -0.291026 0.425000 0.025000
v -0.291026 0.675000 0.025000
v -0.291026 0.675000 0.400000
v -0.291026 0.425000 0.400000
v -0.291026 1.025000 0.400000
v -0.291026 0.975000 0.400000
v -0.291026 1.300000 -0.025000
v -0.291026 0.725000 0.400000
v -0.291026 0.725000 -0.025000
v -0.291026 0.975000 -0.025000
v -0.291026 1.025000 -0.025000
v -0.291026 0.725000 -0.400000
v -0.291026 0.100000 -0.400000
v -0.291026 0.100000 -0.025000
v -0.291026 1.300000 0.400000
v -0.291026 0.975000 -0.400000
v -0.291026 0.375000 -0.400000
v -0.291026 0.425000 -0.400000
v -0.291026 0.425000 -0.025000
v -0.291026 0.675000 -0.400000
v -0.291026 0.675000 -0.025000
v -0.291026 0.375000 -0.025000
v 0.208974 0.095000 0.405000
v 0.203974 0.100000 0.400000
v 0.208974 1.305000 -0.405000
v 0.203974 1.300000 -0.400000
v 0.208974 0.095000 -0.405000
v 0.203974 0.100000 -0.400000
v 0.208974 1.305000 0.405000
v 0.203974 1.300000 0.400000
v 0.208974 0.980000 -0.025000
v 0.203974 0.975000 -0.025000
v 0.203974 0.725000 -0.025000
v 0.208974 0.720000 -0.025000
v 0.208974 0.720000 -0.405000
v 0.203974 0.725000 -0.400000
v 0.203974 1.300000 -0.025000
v 0.208974 1.305000 -0.025000
v 0.203974 0.100000 -0.025000
v 0.208974 0.095000 -0.020000
v 0.208974 0.380000 0.020000
v 0.203974 0.375000 0.025000
v 0.208974 0.680000 0.020000
v 0.203974 0.675000 0.025000
v 0.203974 0.425000 0.025000
v 0.208974 0.420000 0.020000
v 0.208974 1.020000 0.025000
v 0.203974 1.025000 0.025000
v 0.203974 0.975000 0.025000
v 0.208974 0.980000 0.025000
v 0.208974 1.305000 0.025000
v 0.203974 1.300000 0.025000
v 0.208974 0.720000 0.025000
v 0.203974 0.725000 0.025000
v 0.208974 0.095000 0.020000
v 0.203974 0.100000 0.025000
v 0.203974 0.725000 0.400000
v 0.208974 0.720000 0.405000
v 0.208974 0.980000 0.405000
v 0.203974 0.975000 0.400000
v 0.208974 0.980000 -0.405000
v 0.203974 0.975000 -0.400000
v 0.203974 1.025000 -0.400000
v 0.208974 1.020000 -0.405000
v 0.203974 1.025000 0.400000
v 0.208974 1.020000 0.405000
v 0.203974 0.425000 0.400000
v 0.208974 0.420000 0.405000
v 0.208974 0.425000 -0.405000
v 0.203974 0.425000 -0.400000
v 0.208974 0.680000 -0.405000
v 0.203974 0.675000 -0.400000
v 0.208974 0.680000 0.405000
v 0.203974 0.675000 0.400000
v 0.203974 0.375000 0.400000
v 0.208974 0.380000 0.405000
v 0.203974 0.375000 -0.400000
v 0.208974 0.375000 -0.405000
v 0.203974 1.025000 -0.025000
v 0.208974 1.020000 -0.025000
v 0.208974 0.425000 -0.020000
v 0.203974 0.425000 -0.025000
v 0.208974 0.680000 -0.020000
v 0.203974 0.675000 -0.025000
v 0.203974 0.375000 -0.025000
v 0.208974 0.375000 -0.020000
vn 0.0000 0.0000 -1.0000
vn 0.0000 1.0000 0.0000
vn -1.0000 0.0000 0.0000
vn 1.0000 0.0000 0.0000
vn 0.0000 0.0000 1.0000
vn 0.0000 -1.0000 0.0000
vn -0.7071 0.0000 0.7071
vn 0.5774 0.5774 -0.5773
vn 0.5774 0.5774 0.5773
vn -0.5774 0.5774 -0.5773
vn -0.5774 0.5774 0.5773
vn 0.7071 0.0000 -0.7071
vn 0.7071 0.7071 0.0000
vn 0.7071 0.0000 0.7071
vn 0.0000 0.7071 0.7071
vn -0.7071 0.7071 0.0000
vn -0.7071 0.0000 -0.7071
vn 0.0000 0.7071 -0.7071
vn 0.7071 -0.7071 -0.0000
usemtl None
s off
f 68//1 114//1 53//1 6//1
f 131//2 123//2 77//2 2//2
f 73//3 112//3 49//3 13//3
f 28//2 100//2 61//2 80//2
f 16//3 51//3 113//3 67//3
f 101//4 59//4 99//4 41//4
f 83//4 299//4 321//4 154//4
f 23//5 22//5 36//5 35//5
f 14//6 23//6 19//6 1//6
f 162//6 135//6 138//6 149//6
f 135//6 134//6 20//6 21//6
f 2//2 77//2 100//2 28//2
f 22//6 13//6 9//6 18//6
f 10//6 12//6 22//6 23//6
f 14//4 11//4 109//4 62//4
f 138//6 135//6 21//6 4//6
f 45//5 89//5 85//5 46//5
f 194//4 172//4 329//4 336//4
f 105//3 76//3 95//3 40//3
f 17//2 2//2 28//2 32//2
f 134//6 137//6 7//6 20//6
f 160//2 132//2 126//2 166//2
f 39//3 91//3 97//3 42//3
f 20//3 33//3 26//3 34//3
f 4//6 21//6 37//6 15//6
f 46//5 85//5 74//5 106//5
f 12//5 56//5 111//5 72//5
f 103//5 66//5 89//5 45//5
f 156//3 165//3 38//3 88//3
f 63//5 110//5 55//5 10//5
f 334//4 190//4 41//4 295//4
f 20//6 7//6 16//6 33//6
f 129//3 125//3 91//3 39//3
f 32//2 28//2 80//2 82//2
f 310//4 325//4 149//4 138//4
f 126//2 132//2 17//2 92//2
f 92//2 17//2 32//2 98//2
f 128//3 137//3 161//3 148//3
f 27//2 24//2 5//2 3//2
f 125//3 129//3 165//3 156//3
f 107//1 71//1 81//1 43//1
f 43//1 81//1 79//1 44//1
f 8//1 54//1 116//1 57//1
f 33//1 37//1 25//1 26//1
f 37//6 33//6 6//6 8//6
f 18//1 19//1 29//1 30//1
f 42//3 97//3 69//3 108//3
f 19//4 23//4 35//4 29//4
f 22//3 18//3 30//3 36//3
f 24//2 94//2 84//2 5//2
f 37//4 21//4 31//4 25//4
f 52//4 93//4 64//4 104//4
f 21//5 20//5 34//5 31//5
f 31//6 34//6 26//6 25//6
f 96//2 27//2 3//2 87//2
f 35//6 36//6 30//6 29//6
f 196//1 44//1 102//1 185//1
f 197//5 45//5 46//5 198//5
f 194//4 52//4 104//4 186//4
f 195//1 43//1 44//1 196//1
f 189//3 42//3 108//3 188//3
f 192//3 39//3 42//3 189//3
f 200//5 103//5 45//5 197//5
f 132//2 131//2 2//2 17//2
f 198//5 46//5 106//5 187//5
f 40//3 95//3 88//3 38//3
f 191//3 40//3 38//3 193//3
f 199//4 101//4 41//4 190//4
f 202//1 107//1 43//1 195//1
f 90//2 65//2 94//2 24//2
f 75//2 86//2 27//2 96//2
f 98//2 32//2 82//2 70//2
f 58//4 115//4 50//4 15//4
f 294//2 326//2 265//2 262//2
f 13//3 49//3 47//3 9//3
f 201//3 105//3 40//3 191//3
f 297//4 50//4 240//4 348//4
f 131//2 132//2 160//2 153//2
f 12//6 72//6 73//6 13//6 22//6
f 346//4 244//4 11//4 293//4
f 44//1 79//1 60//1 102//1
f 7//3 48//3 51//3 16//3
f 137//6 134//6 155//6 161//6
f 137//3 128//3 48//3 7//3
f 33//6 16//6 67//6 68//6 6//6
f 6//1 53//1 54//1 8//1
f 62//6 63//6 10//6 23//6 14//6
f 10//5 55//5 56//5 12//5
f 257//3 129//3 39//3 192//3
f 86//2 90//2 24//2 27//2
f 148//3 139//3 260//3 128//3
f 251//7 112//7 111//7 255//7
f 325//4 293//4 1//4 149//4
f 295//4 78//4 122//4 308//4
f 59//8 60//8 61//8
f 64//9 65//9 66//9
f 69//10 70//10 71//10
f 74//11 75//11 76//11
f 102//12 60//12 59//12 101//12
f 94//13 65//13 64//13 93//13
f 110//14 63//14 62//14 109//14
f 86//15 75//15 74//15 85//15
f 112//7 73//7 72//7 111//7
f 98//16 70//16 69//16 97//16
f 114//17 68//17 67//17 113//17
f 80//18 61//18 60//18 79//18
f 100//13 77//13 78//13 99//13
f 82//18 80//18 79//18 81//18
f 70//18 82//18 81//18 71//18
f 90//15 86//15 85//15 89//15
f 96//16 87//16 88//16 95//16
f 65//15 90//15 89//15 66//15
f 84//13 94//13 93//13 83//13
f 75//16 96//16 95//16 76//16
f 92//16 98//16 97//16 91//16
f 61//13 100//13 99//13 59//13
f 66//14 103//14 104//14 64//14
f 76//7 105//7 106//7 74//7
f 71//17 107//17 108//17 69//17
f 185//12 102//12 101//12 199//12
f 250//14 110//14 109//14 254//14
f 57//12 116//12 115//12 58//12
f 310//4 356//4 311//4 325//4
f 151//13 84//13 83//13 154//13
f 126//16 92//16 91//16 125//16
f 166//16 126//16 125//16 156//16
f 15//6 37//6 8//6 57//6 58//6
f 123//2 131//2 153//2 151//2
f 324//2 303//2 279//2 267//2
f 353//4 304//4 323//4 313//4
f 150//4 230//4 343//4 328//4
f 123//13 151//13 154//13 122//13
f 202//17 188//17 108//17 107//17
f 117//17 127//17 238//17 224//17
f 133//14 236//14 222//14 121//14
f 307//6 322//6 270//6 277//6
f 177//12 185//12 199//12 178//12
f 215//14 250//14 254//14 216//14
f 253//12 213//12 214//12 249//12
f 124//12 136//12 235//12 221//12
f 339//4 204//4 226//4 341//4
f 179//14 133//14 121//14 180//14
f 322//6 300//6 285//6 270//6
f 305//4 163//4 168//4 331//4
f 330//1 327//1 278//1 276//1
f 181//7 130//7 119//7 182//7
f 201//7 181//7 182//7 187//7
f 344//1 337//1 274//1 273//1
f 130//7 237//7 223//7 119//7
f 118//3 257//3 192//3 170//3
f 217//7 251//7 255//7 218//7
f 258//3 206//3 242//3 260//3
f 120//3 157//3 228//3 259//3
f 217//3 205//3 241//3 251//3
f 326//5 312//5 266//5 265//5
f 130//3 158//3 227//3 237//3
f 219//1 209//1 245//1 252//1
f 210//1 213//1 253//1 246//1
f 127//1 145//1 231//1 238//1
f 214//4 204//4 240//4 249//4
f 211//5 212//5 248//5 247//5
f 136//4 163//4 226//4 235//4
f 205//3 207//3 243//3 241//3
f 208//4 216//4 254//4 244//4
f 158//3 152//3 229//3 227//3
f 212//5 218//5 255//5 248//5
f 209//1 210//1 246//1 245//1
f 140//5 119//5 223//5 234//5
f 215//5 211//5 247//5 250//5
f 203//3 220//3 256//3 239//3
f 133//5 141//5 233//5 236//5
f 206//3 203//3 239//3 242//3
f 87//2 3//2 160//2 166//2
f 228//3 157//3 164//3 225//3
f 1//6 19//6 162//6 149//6
f 18//6 9//6 161//6 155//6
f 225//3 164//3 117//3 224//3
f 9//3 47//3 148//3 161//3
f 41//4 99//4 78//4 295//4
f 231//1 145//1 143//1 232//1
f 87//16 166//16 156//16 88//16
f 19//6 18//6 155//6 162//6
f 230//4 150//4 121//4 222//4
f 304//4 353//4 341//4 305//4
f 314//6 344//6 273//6 272//6
f 233//5 141//5 140//5 234//5
f 207//3 144//3 139//3 243//3
f 144//3 142//3 259//3 258//3
f 232//1 143//1 124//1 221//1
f 152//3 171//3 147//3 159//3
f 257//3 118//3 147//3 146//3
f 159//3 120//3 259//3 142//3
f 258//3 260//3 139//3 144//3
f 303//2 306//2 282//2 279//2
f 47//3 243//3 139//3 148//3
f 77//13 123//13 122//13 78//13
f 298//5 347//5 287//5 283//5
f 143//1 174//1 177//1 124//1
f 141//5 175//5 176//5 140//5
f 150//4 172//4 180//4 121//4
f 145//1 173//1 174//1 143//1
f 164//3 167//3 184//3 117//3
f 157//3 170//3 167//3 164//3
f 133//5 179//5 175//5 141//5
f 140//5 176//5 182//5 119//5
f 158//3 169//3 171//3 152//3
f 136//4 178//4 168//4 163//4
f 127//1 183//1 173//1 145//1
f 130//3 181//3 169//3 158//3
f 120//3 118//3 170//3 157//3
f 318//2 349//2 281//2 269//2
f 301//4 350//4 317//4 320//4
f 306//5 332//5 286//5 282//5
f 124//12 177//12 178//12 136//12
f 159//3 147//3 118//3 120//3
f 127//17 117//17 184//17 183//17
f 349//2 333//2 263//2 281//2
f 336//4 329//4 320//4 317//4
f 105//7 201//7 187//7 106//7
f 299//4 83//4 93//4 52//4
f 103//14 200//14 186//14 104//14
f 200//14 179//14 180//14 186//14
f 165//3 129//3 257//3 146//3
f 331//4 168//4 190//4 334//4
f 181//3 201//3 191//3 169//3
f 183//1 202//1 195//1 173//1
f 178//4 199//4 190//4 168//4
f 169//3 191//3 193//3 171//3
f 176//5 198//5 187//5 182//5
f 179//5 200//5 197//5 175//5
f 170//3 192//3 189//3 167//3
f 167//3 189//3 188//3 184//3
f 173//1 195//1 196//1 174//1
f 172//4 194//4 186//4 180//4
f 175//5 197//5 198//5 176//5
f 174//1 196//1 185//1 177//1
f 350//4 301//4 331//4 334//4
f 302//6 319//6 268//6 280//6
f 183//17 184//17 188//17 202//17
f 342//6 354//6 291//6 290//6
f 313//4 316//4 351//4 353//4
f 312//6 345//6 261//6 266//6
f 152//3 159//3 142//3 229//3
f 3//2 5//2 153//2 160//2
f 300//1 335//1 275//1 285//1
f 5//2 84//2 151//2 153//2
f 193//3 38//3 165//3 146//3
f 355//1 309//1 284//1 292//1
f 237//7 217//7 218//7 223//7
f 208//4 244//4 346//4 338//4
f 236//14 215//14 216//14 222//14
f 171//3 193//3 146//3 147//3
f 210//1 232//1 221//1 213//1
f 211//5 233//5 234//5 212//5
f 208//4 230//4 222//4 216//4
f 209//1 231//1 232//1 210//1
f 203//3 225//3 224//3 220//3
f 206//3 228//3 225//3 203//3
f 215//5 236//5 233//5 211//5
f 212//5 234//5 223//5 218//5
f 205//3 227//3 229//3 207//3
f 214//4 235//4 226//4 204//4
f 219//1 238//1 231//1 209//1
f 217//3 237//3 227//3 205//3
f 258//3 259//3 228//3 206//3
f 340//5 342//5 290//5 288//5
f 213//12 221//12 235//12 214//12
f 207//3 229//3 142//3 144//3
f 219//17 220//17 224//17 238//17
f 54//1 246//1 253//1 116//1
f 55//5 247//5 248//5 56//5
f 11//4 244//4 254//4 109//4
f 53//1 245//1 246//1 54//1
f 51//3 239//3 256//3 113//3
f 48//3 242//3 239//3 51//3
f 110//5 250//5 247//5 55//5
f 56//5 248//5 255//5 111//5
f 49//3 241//3 243//3 47//3
f 115//4 249//4 240//4 50//4
f 114//1 252//1 245//1 53//1
f 112//3 251//3 241//3 49//3
f 128//3 260//3 242//3 48//3
f 4//4 297//4 310//4 138//4
f 352//1 355//1 292//1 289//1
f 116//12 253//12 249//12 115//12
f 114//17 113//17 256//17 252//17
f 329//4 172//4 150//4 328//4
f 256//17 220//17 219//17 252//17
f 296//6 307//6 277//6 264//6
f 134//6 135//6 162//6 155//6
f 270//4 269//4 281//4 277//4
f 289//4 292//4 287//4 288//4
f 291//4 289//4 288//4 290//4
f 292//4 284//4 283//4 287//4
f 267//4 279//4 280//4 268//4
f 261//4 262//4 265//4 266//4
f 280//4 279//4 282//4 286//4
f 277//4 281//4 263//4 264//4
f 276//4 278//4 267//4 268//4
f 273//4 274//4 271//4 272//4
f 285//4 275//4 269//4 270//4
f 337//2 315//2 271//2 274//2
f 343//4 230//4 208//4 338//4
f 328//4 343//4 313//4 323//4
f 309//2 298//2 283//2 284//2
f 338//4 346//4 311//4 316//4
f 319//6 330//6 276//6 268//6
f 333//5 296//5 264//5 263//5
f 204//4 339//4 348//4 240//4
f 327//2 324//2 267//2 278//2
f 354//1 352//1 289//1 291//1
f 345//1 294//1 262//1 261//1
f 299//4 52//4 194//4 336//4
f 356//4 351//4 316//4 311//4
f 335//2 318//2 269//2 275//2
f 332//6 302//6 280//6 286//6
f 15//4 50//4 297//4 4//4
f 163//4 305//4 341//4 226//4
f 154//4 321//4 308//4 122//4
f 347//5 340//5 288//5 287//5
f 315//5 314//5 272//5 271//5
f 346//12 293//12 294//12 345//12
f 334//14 295//14 296//14 333//14
f 326//13 294//13 293//13 325//13
f 325//14 311//14 312//14 326//14
f 316//14 313//14 314//14 315//14
f 345//19 312//19 311//19 346//19
f 344//19 314//19 313//19 343//19
f 338//13 316//13 315//13 337//13
f 336//13 317//13 318//13 335//13
f 330//19 319//19 320//19 329//19
f 308//19 321//19 322//19 307//19
f 328//13 323//13 324//13 327//13
f 329//12 328//12 327//12 330//12
f 304//13 305//13 306//13 303//13
f 323//13 304//13 303//13 324//13
f 295//19 308//19 307//19 296//19
f 298//13 309//13 310//13 297//13
f 321//19 299//19 300//19 322//19
f 305//14 331//14 332//14 306//14
f 302//19 332//19 331//19 301//19
f 319//19 302//19 301//19 320//19
f 299//12 336//12 335//12 300//12
f 350//13 334//13 333//13 349//13
f 317//13 350//13 349//13 318//13
f 343//12 338//12 337//12 344//12
f 348//14 339//14 340//14 347//14
f 339//14 341//14 342//14 340//14
f 354//19 342//19 341//19 353//19
f 297//14 348//14 347//14 298//14
f 309//12 355//12 356//12 310//12
f 352//12 354//12 353//12 351//12
f 355//12 352//12 351//12 356//12
f 1//4 293//4 11//4 14//4
