# Blender v2.78 (sub 0) OBJ File: 'desk.blend'
# www.blender.org
mtllib desk.mtl
o table_Cube.002
v -0.250000 0.050000 -0.100000
v 0.250000 0.050000 -0.100000
v 0.250000 0.650000 -0.400000
v -0.250000 0.050000 -0.400000
v 0.250000 0.050000 -0.400000
v -0.250000 0.650000 -0.100000
v 0.250000 0.650000 -0.100000
v -0.350000 0.650000 0.500000
v -0.350000 0.700000 0.500000
v -0.350000 0.650000 -0.500000
v -0.350000 0.700000 -0.500000
v 0.350000 0.650000 0.500000
v 0.350000 0.700000 0.500000
v 0.350000 0.650000 -0.500000
v 0.350000 0.700000 -0.500000
v -0.350000 0.650000 -0.400000
v -0.350000 0.650000 0.400000
v -0.350000 0.700000 0.400000
v -0.350000 0.700000 -0.400000
v 0.350000 0.650000 0.400000
v 0.350000 0.650000 -0.400000
v 0.350000 0.700000 -0.400000
v 0.350000 0.700000 0.400000
v -0.250000 0.650000 -0.500000
v -0.250000 0.700000 -0.500000
v -0.250000 0.650000 0.500000
v -0.250000 0.700000 0.500000
v -0.250000 0.700000 -0.400000
v -0.250000 0.700000 0.400000
v -0.250000 0.650000 0.400000
v -0.350000 0.650000 0.450000
v 0.350000 0.700000 0.450000
v -0.350000 0.700000 0.450000
v 0.350000 0.650000 0.450000
v 0.300000 0.650000 -0.450000
v 0.300000 0.700000 -0.450000
v -0.250000 0.700000 0.450000
v -0.250000 0.650000 0.450000
v 0.300000 0.650000 0.450000
v 0.300000 0.700000 0.450000
v 0.300000 0.650000 0.400000
v -0.350000 0.700000 -0.450000
v 0.350000 0.650000 -0.450000
v -0.350000 0.650000 -0.450000
v 0.350000 0.700000 -0.450000
v -0.250000 0.650000 -0.450000
v 0.300000 0.650000 -0.400000
v 0.300000 0.700000 0.500000
v 0.300000 0.650000 -0.500000
v 0.300000 0.700000 0.400000
v 0.300000 0.700000 -0.400000
v 0.300000 0.650000 0.500000
v 0.300000 0.700000 -0.500000
v -0.250000 0.700000 -0.450000
v -0.300000 0.650000 -0.500000
v -0.300000 0.700000 0.500000
v -0.300000 0.650000 -0.400000
v -0.300000 0.650000 0.400000
v -0.300000 0.700000 -0.500000
v -0.300000 0.650000 0.500000
v -0.300000 0.700000 -0.400000
v -0.300000 0.700000 0.400000
v -0.300000 0.650000 0.450000
v -0.300000 0.700000 0.450000
v -0.300000 0.650000 -0.450000
v -0.300000 0.700000 -0.450000
v -0.250000 0.650000 -0.400000
v -0.250000 0.650000 -0.400000
v 0.300000 -0.000000 -0.400000
v 0.300000 -0.000000 -0.450000
v -0.250000 -0.000000 -0.400000
v 0.300000 -0.000000 0.400000
v 0.300000 -0.000000 0.450000
v -0.250000 -0.000000 0.400000
v -0.250000 -0.000000 -0.450000
v -0.250000 -0.000000 0.450000
v -0.300000 -0.000000 -0.400000
v -0.300000 -0.000000 0.400000
v -0.300000 -0.000000 0.450000
v -0.300000 -0.000000 -0.450000
vn 1.0000 0.0000 0.0000
vn 0.0000 -1.0000 0.0000
vn -0.0000 0.0000 1.0000
vn -1.0000 0.0000 0.0000
vn 0.0000 0.0000 -1.0000
vn 0.0000 1.0000 0.0000
usemtl None
s off
f 3//1 7//1 2//1 5//1
f 5//2 2//2 1//2 4//2
f 7//3 6//3 1//3 2//3
f 44//4 42//4 11//4 10//4
f 49//5 53//5 15//5 14//5
f 34//1 32//1 13//1 12//1
f 60//3 56//3 9//3 8//3
f 39//2 34//2 12//2 52//2
f 64//6 33//6 9//6 56//6
f 66//6 42//6 19//6 61//6
f 77//2 71//2 74//2 78//2
f 35//2 43//2 21//2 47//2
f 43//1 45//1 22//1 21//1
f 18//4 19//4 16//4 17//4
f 31//4 33//4 18//4 17//4
f 28//6 61//6 62//6 29//6
f 39//1 73//1 72//1 41//1
f 74//1 71//1 67//1 30//1
f 65//5 46//5 75//5 80//5
f 65//4 80//4 77//4 57//4
f 20//2 41//2 47//2 21//2
f 46//5 35//5 70//5 75//5
f 30//2 67//2 47//2 41//2
f 54//6 28//6 51//6 36//6
f 37//6 27//6 48//6 40//6
f 38//2 39//2 52//2 26//2
f 63//2 38//2 26//2 60//2
f 48//3 27//3 26//3 52//3
f 25//5 53//5 49//5 24//5
f 55//5 59//5 25//5 24//5
f 50//6 29//6 37//6 40//6
f 57//2 58//2 17//2 16//2
f 51//6 28//6 29//6 50//6
f 4//5 68//5 3//5 5//5
f 38//3 76//3 73//3 39//3
f 24//2 49//2 35//2 46//2
f 8//4 9//4 33//4 31//4
f 62//6 18//6 33//6 64//6
f 41//2 20//2 34//2 39//2
f 20//1 23//1 32//1 34//1
f 53//6 25//6 54//6 36//6
f 15//6 53//6 36//6 45//6
f 12//3 13//3 48//3 52//3
f 23//6 50//6 40//6 32//6
f 32//6 40//6 48//6 13//6
f 45//6 36//6 51//6 22//6
f 55//2 24//2 46//2 65//2
f 14//1 15//1 45//1 43//1
f 49//2 14//2 43//2 35//2
f 59//6 11//6 42//6 66//6
f 16//4 19//4 42//4 44//4
f 25//6 59//6 66//6 54//6
f 10//2 55//2 65//2 44//2
f 29//6 62//6 64//6 37//6
f 17//2 58//2 63//2 31//2
f 10//5 11//5 59//5 55//5
f 31//2 63//2 60//2 8//2
f 44//2 65//2 57//2 16//2
f 22//1 23//1 20//1 21//1
f 54//6 66//6 61//6 28//6
f 37//6 64//6 56//6 27//6
f 26//3 27//3 56//3 60//3
f 79//3 76//3 38//3 63//3
f 58//4 78//4 79//4 63//4
f 3//6 68//6 6//6 7//6
f 67//3 71//3 69//3 47//3
f 75//2 70//2 69//2 71//2
f 41//5 72//5 74//5 30//5
f 57//4 77//4 78//4 58//4
f 18//6 62//6 61//6 19//6
f 80//2 75//2 71//2 77//2
f 72//2 73//2 76//2 74//2
f 78//2 74//2 76//2 79//2
f 50//6 23//6 22//6 51//6
f 4//4 1//4 6//4 68//4
f 35//1 47//1 69//1 70//1
