# Blender v2.78 (sub 0) OBJ File: 'lamp.blend'
# www.blender.org
mtllib lamp.mtl
o lamp_Cube
v 0.000000 0.277757 -0.160000
v -0.000000 0.477757 -0.080000
v 0.113137 0.277757 -0.113137
v 0.056569 0.477757 -0.056569
v 0.160000 0.277757 0.000000
v 0.080000 0.477757 0.000000
v 0.113137 0.277757 0.113137
v 0.056569 0.477757 0.056569
v -0.000000 0.277757 0.160000
v -0.000000 0.477757 0.080000
v -0.113137 0.277757 0.113137
v -0.056569 0.477757 0.056569
v -0.160000 0.277757 -0.000000
v -0.080000 0.477757 -0.000000
v -0.113137 0.277757 -0.113137
v -0.056569 0.477757 -0.056569
v -0.000000 0.477757 -0.072000
v 0.050912 0.477757 -0.050912
v 0.072000 0.477757 0.000000
v 0.050912 0.477757 0.050912
v -0.000000 0.477757 0.072000
v -0.050912 0.477757 0.050912
v -0.072000 0.477757 -0.000000
v -0.050912 0.477757 -0.050912
v 0.000000 0.277757 -0.144000
v 0.101823 0.277757 -0.101823
v 0.144000 0.277757 0.000000
v 0.101823 0.277757 0.101823
v -0.000000 0.277757 0.144000
v -0.101823 0.277757 0.101823
v -0.144000 0.277757 -0.000000
v -0.101823 0.277757 -0.101823
v 0.000000 0.011600 -0.080000
v -0.056569 0.011600 -0.056569
v -0.080000 0.011600 0.000000
v -0.056569 0.011600 0.056569
v 0.000000 0.011600 0.080000
v 0.056569 0.011600 0.056569
v 0.080000 0.011600 -0.000000
v 0.056569 0.011600 -0.056569
v 0.000000 0.031600 -0.040000
v -0.028284 0.031600 -0.028284
v -0.040000 0.031600 0.000000
v -0.028284 0.031600 0.028284
v 0.000000 0.031600 0.040000
v 0.028284 0.031600 0.028284
v 0.040000 0.031600 -0.000000
v 0.028284 0.031600 -0.028284
v 0.000000 0.041600 -0.020000
v -0.014142 0.041600 -0.014142
v -0.020000 0.041600 0.000000
v -0.014142 0.041600 0.014142
v 0.000000 0.041600 0.020000
v 0.014142 0.041600 0.014142
v 0.020000 0.041600 -0.000000
v 0.014142 0.041600 -0.014142
v 0.000000 0.345473 -0.020000
v -0.014142 0.345473 -0.014142
v -0.020000 0.345473 0.000000
v -0.014142 0.345473 0.014142
v 0.000000 0.345473 0.020000
v 0.014142 0.345473 0.014142
v 0.020000 0.345473 -0.000000
v 0.014142 0.345473 -0.014142
v 0.000000 0.001600 -0.080000
v -0.056569 0.001600 -0.056569
v -0.080000 0.001600 0.000000
v -0.056569 0.001600 0.056569
v 0.000000 0.001600 0.080000
v 0.056569 0.001600 0.056569
v 0.080000 0.001600 -0.000000
v 0.056569 0.001600 -0.056569
vn 0.3590 0.3466 -0.8666
vn 0.8666 0.3466 -0.3590
vn 0.8666 0.3466 0.3590
vn 0.3590 0.3466 0.8666
vn -0.3590 0.3466 0.8666
vn -0.8666 0.3466 0.3590
vn -0.8666 0.3466 -0.3590
vn -0.3590 0.3466 -0.8666
vn 0.0000 1.0000 0.0000
vn 0.0000 -1.0000 0.0000
vn 0.3631 -0.3156 -0.8767
vn 0.8767 -0.3156 -0.3631
vn 0.8767 -0.3156 0.3631
vn 0.3631 -0.3156 0.8767
vn -0.3631 -0.3156 0.8767
vn -0.8767 -0.3156 0.3631
vn -0.8767 -0.3156 -0.3631
vn -0.3631 -0.3156 -0.8767
vn 0.4397 0.8795 -0.1821
vn 0.1821 0.8795 0.4397
vn -0.4397 0.8795 0.1821
vn -0.1821 0.8795 -0.4397
vn 0.1821 0.8795 -0.4397
vn 0.4397 0.8795 0.1821
vn -0.1821 0.8795 0.4397
vn -0.4397 0.8795 -0.1821
vn 0.9239 0.0000 -0.3827
vn 0.3827 0.0000 0.9239
vn -0.9239 0.0000 0.3827
vn -0.3827 0.0000 -0.9239
vn 0.3827 0.0000 -0.9239
vn 0.9239 0.0000 0.3827
vn -0.3827 0.0000 0.9239
vn -0.9239 0.0000 -0.3827
usemtl None
s off
f 1//1 2//1 4//1 3//1
f 3//2 4//2 6//2 5//2
f 5//3 6//3 8//3 7//3
f 7//4 8//4 10//4 9//4
f 9//5 10//5 12//5 11//5
f 11//6 12//6 14//6 13//6
f 13//7 14//7 16//7 15//7
f 15//8 16//8 2//8 1//8
f 8//9 6//9 19//9 20//9
f 14//9 12//9 22//9 23//9
f 10//9 8//9 20//9 21//9
f 16//9 14//9 23//9 24//9
f 6//9 4//9 18//9 19//9
f 12//9 10//9 21//9 22//9
f 2//9 16//9 24//9 17//9
f 4//9 2//9 17//9 18//9
f 13//10 15//10 32//10 31//10
f 3//10 5//10 27//10 26//10
f 9//10 11//10 30//10 29//10
f 15//10 1//10 25//10 32//10
f 1//10 3//10 26//10 25//10
f 5//10 7//10 28//10 27//10
f 11//10 13//10 31//10 30//10
f 7//10 9//10 29//10 28//10
f 22//11 21//11 29//11 30//11
f 23//12 22//12 30//12 31//12
f 24//13 23//13 31//13 32//13
f 17//14 24//14 32//14 25//14
f 18//15 17//15 25//15 26//15
f 19//16 18//16 26//16 27//16
f 20//17 19//17 27//17 28//17
f 21//18 20//18 28//18 29//18
f 39//19 40//19 48//19 47//19
f 37//20 38//20 46//20 45//20
f 35//21 36//21 44//21 43//21
f 33//22 34//22 42//22 41//22
f 40//23 33//23 41//23 48//23
f 38//24 39//24 47//24 46//24
f 36//25 37//25 45//25 44//25
f 34//26 35//26 43//26 42//26
f 43//21 44//21 52//21 51//21
f 41//22 42//22 50//22 49//22
f 48//23 41//23 49//23 56//23
f 46//24 47//24 55//24 54//24
f 44//25 45//25 53//25 52//25
f 42//26 43//26 51//26 50//26
f 47//19 48//19 56//19 55//19
f 45//20 46//20 54//20 53//20
f 55//27 56//27 64//27 63//27
f 53//28 54//28 62//28 61//28
f 51//29 52//29 60//29 59//29
f 49//30 50//30 58//30 57//30
f 56//31 49//31 57//31 64//31
f 54//32 55//32 63//32 62//32
f 52//33 53//33 61//33 60//33
f 50//34 51//34 59//34 58//34
f 40//27 39//27 71//27 72//27
f 38//28 37//28 69//28 70//28
f 36//29 35//29 67//29 68//29
f 34//30 33//30 65//30 66//30
f 33//31 40//31 72//31 65//31
f 39//32 38//32 70//32 71//32
f 37//33 36//33 68//33 69//33
f 35//34 34//34 66//34 67//34
f 69//10 68//10 65//10 72//10
f 66//10 65//10 68//10 67//10
f 70//10 69//10 72//10 71//10
f 61//9 64//9 57//9 60//9
f 58//9 59//9 60//9 57//9
f 62//9 63//9 64//9 61//9
