# Blender v2.78 (sub 0) OBJ File: 'lamp-long.blend'
# www.blender.org
mtllib lamp-long.mtl
o lamp_Cube
v 0.000000 0.677757 -0.160000
v 0.000000 0.977757 -0.080000
v 0.113137 0.677757 -0.113137
v 0.056569 0.977757 -0.056569
v 0.160000 0.677757 0.000000
v 0.080000 0.977757 0.000000
v 0.113137 0.677757 0.113137
v 0.056569 0.977757 0.056569
v -0.000000 0.677757 0.160000
v -0.000000 0.977757 0.080000
v -0.113137 0.677757 0.113137
v -0.056569 0.977757 0.056569
v -0.160000 0.677757 -0.000000
v -0.080000 0.977757 -0.000000
v -0.113137 0.677757 -0.113137
v -0.056569 0.977757 -0.056569
v 0.000000 0.977757 -0.072000
v 0.050912 0.977757 -0.050912
v 0.072000 0.977757 0.000000
v 0.050912 0.977757 0.050912
v -0.000000 0.977757 0.072000
v -0.050912 0.977757 0.050912
v -0.072000 0.977757 -0.000000
v -0.050912 0.977757 -0.050912
v 0.000000 0.677757 -0.144000
v 0.101823 0.677757 -0.101823
v 0.144000 0.677757 0.000000
v 0.101823 0.677757 0.101823
v -0.000000 0.677757 0.144000
v -0.101823 0.677757 0.101823
v -0.144000 0.677757 -0.000000
v -0.101823 0.677757 -0.101823
v -0.000000 0.011600 -0.120000
v -0.084853 0.011600 -0.084853
v -0.120000 0.011600 0.000000
v -0.084853 0.011600 0.084853
v 0.000000 0.011600 0.120000
v 0.084853 0.011600 0.084853
v 0.120000 0.011600 -0.000000
v 0.084853 0.011600 -0.084853
v 0.000000 0.031600 -0.060000
v -0.042426 0.031600 -0.042426
v -0.060000 0.031600 0.000000
v -0.042426 0.031600 0.042426
v 0.000000 0.031600 0.060000
v 0.042426 0.031600 0.042426
v 0.060000 0.031600 -0.000000
v 0.042426 0.031600 -0.042426
v 0.000000 0.051600 -0.020000
v -0.014142 0.051600 -0.014142
v -0.020000 0.051600 0.000000
v -0.014142 0.051600 0.014142
v 0.000000 0.051600 0.020000
v 0.014142 0.051600 0.014142
v 0.020000 0.051600 -0.000000
v 0.014142 0.051600 -0.014142
v 0.000000 0.845473 -0.020000
v -0.014142 0.845473 -0.014142
v -0.020000 0.845473 0.000000
v -0.014142 0.845473 0.014142
v 0.000000 0.845473 0.020000
v 0.014142 0.845473 0.014142
v 0.020000 0.845473 -0.000000
v 0.014142 0.845473 -0.014142
v -0.000000 0.001600 -0.120000
v -0.084853 0.001600 -0.084853
v -0.120000 0.001600 0.000000
v -0.084853 0.001600 0.084853
v 0.000000 0.001600 0.120000
v 0.084853 0.001600 0.084853
v 0.120000 0.001600 -0.000000
v 0.084853 0.001600 -0.084853
vn 0.3716 0.2392 -0.8971
vn 0.8971 0.2392 -0.3716
vn 0.8971 0.2392 0.3716
vn 0.3716 0.2392 0.8971
vn -0.3716 0.2392 0.8971
vn -0.8971 0.2392 0.3716
vn -0.8971 0.2392 -0.3716
vn -0.3716 0.2392 -0.8971
vn 0.0000 1.0000 0.0000
vn 0.0000 -1.0000 -0.0000
vn 0.3736 -0.2165 -0.9020
vn 0.9020 -0.2165 -0.3736
vn 0.9020 -0.2165 0.3736
vn 0.3736 -0.2165 0.9020
vn -0.3736 -0.2165 0.9020
vn -0.9020 -0.2165 0.3736
vn -0.9020 -0.2165 -0.3736
vn -0.3736 -0.2165 -0.9020
vn 0.3135 0.9406 -0.1299
vn 0.1299 0.9406 0.3135
vn -0.3135 0.9406 0.1299
vn -0.1299 0.9406 -0.3135
vn 0.1299 0.9406 -0.3135
vn 0.3135 0.9406 0.1299
vn -0.1299 0.9406 0.3135
vn -0.3135 0.9406 -0.1299
vn -0.4397 0.8795 0.1821
vn -0.1821 0.8795 -0.4397
vn 0.1821 0.8795 -0.4397
vn 0.4397 0.8795 0.1821
vn -0.1821 0.8795 0.4397
vn -0.4397 0.8795 -0.1821
vn 0.4397 0.8795 -0.1821
vn 0.1821 0.8795 0.4397
vn 0.9239 0.0000 -0.3827
vn 0.3827 0.0000 0.9239
vn -0.9239 0.0000 0.3827
vn -0.3827 0.0000 -0.9239
vn 0.3827 0.0000 -0.9239
vn 0.9239 0.0000 0.3827
vn -0.3827 0.0000 0.9239
vn -0.9239 0.0000 -0.3827
usemtl None
s off
f 1//1 2//1 4//1 3//1
f 3//2 4//2 6//2 5//2
f 5//3 6//3 8//3 7//3
f 7//4 8//4 10//4 9//4
f 9//5 10//5 12//5 11//5
f 11//6 12//6 14//6 13//6
f 13//7 14//7 16//7 15//7
f 15//8 16//8 2//8 1//8
f 8//9 6//9 19//9 20//9
f 14//9 12//9 22//9 23//9
f 10//9 8//9 20//9 21//9
f 16//9 14//9 23//9 24//9
f 6//9 4//9 18//9 19//9
f 12//9 10//9 21//9 22//9
f 2//9 16//9 24//9 17//9
f 4//9 2//9 17//9 18//9
f 13//10 15//10 32//10 31//10
f 3//10 5//10 27//10 26//10
f 9//10 11//10 30//10 29//10
f 15//10 1//10 25//10 32//10
f 1//10 3//10 26//10 25//10
f 5//10 7//10 28//10 27//10
f 11//10 13//10 31//10 30//10
f 7//10 9//10 29//10 28//10
f 22//11 21//11 29//11 30//11
f 23//12 22//12 30//12 31//12
f 24//13 23//13 31//13 32//13
f 17//14 24//14 32//14 25//14
f 18//15 17//15 25//15 26//15
f 19//16 18//16 26//16 27//16
f 20//17 19//17 27//17 28//17
f 21//18 20//18 28//18 29//18
f 39//19 40//19 48//19 47//19
f 37//20 38//20 46//20 45//20
f 35//21 36//21 44//21 43//21
f 33//22 34//22 42//22 41//22
f 40//23 33//23 41//23 48//23
f 38//24 39//24 47//24 46//24
f 36//25 37//25 45//25 44//25
f 34//26 35//26 43//26 42//26
f 43//27 44//27 52//27 51//27
f 41//28 42//28 50//28 49//28
f 48//29 41//29 49//29 56//29
f 46//30 47//30 55//30 54//30
f 44//31 45//31 53//31 52//31
f 42//32 43//32 51//32 50//32
f 47//33 48//33 56//33 55//33
f 45//34 46//34 54//34 53//34
f 55//35 56//35 64//35 63//35
f 53//36 54//36 62//36 61//36
f 51//37 52//37 60//37 59//37
f 49//38 50//38 58//38 57//38
f 56//39 49//39 57//39 64//39
f 54//40 55//40 63//40 62//40
f 52//41 53//41 61//41 60//41
f 50//42 51//42 59//42 58//42
f 40//35 39//35 71//35 72//35
f 38//36 37//36 69//36 70//36
f 36//37 35//37 67//37 68//37
f 34//38 33//38 65//38 66//38
f 33//39 40//39 72//39 65//39
f 39//40 38//40 70//40 71//40
f 37//41 36//41 68//41 69//41
f 35//42 34//42 66//42 67//42
f 69//10 68//10 65//10 72//10
f 66//10 65//10 68//10 67//10
f 70//10 69//10 72//10 71//10
f 61//9 64//9 57//9 60//9
f 58//9 59//9 60//9 57//9
f 62//9 63//9 64//9 61//9
