# Blender v2.78 (sub 0) OBJ File: 'sofa-triple.blend'
# www.blender.org
mtllib sofa-triple.mtl
o sofa_Cube
v -0.500000 0.150000 1.050000
v -0.500000 0.150000 -1.050000
v -0.400000 0.150000 1.150000
v -0.400000 0.150000 -1.150000
v -0.400000 0.150000 1.050000
v -0.400000 0.150000 -1.050000
v -0.400000 0.050000 1.050000
v -0.400000 0.050000 -1.050000
v 0.500000 0.150000 1.100000
v -0.500000 0.150000 1.100000
v -0.400000 0.050000 1.100000
v -0.400000 0.650000 1.100000
v -0.500000 0.150000 -1.100000
v 0.500000 0.150000 -1.100000
v -0.400000 0.050000 -1.100000
v -0.400000 0.650000 -1.100000
v 0.400000 0.150000 1.150000
v 0.400000 0.150000 -1.150000
v 0.400000 0.150000 1.050000
v 0.400000 0.150000 -1.050000
v 0.400000 0.050000 1.050000
v 0.400000 0.050000 -1.050000
v 0.400000 0.650000 1.100000
v 0.400000 0.050000 1.100000
v 0.400000 0.650000 -1.100000
v 0.400000 0.050000 -1.100000
v -0.400000 0.000000 1.100000
v -0.400000 0.000000 1.050000
v -0.400000 0.000000 -1.050000
v -0.400000 0.000000 -1.100000
v 0.400000 0.000000 1.050000
v 0.400000 0.000000 -1.050000
v 0.400000 0.000000 1.100000
v 0.400000 0.000000 -1.100000
v 0.495000 0.050000 -1.145000
v 0.495000 0.055000 -1.150000
v 0.500000 0.055000 -1.145000
v 0.495000 0.150000 -1.150000
v 0.500000 0.150000 -1.145000
v 0.500000 0.055000 1.145000
v 0.495000 0.055000 1.150000
v 0.495000 0.050000 1.145000
v 0.500000 0.150000 1.145000
v 0.495000 0.150000 1.150000
v -0.500000 0.055000 -1.145000
v -0.495000 0.055000 -1.150000
v -0.495000 0.050000 -1.145000
v -0.500000 0.150000 -1.145000
v -0.495000 0.150000 -1.150000
v -0.495000 0.055000 1.150000
v -0.500000 0.055000 1.145000
v -0.495000 0.050000 1.145000
v -0.495000 0.150000 1.150000
v -0.500000 0.150000 1.145000
v 0.495000 0.050000 1.050000
v 0.500000 0.055000 1.050000
v 0.495000 0.050000 -1.050000
v 0.500000 0.055000 -1.050000
v 0.500000 0.145000 -1.055000
v 0.495000 0.150000 -1.050000
v 0.495000 0.150000 1.050000
v 0.500000 0.145000 1.055000
v -0.495000 0.050000 -1.050000
v -0.500000 0.055000 -1.050000
v -0.495000 0.050000 1.050000
v -0.500000 0.055000 1.050000
v -0.400000 0.050000 1.145000
v -0.400000 0.055000 1.150000
v -0.400000 0.055000 -1.150000
v -0.400000 0.050000 -1.145000
v 0.495000 0.645000 1.050000
v 0.495000 0.650000 1.055000
v 0.500000 0.645000 1.055000
v 0.495000 0.645000 1.150000
v 0.500000 0.645000 1.145000
v 0.495000 0.650000 1.145000
v -0.400000 0.645000 1.150000
v -0.400000 0.650000 1.145000
v -0.495000 0.650000 1.145000
v -0.500000 0.645000 1.145000
v -0.495000 0.645000 1.150000
v -0.495000 0.650000 -1.050000
v -0.500000 0.645000 -1.050000
v -0.495000 0.645000 -1.150000
v -0.500000 0.645000 -1.145000
v -0.495000 0.650000 -1.145000
v 0.495000 0.650000 -1.145000
v 0.500000 0.645000 -1.145000
v 0.495000 0.645000 -1.150000
v 0.495000 0.650000 -1.055000
v 0.495000 0.645000 -1.050000
v 0.500000 0.645000 -1.055000
v -0.495000 0.650000 1.050000
v -0.500000 0.645000 1.050000
v -0.400000 0.645000 1.050000
v -0.405000 0.650000 1.055000
v -0.405000 0.650000 -1.055000
v -0.400000 0.645000 -1.050000
v -0.400000 0.650000 -1.145000
v -0.400000 0.645000 -1.150000
v -0.500000 0.055000 1.100000
v -0.495000 0.050000 1.100000
v 0.500000 0.055000 1.100000
v 0.495000 0.050000 1.100000
v 0.500000 0.645000 1.100000
v 0.495000 0.650000 1.100000
v -0.500000 0.645000 1.100000
v -0.495000 0.650000 1.100000
v 0.500000 0.055000 -1.100000
v 0.495000 0.050000 -1.100000
v -0.500000 0.055000 -1.100000
v -0.495000 0.050000 -1.100000
v -0.500000 0.645000 -1.100000
v -0.495000 0.650000 -1.100000
v 0.500000 0.645000 -1.100000
v 0.495000 0.650000 -1.100000
v 0.400000 0.055000 1.150000
v 0.400000 0.050000 1.145000
v 0.400000 0.055000 -1.150000
v 0.400000 0.050000 -1.145000
v 0.400000 0.645000 1.150000
v 0.400000 0.650000 1.145000
v 0.400000 0.645000 -1.150000
v 0.400000 0.650000 -1.145000
v 0.400000 0.650000 1.055000
v 0.400000 0.645000 1.050000
v 0.400000 0.645000 -1.050000
v 0.400000 0.650000 -1.055000
v -0.290000 0.160000 1.050000
v -0.300000 0.160000 1.040000
v -0.290000 0.150000 1.040000
v -0.290000 0.160000 0.350000
v -0.290000 0.150000 0.360000
v -0.300000 0.160000 0.360000
v 0.490000 0.160000 1.050000
v 0.490000 0.150000 1.040000
v 0.500000 0.160000 1.040000
v 0.490000 0.160000 0.350000
v 0.500000 0.160000 0.360000
v 0.490000 0.150000 0.360000
v 0.490000 0.340000 1.050000
v 0.500000 0.340000 1.040000
v 0.490000 0.350000 1.040000
v -0.290000 0.340000 1.050000
v -0.290000 0.350000 1.040000
v -0.300000 0.340000 1.040000
v 0.490000 0.340000 0.350000
v 0.490000 0.350000 0.360000
v 0.500000 0.340000 0.360000
v -0.290000 0.340000 0.350000
v -0.300000 0.340000 0.360000
v -0.290000 0.350000 0.360000
v -0.315000 0.645000 0.360000
v -0.305000 0.635000 0.360000
v -0.315000 0.635000 0.350000
v -0.400000 0.635000 0.360000
v -0.390000 0.645000 0.360000
v -0.390000 0.635000 0.350000
v -0.315000 0.635000 1.050000
v -0.305000 0.635000 1.040000
v -0.315000 0.645000 1.040000
v -0.390000 0.635000 1.050000
v -0.390000 0.645000 1.040000
v -0.400000 0.635000 1.040000
v -0.305000 0.160000 1.040000
v -0.315000 0.160000 1.050000
v -0.315000 0.150000 1.040000
v -0.305000 0.160000 0.360000
v -0.315000 0.150000 0.360000
v -0.315000 0.160000 0.350000
v -0.390000 0.160000 0.350000
v -0.390000 0.150000 0.360000
v -0.400000 0.160000 0.360000
v -0.400000 0.160000 1.040000
v -0.390000 0.150000 1.040000
v -0.390000 0.160000 1.050000
v -0.390000 0.160000 0.350000
v -0.390000 0.150000 0.340000
v -0.400000 0.160000 0.340000
v -0.400000 0.160000 -0.340000
v -0.390000 0.150000 -0.340000
v -0.390000 0.160000 -0.350000
v -0.315000 0.160000 -0.350000
v -0.315000 0.150000 -0.340000
v -0.305000 0.160000 -0.340000
v -0.315000 0.150000 0.340000
v -0.315000 0.160000 0.350000
v -0.305000 0.160000 0.340000
v -0.400000 0.635000 0.340000
v -0.390000 0.645000 0.340000
v -0.390000 0.635000 0.350000
v -0.315000 0.645000 0.340000
v -0.305000 0.635000 0.340000
v -0.315000 0.635000 0.350000
v -0.390000 0.635000 -0.350000
v -0.390000 0.645000 -0.340000
v -0.400000 0.635000 -0.340000
v -0.315000 0.635000 -0.350000
v -0.305000 0.635000 -0.340000
v -0.315000 0.645000 -0.340000
v -0.290000 0.350000 -0.340000
v -0.300000 0.340000 -0.340000
v -0.290000 0.340000 -0.350000
v 0.500000 0.340000 -0.340000
v 0.490000 0.350000 -0.340000
v 0.490000 0.340000 -0.350000
v -0.300000 0.340000 0.340000
v -0.290000 0.350000 0.340000
v -0.290000 0.340000 0.350000
v 0.490000 0.350000 0.340000
v 0.500000 0.340000 0.340000
v 0.490000 0.340000 0.350000
v 0.490000 0.150000 -0.340000
v 0.500000 0.160000 -0.340000
v 0.490000 0.160000 -0.350000
v 0.500000 0.160000 0.340000
v 0.490000 0.150000 0.340000
v 0.490000 0.160000 0.350000
v -0.300000 0.160000 -0.340000
v -0.290000 0.150000 -0.340000
v -0.290000 0.160000 -0.350000
v -0.290000 0.150000 0.340000
v -0.300000 0.160000 0.340000
v -0.290000 0.160000 0.350000
v -0.390000 0.160000 -0.350000
v -0.390000 0.150000 -0.360000
v -0.400000 0.160000 -0.360000
v -0.400000 0.160000 -1.040000
v -0.390000 0.150000 -1.040000
v -0.390000 0.160000 -1.050000
v -0.315000 0.160000 -1.050000
v -0.315000 0.150000 -1.040000
v -0.305000 0.160000 -1.040000
v -0.315000 0.150000 -0.360000
v -0.315000 0.160000 -0.350000
v -0.305000 0.160000 -0.360000
v -0.400000 0.635000 -0.360000
v -0.390000 0.645000 -0.360000
v -0.390000 0.635000 -0.350000
v -0.315000 0.645000 -0.360000
v -0.305000 0.635000 -0.360000
v -0.315000 0.635000 -0.350000
v -0.390000 0.635000 -1.050000
v -0.390000 0.645000 -1.040000
v -0.400000 0.635000 -1.040000
v -0.315000 0.635000 -1.050000
v -0.305000 0.635000 -1.040000
v -0.315000 0.645000 -1.040000
v -0.290000 0.350000 -1.040000
v -0.300000 0.340000 -1.040000
v -0.290000 0.340000 -1.050000
v 0.500000 0.340000 -1.040000
v 0.490000 0.350000 -1.040000
v 0.490000 0.340000 -1.050000
v -0.300000 0.340000 -0.360000
v -0.290000 0.350000 -0.360000
v -0.290000 0.340000 -0.350000
v 0.490000 0.350000 -0.360000
v 0.500000 0.340000 -0.360000
v 0.490000 0.340000 -0.350000
v 0.490000 0.150000 -1.040000
v 0.500000 0.160000 -1.040000
v 0.490000 0.160000 -1.050000
v 0.500000 0.160000 -0.360000
v 0.490000 0.150000 -0.360000
v 0.490000 0.160000 -0.350000
v -0.300000 0.160000 -1.040000
v -0.290000 0.150000 -1.040000
v -0.290000 0.160000 -1.050000
v -0.290000 0.150000 -0.360000
v -0.300000 0.160000 -0.360000
v -0.290000 0.160000 -0.350000
vn 1.0000 0.0000 0.0000
vn 0.0000 0.0000 1.0000
vn -1.0000 0.0000 0.0000
vn 0.0000 -1.0000 0.0000
vn 0.0000 0.0000 -1.0000
vn 0.0000 1.0000 0.0000
vn 0.5774 -0.5773 -0.5773
vn 0.5774 -0.5773 0.5773
vn -0.5774 -0.5773 -0.5773
vn -0.5774 -0.5773 0.5773
vn 0.5773 0.5774 -0.5774
vn 0.5774 0.5773 0.5773
vn -0.5774 0.5773 0.5773
vn -0.5774 0.5773 -0.5773
vn 0.5774 0.5773 -0.5773
vn 0.7071 -0.7071 0.0000
vn 0.7071 0.0000 -0.7071
vn 0.7071 0.0000 0.7071
vn -0.7071 0.0000 0.7071
vn -0.7071 -0.7071 0.0000
vn -0.7071 0.0000 -0.7071
vn 0.0000 -0.7071 -0.7071
vn 0.7071 0.7071 0.0000
vn 0.0000 -0.7071 0.7071
vn 0.0000 0.7071 0.7071
vn -0.7071 0.7071 0.0000
vn 0.0000 0.7071 -0.7071
vn -0.5774 -0.5774 0.5774
vn -0.5774 -0.5774 -0.5774
vn 0.5774 -0.5774 0.5774
vn 0.5774 0.5774 0.5774
vn -0.5774 0.5774 0.5774
vn 0.5774 0.5774 -0.5774
vn -0.5774 0.5774 -0.5774
vn -0.5774 0.5773 0.5774
vn -0.5774 -0.5773 0.5774
vn 0.5774 -0.5774 -0.5774
usemtl None
s off
f 43//1 9//1 105//1 75//1
f 53//2 3//2 77//2 81//2
f 48//3 13//3 113//3 85//3
f 15//4 70//4 120//4 26//4
f 111//3 13//3 48//3 45//3
f 61//5 19//5 126//5 71//5
f 101//3 10//3 1//3 66//3
f 67//4 11//4 24//4 118//4
f 64//3 2//3 13//3 111//3
f 59//1 14//1 115//1 92//1
f 56//1 62//1 9//1 103//1
f 59//1 62//1 56//1 58//1
f 11//4 102//4 65//4 7//4
f 20//6 6//6 5//6 19//6
f 46//5 49//5 4//5 69//5
f 114//6 16//6 99//6 86//6
f 125//6 96//6 12//6 23//6
f 37//1 39//1 14//1 109//1
f 38//5 18//5 123//5 89//5
f 15//4 112//4 47//4 70//4
f 3//2 17//2 121//2 77//2
f 60//6 20//6 19//6 61//6
f 6//2 20//2 127//2 98//2
f 82//6 97//6 16//6 114//6
f 1//3 10//3 107//3 94//3
f 87//6 124//6 25//6 116//6
f 24//4 21//4 55//4 104//4
f 19//5 5//5 95//5 126//5
f 93//6 96//6 97//6 82//6
f 51//3 54//3 10//3 101//3
f 10//3 54//3 80//3 107//3
f 44//2 17//2 117//2 41//2
f 21//4 7//4 8//4 22//4
f 5//1 6//1 98//1 95//1
f 2//3 1//3 94//3 83//3
f 25//6 16//6 97//6 128//6
f 103//1 9//1 43//1 40//1
f 67//4 52//4 102//4 11//4
f 68//2 3//2 53//2 50//2
f 17//2 44//2 74//2 121//2
f 55//4 21//4 22//4 57//4
f 20//2 60//2 91//2 127//2
f 13//3 2//3 83//3 113//3
f 18//5 4//5 100//5 123//5
f 109//1 14//1 59//1 58//1
f 4//5 49//5 84//5 100//5
f 18//5 38//5 36//5 119//5
f 1//3 2//3 64//3 66//3
f 63//4 8//4 7//4 65//4
f 8//3 15//3 30//3 29//3
f 116//6 25//6 128//6 90//6
f 17//2 3//2 68//2 117//2
f 106//6 23//6 122//6 76//6
f 22//4 26//4 110//4 57//4
f 108//6 12//6 96//6 93//6
f 124//6 99//6 16//6 25//6
f 23//6 12//6 78//6 122//6
f 72//6 125//6 23//6 106//6
f 4//5 18//5 119//5 69//5
f 8//4 63//4 112//4 15//4
f 14//1 39//1 88//1 115//1
f 79//6 78//6 12//6 108//6
f 9//1 62//1 73//1 105//1
f 11//3 7//3 28//3 27//3
f 118//4 24//4 104//4 42//4
f 29//4 30//4 34//4 32//4
f 27//4 28//4 31//4 33//4
f 21//1 24//1 33//1 31//1
f 7//5 21//5 31//5 28//5
f 15//5 26//5 34//5 30//5
f 24//2 11//2 27//2 33//2
f 22//2 8//2 29//2 32//2
f 26//1 22//1 32//1 34//1
f 35//7 36//7 37//7
f 40//8 41//8 42//8
f 45//9 46//9 47//9
f 50//10 51//10 52//10
f 71//11 72//11 73//11
f 74//12 75//12 76//12
f 79//13 80//13 81//13
f 84//14 85//14 86//14
f 87//15 88//15 89//15
f 90//12 91//12 92//12
f 110//16 35//16 37//16 109//16
f 36//17 38//17 39//17 37//17
f 44//18 41//18 40//18 43//18
f 54//19 51//19 50//19 53//19
f 102//20 52//20 51//20 101//20
f 49//21 46//21 45//21 48//21
f 70//22 47//22 46//22 69//22
f 104//16 55//16 56//16 103//16
f 55//16 57//16 58//16 56//16
f 60//23 61//23 62//23 59//23
f 112//20 63//20 64//20 111//20
f 63//20 65//20 66//20 64//20
f 84//21 49//21 48//21 85//21
f 52//24 67//24 68//24 50//24
f 118//24 42//24 41//24 117//24
f 120//22 70//22 69//22 119//22
f 43//18 75//18 74//18 44//18
f 106//23 76//23 75//23 105//23
f 78//25 79//25 81//25 77//25
f 114//26 86//26 85//26 113//26
f 116//23 90//23 92//23 115//23
f 108//26 93//26 94//26 107//26
f 93//26 82//26 83//26 94//26
f 122//25 78//25 77//25 121//25
f 86//27 99//27 100//27 84//27
f 124//27 87//27 89//27 123//27
f 126//27 95//27 96//27 125//27
f 128//25 97//25 98//25 127//25
f 95//23 98//23 97//23 96//23
f 59//18 92//18 91//18 60//18
f 61//17 71//17 73//17 62//17
f 53//19 81//19 80//19 54//19
f 88//17 39//17 38//17 89//17
f 65//20 102//20 101//20 66//20
f 42//16 104//16 103//16 40//16
f 72//23 106//23 105//23 73//23
f 79//26 108//26 107//26 80//26
f 57//16 110//16 109//16 58//16
f 47//20 112//20 111//20 45//20
f 82//26 114//26 113//26 83//26
f 87//23 116//23 115//23 88//23
f 67//24 118//24 117//24 68//24
f 35//22 120//22 119//22 36//22
f 76//25 122//25 121//25 74//25
f 99//27 124//27 123//27 100//27
f 71//27 126//27 125//27 72//27
f 90//25 128//25 127//25 91//25
f 26//4 120//4 35//4 110//4
f 134//3 130//3 146//3 151//3
f 138//5 132//5 150//5 147//5
f 140//4 136//4 131//4 133//4
f 148//6 152//6 145//6 143//6
f 137//1 139//1 149//1 142//1
f 129//28 130//28 131//28
f 132//29 133//29 134//29
f 135//30 136//30 137//30
f 138//7 139//7 140//7
f 141//31 142//31 143//31
f 144//32 145//32 146//32
f 147//33 148//33 149//33
f 150//34 151//34 152//34
f 135//24 129//24 131//24 136//24
f 140//22 133//22 132//22 138//22
f 130//20 134//20 133//20 131//20
f 139//16 137//16 136//16 140//16
f 143//25 145//25 144//25 141//25
f 147//27 150//27 152//27 148//27
f 145//26 152//26 151//26 146//26
f 148//23 143//23 142//23 149//23
f 129//19 144//19 146//19 130//19
f 150//21 132//21 134//21 151//21
f 137//18 142//18 141//18 135//18
f 138//17 147//17 149//17 139//17
f 129//2 135//2 141//2 144//2
f 173//3 174//3 164//3 156//3
f 153//6 157//6 163//6 161//6
f 176//2 166//2 159//2 162//2
f 170//5 171//5 158//5 155//5
f 169//4 167//4 175//4 172//4
f 153//33 154//33 155//33
f 156//34 157//34 158//34
f 159//31 160//31 161//31
f 162//35 163//35 164//35
f 165//30 166//30 167//30
f 168//7 169//7 170//7
f 171//9 172//9 173//9
f 174//36 175//36 176//36
f 159//18 166//18 165//18 160//18
f 173//21 156//21 158//21 171//21
f 176//19 162//19 164//19 174//19
f 153//23 161//23 160//23 154//23
f 175//24 167//24 166//24 176//24
f 172//20 175//20 174//20 173//20
f 168//16 165//16 167//16 169//16
f 171//22 170//22 169//22 172//22
f 154//17 168//17 170//17 155//17
f 157//27 153//27 155//27 158//27
f 156//26 164//26 163//26 157//26
f 162//25 159//25 161//25 163//25
f 165//1 168//1 154//1 160//1
f 182//22 183//22 184//22 181//22
f 177//19 191//19 189//19 179//19
f 185//16 188//16 186//16 184//16
f 200//33 199//33 198//33
f 182//29 181//29 180//29
f 191//25 194//25 192//25 190//25
f 178//24 186//24 187//24 177//24
f 194//18 187//18 188//18 193//18
f 185//37 184//37 183//37
f 194//31 193//31 192//31
f 184//4 186//4 178//4 181//4
f 177//2 187//2 194//2 191//2
f 180//3 179//3 189//3 197//3
f 188//1 185//1 199//1 193//1
f 200//23 192//23 193//23 199//23
f 199//17 185//17 183//17 198//17
f 179//36 178//36 177//36
f 191//35 190//35 189//35
f 200//6 196//6 190//6 192//6
f 183//5 182//5 195//5 198//5
f 197//34 196//34 195//34
f 197//26 189//26 190//26 196//26
f 181//20 178//20 179//20 180//20
f 180//21 197//21 195//21 182//21
f 188//30 187//30 186//30
f 196//27 200//27 198//27 195//27
f 223//20 219//20 220//20 222//20
f 203//21 221//21 219//21 202//21
f 206//33 205//33 204//33
f 208//26 201//26 202//26 207//26
f 224//28 223//28 222//28
f 215//17 206//17 204//17 214//17
f 210//25 208//25 209//25 212//25
f 218//24 224//24 222//24 217//24
f 212//31 211//31 210//31
f 218//30 217//30 216//30
f 216//1 214//1 204//1 211//1
f 213//4 217//4 222//4 220//4
f 219//3 223//3 207//3 202//3
f 203//34 202//34 201//34
f 206//27 203//27 201//27 205//27
f 209//32 208//32 207//32
f 216//18 211//18 212//18 218//18
f 221//29 220//29 219//29
f 215//5 221//5 203//5 206//5
f 215//37 214//37 213//37
f 205//6 201//6 208//6 210//6
f 224//19 209//19 207//19 223//19
f 224//2 218//2 212//2 209//2
f 214//16 216//16 217//16 213//16
f 213//22 220//22 221//22 215//22
f 205//23 210//23 211//23 204//23
f 230//22 231//22 232//22 229//22
f 225//19 239//19 237//19 227//19
f 233//16 236//16 234//16 232//16
f 248//33 247//33 246//33
f 230//29 229//29 228//29
f 239//25 242//25 240//25 238//25
f 226//24 234//24 235//24 225//24
f 242//18 235//18 236//18 241//18
f 233//37 232//37 231//37
f 242//31 241//31 240//31
f 232//4 234//4 226//4 229//4
f 225//2 235//2 242//2 239//2
f 228//3 227//3 237//3 245//3
f 236//1 233//1 247//1 241//1
f 248//23 240//23 241//23 247//23
f 247//17 233//17 231//17 246//17
f 227//36 226//36 225//36
f 239//35 238//35 237//35
f 248//6 244//6 238//6 240//6
f 231//5 230//5 243//5 246//5
f 245//34 244//34 243//34
f 245//26 237//26 238//26 244//26
f 229//20 226//20 227//20 228//20
f 228//21 245//21 243//21 230//21
f 236//30 235//30 234//30
f 244//27 248//27 246//27 243//27
f 271//20 267//20 268//20 270//20
f 251//21 269//21 267//21 250//21
f 254//33 253//33 252//33
f 256//26 249//26 250//26 255//26
f 272//28 271//28 270//28
f 263//17 254//17 252//17 262//17
f 258//25 256//25 257//25 260//25
f 266//24 272//24 270//24 265//24
f 260//31 259//31 258//31
f 266//30 265//30 264//30
f 264//1 262//1 252//1 259//1
f 261//4 265//4 270//4 268//4
f 267//3 271//3 255//3 250//3
f 251//34 250//34 249//34
f 254//27 251//27 249//27 253//27
f 257//32 256//32 255//32
f 264//18 259//18 260//18 266//18
f 269//29 268//29 267//29
f 263//5 269//5 251//5 254//5
f 263//37 262//37 261//37
f 253//6 249//6 256//6 258//6
f 272//19 257//19 255//19 271//19
f 272//2 266//2 260//2 257//2
f 262//16 264//16 265//16 261//16
f 261//22 268//22 269//22 263//22
f 253//23 258//23 259//23 252//23
