# Blender v2.78 (sub 0) OBJ File: 'stool-round.blend'
# www.blender.org
mtllib stool-round.mtl
o stool_Cube
v 0.179446 0.450000 -0.146820
v -0.146820 0.450000 -0.146820
v -0.179446 0.450000 -0.146820
v 0.146820 0.450000 -0.146820
v 0.179446 0.450000 0.146820
v -0.146820 0.450000 0.146820
v -0.179446 0.450000 0.146820
v 0.146820 0.450000 0.146820
v 0.179446 0.450000 0.179446
v -0.146820 0.450000 0.179446
v -0.179446 0.450000 0.179446
v 0.146820 0.450000 0.179446
v 0.179446 0.450000 -0.179446
v -0.146820 0.450000 -0.179446
v -0.179446 0.450000 -0.179446
v 0.146820 0.450000 -0.179446
v 0.212073 0.000000 -0.179446
v -0.244700 0.000000 -0.179446
v -0.212073 0.000000 -0.179446
v 0.244700 0.000000 -0.179446
v 0.212073 0.000000 0.179446
v -0.244700 0.000000 0.179446
v -0.212073 0.000000 0.179446
v 0.244700 0.000000 0.179446
v 0.212073 0.000000 0.146820
v -0.244700 0.000000 0.146820
v -0.212073 0.000000 0.146820
v 0.244700 0.000000 0.146820
v 0.212073 0.000000 -0.146820
v -0.244700 0.000000 -0.146820
v -0.212073 0.000000 -0.146820
v 0.244700 0.000000 -0.146820
v -0.175821 0.250000 0.179446
v -0.183072 0.200000 0.179446
v -0.175821 0.250000 0.146820
v -0.183072 0.200000 0.146820
v -0.208448 0.250000 0.146820
v -0.215698 0.200000 0.146820
v -0.215698 0.200000 0.179446
v -0.208448 0.250000 0.179446
v -0.208448 0.250000 -0.179446
v -0.215698 0.200000 -0.179446
v -0.183072 0.200000 -0.179446
v -0.175821 0.250000 -0.179446
v -0.208448 0.250000 -0.146820
v -0.215698 0.200000 -0.146820
v -0.183072 0.200000 -0.146820
v -0.175821 0.250000 -0.146820
v 0.208448 0.250000 0.179446
v 0.215698 0.200000 0.179446
v 0.208448 0.250000 0.146820
v 0.215698 0.200000 0.146820
v 0.175821 0.250000 0.146820
v 0.183072 0.200000 0.146820
v 0.183072 0.200000 0.179446
v 0.175821 0.250000 0.179446
v 0.175821 0.250000 -0.146820
v 0.183072 0.200000 -0.146820
v 0.215698 0.200000 -0.146820
v 0.208448 0.250000 -0.146820
v 0.208448 0.250000 -0.179446
v 0.215698 0.200000 -0.179446
v 0.183072 0.200000 -0.179446
v 0.175821 0.250000 -0.179446
v -0.146820 0.460000 0.146820
v 0.146820 0.460000 0.146820
v -0.146820 0.460000 -0.146820
v 0.146820 0.460000 -0.146820
v 0.146820 0.460000 -0.179446
v -0.179446 0.460000 -0.179446
v -0.146820 0.460000 -0.179446
v 0.179446 0.460000 -0.179446
v 0.146820 0.460000 0.179446
v -0.179446 0.460000 0.179446
v -0.146820 0.460000 0.179446
v 0.179446 0.460000 0.179446
v -0.179446 0.460000 0.146820
v 0.179446 0.460000 0.146820
v -0.179446 0.460000 -0.146820
v 0.179446 0.460000 -0.146820
v 0.001012 0.510000 -0.294910
v 0.000000 0.505000 -0.300000
v -0.114805 0.505000 -0.277164
v -0.113793 0.510000 -0.272074
v -0.212132 0.505000 -0.212132
v -0.211120 0.510000 -0.207042
v -0.277164 0.505000 -0.114805
v -0.276151 0.510000 -0.109715
v -0.300000 0.505000 0.000000
v -0.296439 0.510000 -0.007724
v -0.277164 0.505000 0.114805
v -0.271549 0.510000 0.117402
v -0.212132 0.505000 0.212132
v -0.213776 0.510000 0.203865
v -0.114805 0.505000 0.277164
v -0.116449 0.510000 0.268897
v -0.000000 0.505000 0.300000
v -0.001644 0.510000 0.291733
v 0.114805 0.505000 0.277164
v 0.113161 0.510000 0.268897
v 0.212132 0.505000 0.212132
v 0.210488 0.510000 0.203865
v 0.277164 0.505000 0.114805
v 0.275519 0.510000 0.106538
v 0.300000 0.505000 -0.000000
v 0.295807 0.510000 0.004547
v 0.277164 0.505000 -0.114805
v 0.270917 0.510000 -0.120579
v 0.212132 0.505000 -0.212132
v 0.213144 0.510000 -0.207042
v 0.114805 0.505000 -0.277164
v 0.115817 0.510000 -0.272074
v 0.000000 0.465000 -0.300000
v 0.001012 0.460000 -0.294910
v -0.113793 0.460000 -0.272074
v -0.114805 0.465000 -0.277164
v -0.211120 0.460000 -0.207042
v -0.212132 0.465000 -0.212132
v -0.276151 0.460000 -0.109715
v -0.277164 0.465000 -0.114805
v -0.296439 0.460000 -0.007724
v -0.300000 0.465000 0.000000
v -0.271549 0.460000 0.117402
v -0.277164 0.465000 0.114805
v -0.213776 0.460000 0.203865
v -0.212132 0.465000 0.212132
v -0.116449 0.460000 0.268897
v -0.114805 0.465000 0.277164
v -0.001644 0.460000 0.291733
v -0.000000 0.465000 0.300000
v 0.113161 0.460000 0.268897
v 0.114805 0.465000 0.277164
v 0.210488 0.460000 0.203865
v 0.212132 0.465000 0.212132
v 0.275519 0.460000 0.106538
v 0.277164 0.465000 0.114805
v 0.295807 0.460000 0.004547
v 0.300000 0.465000 -0.000000
v 0.270917 0.460000 -0.120579
v 0.277164 0.465000 -0.114805
v 0.213144 0.460000 -0.207042
v 0.212132 0.465000 -0.212132
v 0.115817 0.460000 -0.272074
v 0.114805 0.465000 -0.277164
vn 0.0000 1.0000 -0.0000
vn 0.0000 -1.0000 -0.0000
vn -0.9896 0.1435 -0.0000
vn 0.0000 0.0000 -1.0000
vn 0.9896 -0.1435 0.0000
vn 0.0000 0.0000 1.0000
vn -0.9896 -0.1435 0.0000
vn 0.9896 0.1435 0.0000
vn -1.0000 0.0000 -0.0000
vn 1.0000 0.0000 0.0000
vn 0.9808 0.0000 -0.1951
vn -0.8315 0.0000 0.5556
vn 0.8315 0.0000 -0.5556
vn -0.5556 0.0000 0.8315
vn 0.5556 0.0000 -0.8315
vn -0.1951 0.0000 0.9808
vn 0.1951 0.0000 0.9808
vn -0.1951 0.0000 -0.9808
vn 0.5556 0.0000 0.8315
vn -0.9808 0.0000 0.1951
vn 0.1951 0.0000 -0.9808
vn 0.8315 0.0000 0.5556
vn 0.9808 0.0000 0.1951
vn -0.5556 0.0000 -0.8315
vn -0.8315 0.0000 -0.5556
vn -0.9808 0.0000 -0.1951
vn -0.1354 0.7201 -0.6805
vn -0.4010 0.6921 -0.6001
vn -0.6703 0.5917 -0.4479
vn -0.9115 0.3691 -0.1813
vn -0.6935 0.7071 0.1379
vn -0.6987 0.5421 0.4668
vn -0.3571 0.7661 0.5344
vn -0.1054 0.8415 0.5299
vn 0.0995 0.8601 0.5004
vn 0.3002 0.8415 0.4492
vn 0.5344 0.7661 0.3571
vn 0.8242 0.5421 0.1639
vn 0.6935 0.7071 -0.1379
vn 0.7727 0.3691 -0.5163
vn 0.4479 0.5917 -0.6703
vn 0.1408 0.6921 -0.7079
vn -0.1354 -0.7201 -0.6805
vn -0.4010 -0.6921 -0.6001
vn -0.6703 -0.5917 -0.4479
vn -0.9115 -0.3691 -0.1813
vn -0.6935 -0.7071 0.1379
vn -0.6987 -0.5421 0.4668
vn -0.3571 -0.7661 0.5344
vn -0.1054 -0.8415 0.5299
vn 0.0995 -0.8601 0.5004
vn 0.3002 -0.8415 0.4492
vn 0.5344 -0.7661 0.3571
vn 0.8242 -0.5421 0.1639
vn 0.6935 -0.7071 -0.1380
vn 0.7727 -0.3691 -0.5163
vn 0.4479 -0.5917 -0.6703
vn 0.1408 -0.6921 -0.7079
usemtl Material
s off
f 68//1 66//1 78//1 80//1
f 65//1 75//1 73//1 66//1
f 77//1 74//1 75//1 65//1
f 79//1 77//1 65//1 67//1
f 69//1 68//1 80//1 72//1
f 70//1 79//1 67//1 71//1
f 16//2 4//2 2//2 14//2
f 1//2 5//2 8//2 4//2
f 2//2 6//2 7//2 3//2
f 4//2 8//2 6//2 2//2
f 8//2 12//2 10//2 6//2
f 67//1 65//1 66//1 68//1
f 71//1 67//1 68//1 69//1
f 17//2 20//2 32//2 29//2
f 18//2 19//2 31//2 30//2
f 22//2 26//2 27//2 23//2
f 21//2 25//2 28//2 24//2
f 7//3 37//3 40//3 11//3
f 40//3 37//3 38//3 39//3
f 38//3 26//3 22//3 39//3
f 6//4 35//4 37//4 7//4
f 36//4 27//4 26//4 38//4
f 10//5 33//5 35//5 6//5
f 34//5 23//5 27//5 36//5
f 11//6 40//6 33//6 10//6
f 33//6 40//6 39//6 34//6
f 22//6 23//6 34//6 39//6
f 3//6 45//6 48//6 2//6
f 46//6 30//6 31//6 47//6
f 2//5 48//5 44//5 14//5
f 31//5 19//5 43//5 47//5
f 15//3 41//3 45//3 3//3
f 45//3 41//3 42//3 46//3
f 42//3 18//3 30//3 46//3
f 14//4 44//4 41//4 15//4
f 41//4 44//4 43//4 42//4
f 19//4 18//4 42//4 43//4
f 8//7 53//7 56//7 12//7
f 54//7 25//7 21//7 55//7
f 5//4 51//4 53//4 8//4
f 58//2 59//2 52//2 54//2
f 52//4 28//4 25//4 54//4
f 9//8 49//8 51//8 5//8
f 51//8 49//8 50//8 52//8
f 50//8 24//8 28//8 52//8
f 12//6 56//6 49//6 9//6
f 49//6 56//6 55//6 50//6
f 21//6 24//6 50//6 55//6
f 13//4 61//4 64//4 16//4
f 64//4 61//4 62//4 63//4
f 62//4 20//4 17//4 63//4
f 4//6 57//6 60//6 1//6
f 59//8 60//8 51//8 52//8
f 58//6 29//6 32//6 59//6
f 1//8 60//8 61//8 13//8
f 61//8 60//8 59//8 62//8
f 32//8 20//8 62//8 59//8
f 16//7 64//7 57//7 4//7
f 57//1 53//1 51//1 60//1
f 17//7 29//7 58//7 63//7
f 58//7 54//7 53//7 57//7
f 35//1 48//1 45//1 37//1
f 38//3 37//3 45//3 46//3
f 36//2 38//2 46//2 47//2
f 48//5 35//5 36//5 47//5
f 54//4 36//4 35//4 53//4
f 33//1 56//1 53//1 35//1
f 33//6 34//6 55//6 56//6
f 34//2 36//2 54//2 55//2
f 48//1 57//1 64//1 44//1
f 58//6 57//6 48//6 47//6
f 47//2 43//2 63//2 58//2
f 44//4 64//4 63//4 43//4
f 13//4 16//4 69//4 72//4
f 3//9 7//9 77//9 79//9
f 11//6 10//6 75//6 74//6
f 9//10 5//10 78//10 76//10
f 16//4 14//4 71//4 69//4
f 1//10 13//10 72//10 80//10
f 15//9 3//9 79//9 70//9
f 7//9 11//9 74//9 77//9
f 10//6 12//6 73//6 75//6
f 5//10 1//10 80//10 78//10
f 12//6 9//6 76//6 73//6
f 135//2 141//2 139//2 137//2
f 143//2 141//2 135//2 133//2
f 129//2 127//2 117//2 115//2
f 114//2 143//2 133//2 131//2
f 125//2 119//2 117//2 127//2
f 14//4 15//4 70//4 71//4
f 119//2 125//2 123//2 121//2
f 66//1 73//1 76//1 78//1
f 105//11 138//11 140//11 107//11
f 91//12 124//12 126//12 93//12
f 107//13 140//13 142//13 109//13
f 93//14 126//14 128//14 95//14
f 109//15 142//15 144//15 111//15
f 95//16 128//16 130//16 97//16
f 131//2 129//2 115//2 114//2
f 97//17 130//17 132//17 99//17
f 102//1 112//1 81//1 100//1
f 82//18 113//18 116//18 83//18
f 99//19 132//19 134//19 101//19
f 88//1 94//1 96//1 86//1
f 104//1 110//1 112//1 102//1
f 90//1 92//1 94//1 88//1
f 106//1 108//1 110//1 104//1
f 89//20 122//20 124//20 91//20
f 111//21 144//21 113//21 82//21
f 86//1 96//1 98//1 84//1
f 101//22 134//22 136//22 103//22
f 103//23 136//23 138//23 105//23
f 83//24 116//24 118//24 85//24
f 85//25 118//25 120//25 87//25
f 87//26 120//26 122//26 89//26
f 84//27 81//27 82//27 83//27
f 86//28 84//28 83//28 85//28
f 88//29 86//29 85//29 87//29
f 90//30 88//30 87//30 89//30
f 92//31 90//31 89//31 91//31
f 94//32 92//32 91//32 93//32
f 96//33 94//33 93//33 95//33
f 98//34 96//34 95//34 97//34
f 100//35 98//35 97//35 99//35
f 102//36 100//36 99//36 101//36
f 104//37 102//37 101//37 103//37
f 106//38 104//38 103//38 105//38
f 108//39 106//39 105//39 107//39
f 110//40 108//40 107//40 109//40
f 112//41 110//41 109//41 111//41
f 81//42 112//42 111//42 82//42
f 116//43 113//43 114//43 115//43
f 118//44 116//44 115//44 117//44
f 120//45 118//45 117//45 119//45
f 122//46 120//46 119//46 121//46
f 124//47 122//47 121//47 123//47
f 126//48 124//48 123//48 125//48
f 128//49 126//49 125//49 127//49
f 130//50 128//50 127//50 129//50
f 132//51 130//51 129//51 131//51
f 134//52 132//52 131//52 133//52
f 136//53 134//53 133//53 135//53
f 138//54 136//54 135//54 137//54
f 140//55 138//55 137//55 139//55
f 142//56 140//56 139//56 141//56
f 144//57 142//57 141//57 143//57
f 113//58 144//58 143//58 114//58
f 84//1 98//1 100//1 81//1
