# Blender v2.78 (sub 0) OBJ File: 'table-fold.blend'
# www.blender.org
mtllib table-fold.mtl
o table_Cube.001
v -0.750000 0.565000 0.395000
v -0.745000 0.560000 0.395000
v -0.745000 0.565000 0.400000
v -0.750000 0.605000 0.395000
v -0.745000 0.605000 0.400000
v -0.745000 0.610000 0.395000
v -0.750000 0.565000 -0.395000
v -0.745000 0.565000 -0.400000
v -0.745000 0.560000 -0.395000
v -0.750000 0.605000 -0.395000
v -0.745000 0.610000 -0.395000
v -0.745000 0.605000 -0.400000
v 0.750000 0.565000 0.395000
v 0.745000 0.565000 0.400000
v 0.745000 0.560000 0.395000
v 0.750000 0.605000 0.395000
v 0.745000 0.610000 0.395000
v 0.745000 0.605000 0.400000
v 0.750000 0.565000 -0.395000
v 0.745000 0.560000 -0.395000
v 0.745000 0.565000 -0.400000
v 0.750000 0.605000 -0.395000
v 0.745000 0.605000 -0.400000
v 0.745000 0.610000 -0.395000
v -0.645667 0.560000 -0.296250
v -0.645667 0.560000 0.296250
v 0.645667 0.560000 -0.296250
v 0.645667 0.560000 0.296250
v -0.596000 0.560000 0.296250
v -0.596000 0.560000 -0.296250
v 0.596000 0.560000 0.296250
v 0.596000 0.560000 -0.296250
v -0.645667 0.510000 -0.296250
v -0.645667 0.510000 0.296250
v 0.645667 0.510000 -0.296250
v 0.645667 0.510000 0.296250
v 0.596000 0.510000 0.296250
v 0.596000 0.510000 -0.296250
v -0.596000 0.510000 0.296250
v -0.596000 0.510000 -0.296250
v 0.645667 0.560000 -0.246875
v 0.596000 0.560000 -0.246875
v 0.645667 0.510000 -0.246875
v 0.596000 0.510000 -0.246875
v -0.645667 0.560000 -0.246875
v -0.596000 0.560000 -0.246875
v -0.645667 0.510000 -0.246875
v -0.596000 0.510000 -0.246875
v -0.645667 0.560000 0.246875
v -0.596000 0.560000 0.246875
v -0.645667 0.510000 0.246875
v -0.596000 0.510000 0.246875
v 0.645667 0.560000 0.246875
v 0.596000 0.560000 0.246875
v 0.645667 0.510000 0.246875
v 0.596000 0.510000 0.246875
v -0.750000 0.000000 0.345625
v -0.750000 0.000000 0.395000
v 0.745000 0.000000 0.345625
v 0.745000 0.000000 0.395000
v 0.695333 0.000000 0.395000
v 0.695333 0.000000 -0.395000
v 0.745000 0.000000 -0.395000
v -0.700333 0.000000 0.395000
v -0.750000 0.000000 -0.395000
v -0.700333 0.000000 -0.395000
v -0.700333 0.000000 0.345625
v 0.695333 0.000000 0.345625
v 0.745000 0.000000 -0.345625
v 0.695333 0.000000 -0.345625
v -0.750000 0.000000 -0.345625
v -0.700333 0.000000 -0.345625
v -0.645667 0.560000 -0.027431
v -0.645667 0.560000 0.027431
v -0.596000 0.560000 -0.027431
v -0.596000 0.560000 0.027431
v -0.645667 0.510000 -0.027431
v -0.645667 0.510000 0.027431
v -0.596000 0.510000 -0.027431
v -0.596000 0.510000 0.027431
v 0.645667 0.560000 -0.027431
v 0.645667 0.560000 0.027431
v 0.596000 0.560000 -0.027431
v 0.596000 0.560000 0.027431
v 0.645667 0.510000 -0.027431
v 0.645667 0.510000 0.027431
v 0.596000 0.510000 -0.027431
v 0.596000 0.510000 0.027431
v 0.673259 0.113333 -0.323681
v 0.684296 0.056667 -0.334653
v 0.722926 0.113333 -0.373056
v 0.733963 0.056667 -0.384028
v 0.733963 0.056667 -0.334653
v 0.722926 0.113333 -0.323681
v 0.684296 0.056667 -0.384028
v 0.673259 0.113333 -0.373056
v 0.673259 0.113333 0.323681
v 0.684296 0.056667 0.334653
v 0.722926 0.113333 0.373056
v 0.733963 0.056667 0.384028
v 0.733963 0.056667 0.334653
v 0.722926 0.113333 0.323681
v 0.684296 0.056667 0.384028
v 0.673259 0.113333 0.373056
v -0.677148 0.113333 -0.323681
v -0.688741 0.056667 -0.334653
v -0.738407 0.056667 -0.384028
v -0.726815 0.113333 -0.373056
v -0.726815 0.113333 -0.323681
v -0.738407 0.056667 -0.334653
v -0.688741 0.056667 -0.384028
v -0.677148 0.113333 -0.373056
v -0.677148 0.113333 0.373056
v -0.688741 0.056667 0.384028
v -0.726815 0.113333 0.323681
v -0.738407 0.056667 0.334653
v -0.738407 0.056667 0.384028
v -0.726815 0.113333 0.373056
v -0.688741 0.056667 0.334653
v -0.677148 0.113333 0.323681
vn 0.0000 0.0000 1.0000
vn -0.5774 -0.5774 0.5774
vn -0.5774 0.5774 0.5774
vn -0.5774 -0.5774 -0.5774
vn -0.5774 0.5774 -0.5774
vn 0.5774 -0.5774 0.5774
vn 0.5774 0.5774 0.5774
vn 0.5774 -0.5774 -0.5774
vn 0.5774 0.5774 -0.5774
vn -0.7071 0.0000 0.7071
vn -0.7071 0.0000 -0.7071
vn 0.7071 0.0000 -0.7071
vn 0.7071 0.0000 0.7071
vn 0.0000 0.7071 -0.7071
vn 0.0000 -0.7071 -0.7071
vn 0.0000 -0.7071 0.7071
vn -1.0000 0.0000 0.0000
vn 0.7071 -0.7071 0.0000
vn 0.7071 0.7071 0.0000
vn -0.7071 -0.7071 0.0000
vn -0.7071 0.7071 0.0000
vn 1.0000 0.0000 0.0000
vn 0.0000 0.0000 -1.0000
vn 0.0000 1.0000 0.0000
vn 0.0000 0.7071 0.7071
vn 0.0000 -1.0000 0.0000
vn -0.9816 -0.1912 0.0000
vn 0.9797 -0.2004 -0.0000
vn 0.0000 0.1901 -0.9818
vn 0.0000 -0.1901 0.9818
vn -0.9797 0.2004 -0.0000
vn 0.0000 -0.1901 -0.9818
vn 0.9816 0.1912 0.0000
vn -0.0000 0.1901 0.9818
usemtl None
s off
f 14//1 18//1 5//1 3//1
f 1//2 2//2 3//2
f 4//3 5//3 6//3
f 7//4 8//4 9//4
f 10//5 11//5 12//5
f 13//6 14//6 15//6
f 16//7 17//7 18//7
f 19//8 20//8 21//8
f 22//9 23//9 24//9
f 3//10 5//10 4//10 1//10
f 12//11 8//11 7//11 10//11
f 22//12 19//12 21//12 23//12
f 18//13 14//13 13//13 16//13
f 11//14 24//14 23//14 12//14
f 9//15 8//15 21//15 20//15
f 2//16 15//16 14//16 3//16
f 7//17 1//17 4//17 10//17
f 15//18 20//18 19//18 13//18
f 24//19 17//19 16//19 22//19
f 9//20 2//20 1//20 7//20
f 6//21 11//21 10//21 4//21
f 22//22 16//22 13//22 19//22
f 8//23 12//23 23//23 21//23
f 11//24 6//24 17//24 24//24
f 6//25 5//25 18//25 17//25
f 47//17 77//17 73//17 45//17
f 42//24 41//24 27//24 32//24
f 45//24 46//24 30//24 25//24
f 15//26 2//26 9//26 20//26
f 42//24 83//24 81//24 41//24
f 103//27 98//27 68//27 61//27
f 119//28 114//28 64//28 67//28
f 49//24 50//24 76//24 74//24
f 53//22 28//22 36//22 55//22
f 25//23 30//23 40//23 33//23
f 28//1 31//1 37//1 36//1
f 45//17 25//17 33//17 47//17
f 50//22 29//22 39//22 52//22
f 32//23 27//23 35//23 38//23
f 43//26 85//26 87//26 44//26
f 42//17 32//17 38//17 44//17
f 29//1 26//1 34//1 39//1
f 27//22 41//22 43//22 35//22
f 44//17 87//17 83//17 42//17
f 51//26 78//26 80//26 52//26
f 30//22 46//22 48//22 40//22
f 26//17 49//17 51//17 34//17
f 46//22 75//22 79//22 48//22
f 107//29 111//29 66//29 65//29
f 26//24 29//24 50//24 49//24
f 31//17 54//17 56//17 37//17
f 111//28 106//28 72//28 66//28
f 31//24 28//24 53//24 54//24
f 70//26 62//26 63//26 69//26
f 71//26 65//26 66//26 72//26
f 58//26 57//26 67//26 64//26
f 61//26 68//26 59//26 60//26
f 93//30 90//30 70//30 69//30
f 117//31 116//31 57//31 58//31
f 106//30 110//30 71//30 72//30
f 116//32 119//32 67//32 57//32
f 101//33 100//33 60//33 59//33
f 98//32 101//32 59//32 68//32
f 100//34 103//34 61//34 60//34
f 95//29 92//29 63//29 62//29
f 92//33 93//33 69//33 63//33
f 110//31 107//31 65//31 71//31
f 114//34 117//34 58//34 64//34
f 90//27 95//27 62//27 70//27
f 73//24 75//24 46//24 45//24
f 74//24 76//24 75//24 73//24
f 77//26 47//26 48//26 79//26
f 78//26 77//26 79//26 80//26
f 76//22 50//22 52//22 80//22
f 78//17 51//17 49//17 74//17
f 77//17 78//17 74//17 73//17
f 84//24 54//24 53//24 82//24
f 83//24 84//24 82//24 81//24
f 86//26 55//26 56//26 88//26
f 85//26 86//26 88//26 87//26
f 88//17 56//17 54//17 84//17
f 82//22 53//22 55//22 86//22
f 81//22 82//22 86//22 85//22
f 41//22 81//22 85//22 43//22
f 80//26 79//26 87//26 88//26
f 75//23 83//23 87//23 79//23
f 76//24 84//24 83//24 75//24
f 76//1 80//1 88//1 84//1
f 38//27 96//27 89//27 44//27
f 37//34 104//34 99//34 36//34
f 43//33 94//33 91//33 35//33
f 35//29 91//29 96//29 38//29
f 44//30 89//30 94//30 43//30
f 36//33 99//33 102//33 55//33
f 89//27 96//27 95//27 90//27
f 55//32 102//32 97//32 56//32
f 91//33 94//33 93//33 92//33
f 96//29 91//29 92//29 95//29
f 110//31 116//31 115//31 109//31
f 101//26 98//26 90//26 93//26
f 56//27 97//27 104//27 37//27
f 99//34 104//34 103//34 100//34
f 97//24 102//24 94//24 89//24
f 102//33 99//33 100//33 101//33
f 33//31 108//31 109//31 47//31
f 104//27 97//27 98//27 103//27
f 34//34 118//34 113//34 39//34
f 109//31 108//31 107//31 110//31
f 47//30 109//30 105//30 48//30
f 101//33 93//33 94//33 102//33
f 48//28 105//28 112//28 40//28
f 112//28 105//28 106//28 111//28
f 40//29 112//29 108//29 33//29
f 108//29 112//29 111//29 107//29
f 113//34 118//34 117//34 114//34
f 52//32 120//32 115//32 51//32
f 97//27 89//27 90//27 98//27
f 51//31 115//31 118//31 34//31
f 118//31 115//31 116//31 117//31
f 39//28 113//28 120//28 52//28
f 120//28 113//28 114//28 119//28
f 109//24 115//24 120//24 105//24
f 105//28 120//28 119//28 106//28
f 110//26 106//26 119//26 116//26
