# Blender v2.78 (sub 0) OBJ File: 'table-cafe.blend'
# www.blender.org
mtllib table-cafe.mtl
o table_Cube.001
v 0.076537 0.000000 -0.184776
v 0.277164 0.000000 -0.076537
v 0.277164 0.000000 0.076537
v 0.076537 0.000000 0.184776
v -0.076537 0.000000 0.184776
v -0.277164 0.000000 0.076537
v -0.277164 0.000000 -0.076537
v -0.076537 0.000000 -0.184776
v -0.076537 0.010000 -0.184776
v -0.277164 0.010000 -0.076537
v -0.277164 0.010000 0.076537
v -0.076537 0.010000 0.184776
v 0.076537 0.010000 0.184776
v 0.277164 0.010000 0.076537
v 0.277164 0.010000 -0.076537
v 0.076537 0.010000 -0.184776
v -0.038268 0.060000 -0.092388
v -0.092388 0.060000 -0.038268
v -0.092388 0.060000 0.038268
v -0.038268 0.060000 0.092388
v 0.038268 0.060000 0.092388
v 0.092388 0.060000 0.038268
v 0.092388 0.060000 -0.038268
v 0.038268 0.060000 -0.092388
v -0.019134 0.110000 -0.046194
v -0.046194 0.110000 -0.019134
v -0.046194 0.110000 0.019134
v -0.019134 0.110000 0.046194
v 0.019134 0.110000 0.046194
v 0.046194 0.110000 0.019134
v 0.046194 0.110000 -0.019134
v 0.019134 0.110000 -0.046194
v -0.019134 0.500000 -0.046194
v -0.046194 0.500000 -0.019134
v -0.046194 0.500000 0.019134
v -0.019134 0.500000 0.046194
v 0.019134 0.500000 0.046194
v 0.046194 0.500000 0.019134
v 0.046194 0.500000 -0.019134
v 0.019134 0.500000 -0.046194
v -0.076537 0.550000 -0.184776
v -0.184776 0.550000 -0.076537
v -0.184776 0.550000 0.076537
v -0.076537 0.550000 0.184776
v 0.076537 0.550000 0.184776
v 0.184776 0.550000 0.076537
v 0.184776 0.550000 -0.076537
v 0.076537 0.550000 -0.184776
v -0.750000 0.565000 0.395000
v -0.745000 0.560000 0.395000
v -0.745000 0.565000 0.400000
v -0.750000 0.605000 0.395000
v -0.745000 0.605000 0.400000
v -0.745000 0.610000 0.395000
v -0.750000 0.565000 -0.395000
v -0.745000 0.565000 -0.400000
v -0.745000 0.560000 -0.395000
v -0.750000 0.605000 -0.395000
v -0.745000 0.610000 -0.395000
v -0.745000 0.605000 -0.400000
v 0.750000 0.565000 0.395000
v 0.745000 0.565000 0.400000
v 0.745000 0.560000 0.395000
v 0.750000 0.605000 0.395000
v 0.745000 0.610000 0.395000
v 0.745000 0.605000 0.400000
v 0.750000 0.565000 -0.395000
v 0.745000 0.560000 -0.395000
v 0.745000 0.565000 -0.400000
v 0.750000 0.605000 -0.395000
v 0.745000 0.605000 -0.400000
v 0.745000 0.610000 -0.395000
v -0.184776 0.560000 -0.076537
v -0.076537 0.560000 -0.184776
v -0.184776 0.560000 0.076537
v -0.076537 0.560000 0.184776
v 0.076537 0.560000 0.184776
v 0.184776 0.560000 0.076537
v 0.184776 0.560000 -0.076537
v 0.076537 0.560000 -0.184776
vn 0.0000 1.0000 0.0000
vn 0.0000 0.0000 1.0000
vn 0.0000 0.0000 -1.0000
vn 0.0000 -1.0000 0.0000
vn 1.0000 0.0000 0.0000
vn 0.2143 0.9171 -0.3362
vn 0.2143 0.9171 0.3362
vn -0.2143 0.9171 0.3362
vn -0.2143 0.9171 -0.3362
vn 0.0000 0.8795 -0.4760
vn 0.2612 0.9653 0.0000
vn 0.0000 0.8795 0.4760
vn -0.2612 0.9653 0.0000
vn -0.5194 0.6786 -0.5194
vn 0.0000 0.6786 -0.7345
vn 0.7345 0.6786 0.0000
vn 0.0000 0.6786 0.7345
vn -0.7345 0.6786 -0.0000
vn 0.5194 0.6786 -0.5194
vn 0.5194 0.6786 0.5194
vn -0.5194 0.6786 0.5194
vn 0.7071 0.0000 -0.7071
vn 0.7071 0.0000 0.7071
vn -0.7071 0.0000 0.7071
vn -0.7071 0.0000 -0.7071
vn -1.0000 0.0000 0.0000
vn -0.3394 -0.9406 0.0000
vn 0.2400 -0.9406 -0.2400
vn 0.2400 -0.9406 0.2400
vn -0.2400 -0.9406 0.2400
vn -0.2400 -0.9406 -0.2400
vn 0.0000 -0.9406 -0.3394
vn 0.3394 -0.9406 -0.0000
vn 0.0000 -0.9406 0.3394
vn -0.5774 -0.5774 0.5774
vn -0.5774 0.5774 0.5774
vn -0.5774 -0.5774 -0.5774
vn -0.5774 0.5774 -0.5774
vn 0.5774 -0.5774 0.5774
vn 0.5774 0.5774 0.5774
vn 0.5774 -0.5774 -0.5774
vn 0.5774 0.5774 -0.5774
vn 0.0000 0.7071 -0.7071
vn 0.0000 0.7071 0.7071
vn 0.0000 -0.7071 -0.7071
vn 0.0000 -0.7071 0.7071
vn -0.7071 0.7071 0.0000
vn -0.7071 -0.7071 0.0000
vn 0.7071 0.7071 0.0000
vn 0.7071 -0.7071 0.0000
vn 0.4748 0.0000 -0.8801
vn 0.4748 0.0000 0.8801
vn -0.4748 0.0000 0.8801
vn -0.4748 0.0000 -0.8801
usemtl None
s off
f 72//1 59//1 54//1 65//1
f 53//2 51//2 62//2 66//2
f 9//3 16//3 1//3 8//3
f 50//4 57//4 68//4 63//4
f 70//5 64//5 61//5 67//5
f 71//3 69//3 56//3 60//3
f 16//6 24//6 23//6 15//6
f 14//7 22//7 21//7 13//7
f 12//8 20//8 19//8 11//8
f 10//9 18//9 17//9 9//9
f 9//10 17//10 24//10 16//10
f 15//11 23//11 22//11 14//11
f 13//12 21//12 20//12 12//12
f 11//13 19//13 18//13 10//13
f 17//14 18//14 26//14 25//14
f 24//15 17//15 25//15 32//15
f 22//16 23//16 31//16 30//16
f 20//17 21//17 29//17 28//17
f 18//18 19//18 27//18 26//18
f 23//19 24//19 32//19 31//19
f 21//20 22//20 30//20 29//20
f 19//21 20//21 28//21 27//21
f 31//22 32//22 40//22 39//22
f 29//23 30//23 38//23 37//23
f 27//24 28//24 36//24 35//24
f 25//25 26//25 34//25 33//25
f 32//3 25//3 33//3 40//3
f 30//5 31//5 39//5 38//5
f 28//2 29//2 37//2 36//2
f 26//26 27//26 35//26 34//26
f 34//27 35//27 43//27 42//27
f 39//28 40//28 48//28 47//28
f 37//29 38//29 46//29 45//29
f 35//30 36//30 44//30 43//30
f 33//31 34//31 42//31 41//31
f 40//32 33//32 41//32 48//32
f 38//33 39//33 47//33 46//33
f 36//34 37//34 45//34 44//34
f 44//2 45//2 77//2 76//2
f 46//5 47//5 79//5 78//5
f 48//3 41//3 74//3 80//3
f 49//35 50//35 51//35
f 52//36 53//36 54//36
f 55//37 56//37 57//37
f 58//38 59//38 60//38
f 61//39 62//39 63//39
f 64//40 65//40 66//40
f 67//41 68//41 69//41
f 70//42 71//42 72//42
f 51//24 53//24 52//24 49//24
f 60//25 56//25 55//25 58//25
f 70//22 67//22 69//22 71//22
f 66//23 62//23 61//23 64//23
f 59//43 72//43 71//43 60//43
f 65//44 54//44 53//44 66//44
f 68//45 57//45 56//45 69//45
f 50//46 63//46 62//46 51//46
f 54//47 59//47 58//47 52//47
f 57//48 50//48 49//48 55//48
f 72//49 65//49 64//49 70//49
f 63//50 68//50 67//50 61//50
f 58//26 55//26 49//26 52//26
f 15//5 14//5 3//5 2//5
f 13//2 12//2 5//2 4//2
f 11//26 10//26 7//26 6//26
f 16//51 15//51 2//51 1//51
f 14//52 13//52 4//52 3//52
f 12//53 11//53 6//53 5//53
f 10//54 9//54 8//54 7//54
f 2//4 3//4 6//4 7//4
f 5//4 6//4 3//4 4//4
f 1//4 2//4 7//4 8//4
f 73//1 77//1 78//1 74//1
f 75//1 76//1 77//1 73//1
f 79//1 80//1 74//1 78//1
f 42//26 43//26 75//26 73//26
f 47//22 48//22 80//22 79//22
f 45//23 46//23 78//23 77//23
f 43//24 44//24 76//24 75//24
f 41//25 42//25 73//25 74//25
